<?xml version="1.0" encoding="utf-8"?>
<!-- Generator: Adobe Illustrator 16.0.3, SVG Export Plug-In . SVG Version: 6.00 Build 0)  -->
<!DOCTYPE svg PUBLIC "-//W3C//DTD SVG 1.1//EN" "http://www.w3.org/Graphics/SVG/1.1/DTD/svg11.dtd">
<svg version="1.1" id="レイヤー_1" xmlns="http://www.w3.org/2000/svg" xmlns:xlink="http://www.w3.org/1999/xlink" x="0px"
	 y="0px" width="38px" height="38px" viewBox="0 0 38 38" enable-background="new 0 0 38 38" xml:space="preserve">
<g id="logo_2_">
	<path fill="none" stroke="#917D6A" stroke-width="0.5" stroke-miterlimit="10" d="M19,37.5C8.799,37.5,0.5,29.201,0.5,19
		S8.799,0.5,19,0.5c10.202,0,18.5,8.299,18.5,18.5S29.201,37.5,19,37.5z"/>
	<path fill="#FFFFFF" fill-opacity="0.1" stroke="#756F6A" stroke-width="0.5" stroke-miterlimit="10" d="M19,36.731
		C9.223,36.731,1.269,28.777,1.269,19S9.223,1.269,19,1.269c9.778,0,17.732,7.954,17.732,17.731S28.777,36.731,19,36.731z"/>
	<circle fill="none" stroke="#63594E" stroke-width="0.5" stroke-miterlimit="10" cx="19" cy="19" r="17.347"/>
	<g id="下書き_2_" opacity="0.7">
		<path fill="#6BAF87" stroke="#6BAF87" stroke-miterlimit="10" d="M17.668,29.922c-0.459-0.244-1.125-0.047-1.589-0.287
			c-0.117-0.062-0.46-0.231-0.454-0.375c0.011-0.24,0.517-0.482,0.65-0.265c0.179,0.294,0.599,0.003,0.868,0.235
			c0.19,0.164,0.308,0.322,0.453,0.521c0.204,0.279,0.332,0.076,0.659,0.078c0.336,0.002,0.903-0.063,1.235-0.094
			c0.306-0.028,0.711-0.309,0.765-0.583c0.076-0.387-0.391-0.354-0.678-0.356c-0.117-0.002-0.324-0.043-0.432-0.002
			c-0.074,0.029-0.134,0.121-0.194,0.177c-0.117,0.108-0.229,0.225-0.36,0.318c-0.124,0.088-0.283,0.169-0.369,0.292
			c-0.088,0.125-0.067,0.233-0.223,0.314c-0.09,0.047-0.267,0.114-0.346,0.025"/>
		<path fill="#6C8E6C" stroke="#669966" stroke-miterlimit="10" d="M17.377,26.734c-0.458-0.244-1.125-0.049-1.588-0.289
			c-0.117-0.061-0.46-0.23-0.454-0.374c0.012-0.24,0.517-0.482,0.65-0.265c0.179,0.294,0.599,0.004,0.868,0.235
			c0.19,0.164,0.308,0.322,0.453,0.522c0.203,0.277,0.331,0.074,0.659,0.076c0.336,0.002,0.903-0.062,1.235-0.092
			c0.306-0.029,0.71-0.309,0.765-0.584c0.076-0.387-0.391-0.354-0.678-0.357c-0.118,0-0.325-0.042-0.432,0
			c-0.074,0.028-0.134,0.12-0.194,0.176c-0.117,0.108-0.229,0.225-0.36,0.318c-0.124,0.088-0.282,0.169-0.368,0.291
			c-0.089,0.127-0.068,0.234-0.223,0.314c-0.09,0.047-0.267,0.115-0.347,0.027"/>
		<path fill="#66CC66" stroke="#66CC66" stroke-miterlimit="10" d="M17.377,23.65c-0.458-0.244-1.125-0.048-1.588-0.289
			c-0.117-0.061-0.46-0.229-0.454-0.373c0.012-0.24,0.517-0.482,0.65-0.266c0.179,0.295,0.599,0.004,0.868,0.236
			c0.19,0.164,0.308,0.322,0.453,0.521c0.203,0.278,0.331,0.075,0.659,0.077c0.336,0.001,0.903-0.063,1.235-0.093
			c0.306-0.028,0.71-0.309,0.765-0.584c0.076-0.387-0.391-0.354-0.678-0.356c-0.118-0.001-0.325-0.042-0.432-0.001
			c-0.074,0.029-0.134,0.121-0.194,0.176c-0.117,0.109-0.229,0.225-0.36,0.318c-0.124,0.088-0.282,0.17-0.368,0.292
			c-0.089,0.126-0.068,0.233-0.223,0.314c-0.09,0.046-0.267,0.114-0.347,0.026"/>
		<path fill="#4C8E4D" stroke="#4C8E4D" stroke-miterlimit="10" d="M17.783,19.309c-0.526,0-1.021-0.006-1.524,0.108
			c-0.354,0.081-0.676,0.187-1.048,0.243c-0.405,0.061-0.468-0.076-0.828-0.24c-0.312-0.143-0.671-0.254-0.958-0.455
			c-0.344-0.239-0.227-0.448,0.167-0.451c0.561-0.005,1.093-0.012,1.646-0.079c0.872-0.108,1.652-0.012,2.286,0.584
			c1.158,1.089,2.937,1.585,4.542,1.614c0.572,0.01,1.638,0.199,1.459-0.595c-0.123-0.552-1.108-0.998-1.592-1.249
			c-0.289-0.151-0.438-0.295-0.781-0.275c-0.305,0.018-0.488,0.159-0.752,0.299c-0.418,0.222-0.81,0.297-1.293,0.311
			c-0.148,0.004-1.138-0.126-1.127,0.133"/>
		<path fill="#D6D376" stroke="#D6D376" stroke-miterlimit="10" d="M18.035,6.036c0.013-0.556,0.914-0.731,1.348-0.768
			c0.396-0.032,0.468,0.138,0.681,0.444c0.167,0.239,0.308,0.436,0.595,0.51c0.091,0.022,0.229-0.053,0.313-0.107
			c0.097-0.061,0.237-0.113,0.337-0.205c0.232-0.215,0.73-0.294,1.045-0.324c0.498-0.047,0.811,0.576,1.066,0.92
			c0.168,0.228,0.235,0.477,0.543,0.537c0.426,0.086,0.559-0.182,0.867-0.326c0.223-0.104,0.655-0.262,0.877-0.125
			c0.192,0.119,0.345,0.514,0.393,0.711c0.156,0.641-0.443,1.029-0.904,1.355c-0.485,0.344-0.59,1.157-0.614,1.696
			c-0.056,1.166,0.224,2.269,0.224,3.417c0,1.121-0.727,2.338-1.512,3.158c-0.434,0.452-0.904,0.926-1.46,1.256
			c-0.532,0.318-1.381,0.232-2.009,0.294c-0.801,0.079-1.764,0.067-2.376-0.47c-0.219-0.191-0.655-0.293-0.84-0.531
			c-0.204-0.261-0.248-0.361-0.56-0.556c-0.504-0.314-0.62-1.208-0.861-1.716c-0.281-0.59-0.37-1.156-0.37-1.814
			c0-0.322-0.061-0.713,0.026-1.025c0.083-0.301,0.327-0.595,0.436-0.895c0.241-0.657,0.368-1.335,0.629-1.996
			c0.168-0.428,0.369-0.859,0.56-1.289c0.09-0.201,0.172-0.406,0.119-0.636c-0.049-0.208-0.224-0.38-0.259-0.615
			c-0.07-0.472,0.105-1.228,0.694-1.245c0.323-0.009,0.255-0.122,0.482,0.027c0.13,0.086,0.477,0.432,0.56,0.317"/>
	</g>
	<path id="花_1_" fill="none" stroke="#7A756F" stroke-width="0.5" stroke-miterlimit="10" d="M25.172,6.744
		c-0.413-0.105-1.053,0.097-1.535,0.438c0.227-0.761,0.689-1.34,1.395-1.794c0.174-0.112,0.023-0.362-0.166-0.269
		c-0.869,0.428-1.446,1.306-1.545,2.219c-0.129-0.557-0.494-1.07-1.02-1.325c0.139-0.435,0.383-0.812,0.67-1.187
		c0.104-0.138-0.11-0.256-0.228-0.166c-0.41,0.307-0.642,0.764-0.75,1.241c-0.064-0.017-0.128-0.034-0.194-0.044
		c-0.476-0.062-0.973,0.104-1.33,0.399c0.104-0.63,0.262-1.248,0.384-1.875c0.022-0.118-0.162-0.216-0.223-0.089
		c-0.307,0.648-0.411,1.347-0.412,2.053c0,0.043,0.026,0.075,0.063,0.094c-0.058,0.065-0.109,0.135-0.153,0.209
		c-0.098-0.299-0.29-0.589-0.483-0.771c-0.109-0.104-0.237-0.19-0.376-0.261c-0.031-0.559-0.041-1.106,0.023-1.663
		c0.017-0.139-0.225-0.168-0.256-0.033c-0.123,0.525-0.139,1.064-0.019,1.592c-0.245-0.079-0.509-0.1-0.76-0.04
		c-0.302,0.071-0.55,0.274-0.71,0.528c0.018-0.163,0-0.332-0.009-0.498c-0.014-0.301-0.046-0.594-0.111-0.89
		c-0.031-0.14-0.251-0.103-0.256,0.033c-0.012,0.31,0.012,0.611,0.052,0.919c0.032,0.238,0.034,0.494,0.183,0.693
		c0.003,0.004,0.01,0.004,0.014,0.007c-0.009,0.026-0.02,0.052-0.027,0.077c-0.239-0.336-0.592-0.57-1.021-0.506
		c-0.071-0.529-0.289-1.082-0.738-1.393c-0.106-0.072-0.225,0.066-0.169,0.162c0.14,0.24,0.332,0.447,0.46,0.697
		c0.097,0.19,0.171,0.389,0.224,0.59c-0.005,0.003-0.011,0.004-0.018,0.006c-0.958,0.384-0.846,1.731-0.228,2.348
		c-0.504,0.801-0.778,1.78-1.144,2.631c-0.5,1.158-0.964,2.382-0.896,3.653c0.074,1.382,0.804,2.679,1.894,3.581
		c-0.108-0.01-0.216-0.019-0.327-0.021c-0.932-0.025-1.813,0.391-2.708,0.033c-0.126-0.051-0.246,0.115-0.176,0.217
		c0.068,0.1,0.148,0.174,0.234,0.235c0.039,0.708,1.378,1.151,1.957,1.281c1.068,0.239,2.234,0.12,3.192-0.392
		c-0.296,1.309-0.479,2.671-0.557,4.057c-0.273-0.289-0.666-0.48-1.065-0.549c-0.385-0.064-1.089-0.055-1.312,0.322
		c-0.249,0.419,0.345,0.729,0.669,0.861c0.532,0.216,1.126,0.251,1.68,0.105c-0.023,0.767-0.011,1.539,0.03,2.311
		c-0.399-0.344-0.954-0.606-1.463-0.654c-0.429-0.041-0.938,0.118-0.958,0.594c-0.022,0.503,0.553,0.879,1.01,0.994
		c0.5,0.127,0.996,0.059,1.468-0.1c0.074,0.896,0.193,1.787,0.348,2.668c-0.308-0.235-0.675-0.426-1-0.523
		c-0.406-0.121-1.026-0.145-1.216,0.307c-0.417,0.99,1.564,1.36,2.359,0.98c0.333,1.643,0.801,3.24,1.404,4.735
		c0.101,0.252,0.517,0.155,0.435-0.113c-0.479-1.558-0.911-3.097-1.237-4.661c0.374,0.229,0.86,0.258,1.285,0.122
		c0.532-0.171,1.098-0.728,0.884-1.3c-0.22-0.59-1.002-0.674-1.526-0.43c-0.222,0.104-0.621,0.375-0.824,0.667
		c-0.153-0.86-0.274-1.73-0.346-2.62c0.454,0.225,1.025,0.297,1.506,0.166c0.399-0.107,1.052-0.516,0.925-0.992
		c-0.119-0.449-0.881-0.439-1.25-0.4c-0.396,0.043-0.902,0.199-1.229,0.48c-0.039-0.792-0.041-1.58-0.019-2.365
		c0.579,0.131,1.175,0.104,1.74-0.109c0.37-0.139,0.837-0.472,0.552-0.89c-0.254-0.37-0.896-0.446-1.314-0.396
		c-0.325,0.037-0.667,0.162-0.932,0.363c0.06-1.083,0.159-2.164,0.272-3.252c0.302,0.328,0.772,0.545,1.232,0.66
		c1.459,0.368,2.943-0.242,4.379,0.307c0.23,0.086,0.389-0.193,0.297-0.365c-0.475-0.887-1.243-1.551-2.221-1.83
		c0.534-0.302,1.019-0.686,1.423-1.143c0.673-0.758,1.056-1.639,1.187-2.617c0.252-1.893-1.095-4.371,0.581-5.844
		c0.048-0.042,0.067-0.088,0.072-0.134c0.335-0.309,0.591-0.707,0.614-1.157C25.831,7.304,25.63,6.859,25.172,6.744z M17.352,24.043
		c-0.367,0.056-0.73,0.061-1.093-0.031c-0.195-0.049-1.198-0.359-0.704-0.645c0.229-0.131,0.667-0.056,0.897,0.015
		c0.352,0.106,0.588,0.319,0.824,0.578c0.023,0.025,0.05,0.038,0.078,0.046C17.353,24.018,17.353,24.03,17.352,24.043z
		 M15.533,26.78c-0.412-0.702,0.707-0.366,0.949-0.259c0.331,0.146,0.619,0.356,0.923,0.546c0.001,0.024,0.003,0.049,0.004,0.073
		C16.8,27.232,15.837,27.299,15.533,26.78z M17.201,30.604c-0.229-0.009-0.452-0.039-0.669-0.105
		c-0.076-0.028-0.152-0.056-0.228-0.083c-0.284-0.098-0.283-0.274,0.003-0.527c0.294-0.072,0.741,0.201,0.964,0.341
		c0.164,0.103,0.31,0.229,0.462,0.349C17.556,30.588,17.378,30.611,17.201,30.604z M19.613,29.527
		c0.16-0.033,0.35-0.015,0.486,0.081c0.273,0.192,0.15,0.499-0.035,0.696c-0.365,0.387-0.948,0.409-1.41,0.196
		c0.033-0.032,0.054-0.075,0.056-0.121C18.721,29.974,19.208,29.609,19.613,29.527z M18.891,26.539
		c0.162-0.045,0.33-0.072,0.498-0.076c0.122-0.003,0.242,0.006,0.361,0.027c0.141-0.015,0.178,0.029,0.109,0.133
		c-0.027,0.35-0.691,0.453-0.972,0.458c-0.263,0.004-0.514-0.06-0.767-0.112C18.37,26.81,18.581,26.627,18.891,26.539z
		 M15.554,19.469c-0.452-0.021-1.872-0.241-2.331-0.723c0.229,0.033,0.48,0.012,0.74-0.025c0.955-0.141,1.779-0.191,2.642-0.031
		c0.279,0.155,0.571,0.291,0.876,0.396c0.011,0.004,0.023,0.006,0.034,0.01C16.896,19.354,16.263,19.502,15.554,19.469z
		 M17.986,23.784c0.337-0.36,1.018-0.845,1.568-0.522c0.165,0.012,0.204,0.072,0.116,0.18c-0.012,0.1-0.071,0.157-0.18,0.174
		c-0.146,0.088-0.354,0.131-0.522,0.168c-0.341,0.074-0.685,0.081-1.027,0.035l0,0C17.956,23.809,17.971,23.801,17.986,23.784z
		 M23.378,20.186c-1.632-0.216-4.104,0.462-5.016-0.887c1.017,0.154,2.058,0.004,2.991-0.395
		C22.229,19.154,22.889,19.531,23.378,20.186z M25.299,7.965c-0.057,0.248-0.172,0.467-0.328,0.663
		c-0.064-0.007-0.131,0.008-0.191,0.056c-1.613,1.285-0.871,3.139-0.771,4.852c0.166,2.883-2.075,5.598-5.334,5.238
		c-2.965-0.328-4.678-3.123-4.055-5.764c0.389-1.645,1.948-3.473,1.643-5.17c-0.005-0.024-0.046-0.035-0.062-0.016
		c-0.009,0.012-0.018,0.025-0.027,0.037c-0.156-0.516-0.481-1.17,0.145-1.49c0.589-0.302,0.964,0.475,1.165,0.869
		c0.028,0.056,0.097,0.067,0.153,0.049c0.015,0.014,0.026,0.029,0.043,0.041c0.091,0.076,0.205-0.018,0.16-0.117
		c-0.251-0.551-0.032-1.357,0.729-1.342c0.412,0.009,0.758,0.266,0.952,0.596c0.162,0.275,0.143,0.592,0.298,0.863
		c0.036,0.063,0.098,0.086,0.158,0.08c0.003,0.021,0.003,0.039,0.007,0.06c0.025,0.131,0.209,0.08,0.225-0.029
		c0.105-0.771,0.951-1.36,1.752-1.044c0.756,0.298,0.935,1.072,0.851,1.766c-0.021,0.166,0.14,0.248,0.286,0.232
		c0.09,0.051,0.221,0.043,0.268-0.057c0.256-0.543,0.684-0.938,1.311-1.102C25.255,7.084,25.4,7.532,25.299,7.965z"/>
</g>
<g>
</g>
<g>
</g>
<g>
</g>
<g>
</g>
<g>
</g>
<g>
</g>
<g>
</g>
<g>
</g>
<g>
</g>
<g>
</g>
<g>
</g>
<g>
</g>
<g>
</g>
<g>
</g>
<g>
</g>
</svg>
