<?xml version="1.0" encoding="utf-8"?>
<!-- Generator: Adobe Illustrator 16.0.3, SVG Export Plug-In . SVG Version: 6.00 Build 0)  -->
<!DOCTYPE svg PUBLIC "-//W3C//DTD SVG 1.1//EN" "http://www.w3.org/Graphics/SVG/1.1/DTD/svg11.dtd">
<svg version="1.1" id="レイヤー_1" xmlns="http://www.w3.org/2000/svg" xmlns:xlink="http://www.w3.org/1999/xlink" x="0px"
	 y="0px" width="73px" height="73px" viewBox="0 0 73 73" enable-background="new 0 0 73 73" xml:space="preserve">
<g id="logo">
	<path fill="none" stroke="#917D6A" stroke-width="0.5" stroke-miterlimit="10" d="M36.499,72.5C16.649,72.5,0.5,56.352,0.5,36.5
		c0-19.851,16.149-36,35.999-36c19.853,0,36.001,16.149,36.001,36C72.5,56.352,56.352,72.5,36.499,72.5z"/>
	<path fill="#FFFFFF" fill-opacity="0.1" stroke="#756F6A" stroke-width="0.5" stroke-miterlimit="10" d="M36.499,71.005
		c-19.025,0-34.504-15.479-34.504-34.505c0-19.026,15.479-34.505,34.504-34.505c19.026,0,34.506,15.479,34.506,34.505
		C71.005,55.525,55.525,71.005,36.499,71.005z"/>
	<circle fill="none" stroke="#63594E" stroke-width="0.5" stroke-miterlimit="10" cx="36.5" cy="36.5" r="33.757"/>
	<circle fill="#BACFD1" stroke="#63594E" stroke-width="0.5" stroke-miterlimit="10" cx="36.5" cy="36.5" r="33.757"/>
	<g id="下書き" opacity="0.7">
		<path fill="#6BAF87" stroke="#6BAF87" stroke-miterlimit="10" d="M33.909,57.754c-0.894-0.475-2.19-0.092-3.092-0.561
			c-0.229-0.119-0.896-0.449-0.883-0.729c0.021-0.468,1.006-0.938,1.265-0.515c0.348,0.572,1.165,0.007,1.689,0.458
			c0.37,0.319,0.599,0.626,0.882,1.016c0.396,0.542,0.645,0.147,1.281,0.15c0.655,0.003,1.758-0.122,2.404-0.181
			c0.595-0.057,1.383-0.601,1.488-1.136c0.146-0.753-0.762-0.69-1.32-0.694c-0.229-0.002-0.631-0.082-0.838-0.002
			c-0.145,0.057-0.262,0.235-0.379,0.344c-0.228,0.211-0.445,0.438-0.7,0.619c-0.241,0.172-0.551,0.33-0.718,0.567
			c-0.171,0.245-0.131,0.455-0.434,0.612c-0.175,0.091-0.52,0.223-0.674,0.051"/>
		<path fill="#6C8E6C" stroke="#669966" stroke-miterlimit="10" d="M33.342,51.549c-0.893-0.475-2.189-0.092-3.091-0.561
			c-0.229-0.118-0.896-0.448-0.883-0.729c0.022-0.468,1.006-0.939,1.265-0.515c0.348,0.571,1.165,0.006,1.689,0.458
			c0.369,0.318,0.599,0.627,0.882,1.016c0.395,0.542,0.644,0.146,1.281,0.15c0.654,0.003,1.758-0.121,2.404-0.182
			c0.593-0.055,1.382-0.6,1.487-1.135c0.147-0.753-0.76-0.689-1.319-0.693c-0.229-0.002-0.631-0.084-0.839-0.002
			c-0.144,0.057-0.261,0.234-0.378,0.343c-0.229,0.211-0.445,0.438-0.701,0.62c-0.24,0.171-0.55,0.328-0.716,0.565
			c-0.173,0.246-0.132,0.456-0.435,0.613c-0.175,0.091-0.52,0.224-0.675,0.051"/>
		<path fill="#66CC66" stroke="#66CC66" stroke-miterlimit="10" d="M33.342,45.549c-0.893-0.475-2.189-0.093-3.091-0.561
			c-0.229-0.118-0.896-0.448-0.883-0.729c0.022-0.467,1.006-0.938,1.265-0.515c0.348,0.572,1.165,0.007,1.689,0.458
			c0.369,0.319,0.599,0.627,0.882,1.016c0.395,0.541,0.644,0.146,1.281,0.149c0.654,0.003,1.758-0.121,2.404-0.18
			c0.593-0.057,1.382-0.602,1.487-1.137c0.147-0.753-0.76-0.689-1.319-0.693c-0.229-0.002-0.631-0.084-0.839-0.002
			c-0.144,0.056-0.261,0.234-0.378,0.342c-0.229,0.212-0.445,0.438-0.701,0.621c-0.24,0.17-0.55,0.328-0.716,0.565
			c-0.173,0.246-0.132,0.456-0.435,0.612c-0.175,0.09-0.52,0.223-0.675,0.051"/>
		<path fill="#4C8E4D" stroke="#4C8E4D" stroke-miterlimit="10" d="M34.132,37.1c-1.023,0-1.986-0.01-2.965,0.211
			c-0.689,0.157-1.316,0.365-2.039,0.474c-0.788,0.116-0.911-0.146-1.611-0.468c-0.606-0.277-1.307-0.495-1.864-0.884
			c-0.669-0.466-0.442-0.874,0.323-0.879c1.091-0.009,2.128-0.022,3.202-0.154c1.697-0.211,3.216-0.022,4.448,1.137
			c2.253,2.118,5.715,3.083,8.836,3.141c1.115,0.021,3.188,0.39,2.841-1.157c-0.24-1.072-2.156-1.941-3.098-2.431
			c-0.563-0.294-0.854-0.574-1.521-0.536c-0.592,0.035-0.951,0.31-1.463,0.582c-0.813,0.432-1.576,0.577-2.516,0.604
			c-0.289,0.009-2.215-0.244-2.193,0.258"/>
		<path fill="#D6D376" stroke="#D6D376" stroke-miterlimit="10" d="M34.621,11.273c0.026-1.083,1.778-1.423,2.624-1.494
			c0.771-0.063,0.909,0.267,1.323,0.865c0.326,0.465,0.601,0.846,1.158,0.991c0.176,0.045,0.445-0.101,0.609-0.207
			c0.188-0.12,0.463-0.222,0.656-0.401c0.451-0.417,1.42-0.571,2.033-0.63c0.968-0.093,1.576,1.122,2.074,1.791
			c0.328,0.441,0.457,0.925,1.057,1.045c0.83,0.167,1.088-0.354,1.688-0.635c0.432-0.201,1.274-0.512,1.706-0.244
			c0.374,0.231,0.671,1,0.765,1.384c0.303,1.245-0.863,2.001-1.762,2.638c-0.943,0.668-1.146,2.25-1.193,3.3
			c-0.107,2.27,0.436,4.415,0.436,6.648c0,2.183-1.413,4.552-2.941,6.146c-0.844,0.881-1.762,1.802-2.842,2.446
			c-1.033,0.618-2.687,0.451-3.91,0.571c-1.556,0.153-3.432,0.131-4.622-0.915c-0.427-0.373-1.274-0.569-1.636-1.033
			c-0.396-0.507-0.482-0.705-1.089-1.082c-0.981-0.612-1.205-2.35-1.676-3.339c-0.546-1.146-0.72-2.25-0.72-3.529
			c0-0.628-0.119-1.389,0.05-1.996c0.162-0.585,0.636-1.158,0.849-1.741c0.469-1.28,0.717-2.599,1.224-3.884
			c0.328-0.834,0.719-1.673,1.09-2.509c0.175-0.393,0.335-0.792,0.231-1.238c-0.096-0.406-0.436-0.738-0.505-1.197
			c-0.137-0.917,0.204-2.388,1.351-2.421c0.629-0.019,0.496-0.239,0.938,0.052c0.254,0.168,0.928,0.84,1.089,0.618"/>
	</g>
	<path id="花" fill="none" stroke="#7A756F" stroke-width="0.5" stroke-miterlimit="10" d="M47.537,11.677
		c-0.805-0.205-2.051,0.189-2.987,0.851c0.44-1.479,1.343-2.606,2.714-3.489c0.34-0.218,0.047-0.705-0.322-0.522
		c-1.69,0.831-2.814,2.541-3.008,4.316c-0.248-1.083-0.961-2.082-1.981-2.577c0.269-0.847,0.743-1.58,1.303-2.311
		c0.203-0.267-0.215-0.497-0.442-0.323c-0.799,0.599-1.25,1.488-1.459,2.417c-0.125-0.031-0.248-0.068-0.379-0.084
		c-0.926-0.121-1.892,0.2-2.588,0.776c0.203-1.226,0.51-2.429,0.746-3.649c0.045-0.23-0.314-0.421-0.434-0.173
		c-0.598,1.261-0.799,2.62-0.803,3.996c0,0.083,0.054,0.145,0.123,0.18c-0.111,0.128-0.213,0.264-0.299,0.408
		c-0.189-0.581-0.564-1.146-0.941-1.501c-0.213-0.201-0.462-0.371-0.731-0.508c-0.06-1.086-0.081-2.152,0.046-3.237
		c0.032-0.27-0.437-0.327-0.499-0.064c-0.238,1.022-0.271,2.073-0.035,3.097c-0.477-0.152-0.99-0.192-1.479-0.077
		c-0.587,0.139-1.07,0.534-1.382,1.028c0.034-0.318-0.001-0.647-0.018-0.968c-0.027-0.587-0.09-1.156-0.217-1.732
		c-0.061-0.273-0.488-0.198-0.498,0.064c-0.023,0.603,0.023,1.19,0.101,1.788c0.062,0.464,0.065,0.961,0.356,1.351
		c0.006,0.007,0.019,0.007,0.026,0.012c-0.018,0.051-0.038,0.1-0.052,0.151c-0.465-0.654-1.152-1.11-1.986-0.986
		c-0.138-1.03-0.562-2.104-1.436-2.708c-0.207-0.143-0.438,0.128-0.33,0.313c0.273,0.47,0.646,0.873,0.896,1.359
		c0.189,0.369,0.332,0.754,0.436,1.148c-0.011,0.005-0.021,0.006-0.035,0.011c-1.865,0.747-1.646,3.369-0.444,4.566
		c-0.981,1.561-1.514,3.466-2.227,5.122c-0.972,2.253-1.875,4.634-1.742,7.109c0.145,2.69,1.564,5.212,3.686,6.968
		c-0.21-0.021-0.421-0.036-0.637-0.042c-1.813-0.051-3.526,0.759-5.269,0.064c-0.246-0.099-0.478,0.225-0.342,0.421
		c0.133,0.194,0.288,0.34,0.455,0.458c0.075,1.378,2.682,2.241,3.809,2.493c2.078,0.466,4.348,0.233,6.211-0.762
		c-0.577,2.547-0.932,5.198-1.083,7.895c-0.531-0.563-1.296-0.936-2.072-1.068c-0.749-0.126-2.12-0.105-2.553,0.625
		c-0.483,0.816,0.672,1.419,1.302,1.678c1.035,0.42,2.191,0.488,3.269,0.205c-0.044,1.492-0.021,2.996,0.06,4.498
		c-0.777-0.67-1.856-1.181-2.848-1.274c-0.836-0.081-1.824,0.229-1.865,1.155c-0.044,0.979,1.075,1.711,1.965,1.935
		c0.973,0.246,1.938,0.114,2.857-0.193c0.143,1.742,0.375,3.479,0.676,5.192c-0.6-0.459-1.313-0.83-1.945-1.02
		c-0.791-0.236-1.998-0.281-2.366,0.596c-0.812,1.927,3.043,2.647,4.59,1.908c0.647,3.196,1.56,6.307,2.732,9.215
		c0.196,0.49,1.006,0.304,0.845-0.219c-0.932-3.031-1.771-6.026-2.407-9.069c0.727,0.442,1.675,0.501,2.501,0.235
		c1.035-0.332,2.135-1.414,1.721-2.527c-0.43-1.15-1.951-1.313-2.971-0.836c-0.433,0.203-1.208,0.729-1.604,1.298
		c-0.298-1.675-0.534-3.368-0.673-5.099c0.883,0.438,1.996,0.578,2.931,0.323c0.776-0.211,2.048-1.003,1.8-1.933
		c-0.231-0.872-1.714-0.855-2.434-0.777c-0.77,0.084-1.755,0.387-2.39,0.936c-0.075-1.543-0.08-3.076-0.036-4.604
		c1.127,0.255,2.286,0.201,3.387-0.213c0.719-0.271,1.629-0.917,1.072-1.729c-0.492-0.721-1.742-0.867-2.557-0.771
		c-0.633,0.074-1.298,0.314-1.814,0.707c0.117-2.105,0.311-4.209,0.53-6.328c0.588,0.639,1.503,1.061,2.397,1.285
		c2.839,0.717,5.728-0.471,8.521,0.597c0.451,0.169,0.758-0.375,0.578-0.711c-0.924-1.725-2.418-3.018-4.32-3.56
		c1.039-0.588,1.982-1.336,2.77-2.224c1.311-1.477,2.055-3.189,2.311-5.094c0.488-3.681-2.133-8.506,1.13-11.372
		c0.093-0.081,0.131-0.171,0.141-0.26c0.652-0.6,1.149-1.375,1.195-2.251C48.82,12.767,48.43,11.902,47.537,11.677z M32.32,45.339
		c-0.714,0.109-1.421,0.118-2.128-0.06c-0.379-0.096-2.331-0.699-1.37-1.254c0.445-0.256,1.298-0.108,1.747,0.027
		c0.684,0.208,1.145,0.621,1.603,1.125c0.045,0.049,0.098,0.073,0.151,0.088C32.322,45.29,32.321,45.314,32.32,45.339z
		 M28.781,50.667c-0.803-1.365,1.374-0.712,1.846-0.504c0.644,0.284,1.205,0.694,1.796,1.063c0.003,0.047,0.006,0.094,0.008,0.143
		C31.245,51.546,29.373,51.676,28.781,50.667z M32.025,58.109c-0.444-0.02-0.879-0.076-1.302-0.207
		c-0.147-0.053-0.295-0.107-0.442-0.161c-0.553-0.19-0.551-0.533,0.007-1.025c0.571-0.14,1.442,0.392,1.875,0.663
		c0.318,0.201,0.604,0.447,0.899,0.68C32.718,58.077,32.37,58.123,32.025,58.109z M36.721,56.014
		c0.311-0.063,0.681-0.029,0.946,0.156c0.533,0.374,0.293,0.971-0.069,1.355c-0.709,0.752-1.845,0.795-2.742,0.383
		c0.063-0.063,0.105-0.146,0.108-0.236C34.984,56.881,35.932,56.172,36.721,56.014z M35.315,50.197
		c0.313-0.088,0.642-0.139,0.969-0.148c0.236-0.005,0.47,0.012,0.701,0.055c0.275-0.028,0.347,0.058,0.212,0.258
		c-0.053,0.682-1.343,0.883-1.889,0.892c-0.513,0.007-1.001-0.116-1.493-0.219C34.301,50.725,34.711,50.368,35.315,50.197z
		 M28.82,36.439c-0.879-0.041-3.642-0.469-4.536-1.406c0.446,0.064,0.936,0.023,1.44-0.05c1.859-0.274,3.463-0.372,5.142-0.061
		c0.544,0.303,1.112,0.566,1.706,0.771c0.021,0.008,0.044,0.012,0.066,0.02C31.432,36.216,30.2,36.503,28.82,36.439z M33.554,44.837
		c0.656-0.703,1.98-1.644,3.051-1.017c0.321,0.022,0.397,0.139,0.226,0.349c-0.022,0.192-0.138,0.308-0.35,0.339
		c-0.282,0.17-0.688,0.256-1.017,0.328c-0.664,0.145-1.333,0.157-1.999,0.068l0,0C33.495,44.884,33.525,44.868,33.554,44.837z
		 M44.046,37.834c-3.176-0.42-7.987,0.898-9.76-1.726c1.979,0.302,4.004,0.007,5.819-0.768
		C41.809,35.826,43.094,36.56,44.046,37.834z M47.785,14.053c-0.112,0.484-0.336,0.909-0.641,1.29
		c-0.123-0.014-0.256,0.015-0.373,0.109c-3.139,2.499-1.692,6.106-1.5,9.44c0.322,5.609-4.039,10.893-10.379,10.193
		c-5.771-0.637-9.104-6.078-7.892-11.216c0.757-3.201,3.791-6.757,3.197-10.059c-0.009-0.049-0.089-0.071-0.12-0.032
		c-0.019,0.024-0.034,0.05-0.054,0.073c-0.303-1.004-0.936-2.276,0.281-2.899c1.146-0.589,1.877,0.921,2.267,1.691
		c0.054,0.108,0.188,0.13,0.297,0.095c0.028,0.027,0.052,0.055,0.084,0.08c0.177,0.146,0.399-0.034,0.312-0.228
		c-0.489-1.072-0.063-2.643,1.418-2.612c0.801,0.017,1.475,0.518,1.851,1.158c0.315,0.537,0.278,1.154,0.58,1.68
		c0.07,0.125,0.189,0.168,0.309,0.157c0.006,0.039,0.006,0.075,0.014,0.115c0.051,0.255,0.407,0.156,0.438-0.057
		c0.206-1.5,1.85-2.648,3.41-2.032c1.471,0.581,1.816,2.086,1.654,3.438c-0.039,0.323,0.271,0.481,0.558,0.452
		c0.173,0.098,0.429,0.084,0.521-0.112c0.496-1.055,1.33-1.823,2.551-2.143C47.697,12.339,47.982,13.211,47.785,14.053z"/>
</g>
<g>
	<circle fill="none" cx="36.5" cy="40.306" r="27.757"/>
	<path fill="#3C6596" d="M15.271,56.355c0.44,1.382,0.818,2.268,1.133,2.658c0.035,0.042,0.092,0.096,0.171,0.16
		c0.079,0.064,0.134,0.114,0.164,0.151c0.022,0.027,0.02,0.052-0.007,0.073c-0.096,0.078-0.257,0.055-0.482-0.07
		c-0.188-0.104-0.33-0.216-0.426-0.334c-0.324-0.401-0.708-1.302-1.151-2.702c-1.11-0.168-1.935-0.586-2.474-1.254
		c-0.218-0.271-0.354-0.537-0.406-0.801c-0.064-0.335,0.028-0.603,0.277-0.804c0.304-0.246,0.703-0.265,1.198-0.056
		c0.415,0.177,0.757,0.433,1.027,0.768c0.329,0.407,0.589,0.929,0.779,1.563l4.432,0.328c1.235,0.086,2.104,0.173,2.605,0.259
		c1.197,0.208,1.975,0.534,2.333,0.978c0.307,0.38,0.314,0.721,0.021,1.022c0.186,0.111,0.295,0.188,0.33,0.231
		c0.032,0.039,0.022,0.08-0.029,0.122c-0.043,0.034-0.124,0.021-0.242-0.039l-0.239-0.138c-0.598,0.429-1.529,0.628-2.793,0.6
		c-1.264-0.029-2.038-0.22-2.322-0.572c-0.204-0.252-0.19-0.472,0.041-0.658c0.332-0.268,0.985-0.401,1.961-0.403
		c0.976-0.001,1.959,0.215,2.951,0.646c0.06-0.038,0.1-0.066,0.122-0.083c0.176-0.143,0.199-0.294,0.069-0.455
		c-0.236-0.292-0.933-0.516-2.092-0.669c-0.434-0.058-1.208-0.123-2.321-0.195l-2.811-0.186L15.271,56.355z M14.424,55.629
		c-0.192-0.573-0.465-1.078-0.818-1.516c-0.527-0.653-0.985-0.823-1.373-0.511c-0.327,0.264-0.296,0.636,0.092,1.116
		C12.722,55.211,13.422,55.515,14.424,55.629z M23.854,58.239c-0.774-0.355-1.638-0.541-2.59-0.557
		c-0.952-0.016-1.558,0.082-1.82,0.293c-0.094,0.076-0.106,0.156-0.038,0.242c0.162,0.2,0.724,0.329,1.686,0.385
		C22.055,58.658,22.975,58.537,23.854,58.239z"/>
	<path fill="#3C6596" d="M21.577,62.402c-0.939,0.148-1.539,0.13-1.8-0.055c-0.198-0.141-0.219-0.32-0.063-0.54
		c0.183-0.258,0.503-0.467,0.961-0.626l1.131-0.29l-2.17,0.164c-1.187,0.04-1.937-0.051-2.249-0.272
		c-0.038-0.027-0.042-0.062-0.013-0.103c0.039-0.055,0.11-0.059,0.216-0.012c0.134,0.062,0.307,0.111,0.518,0.151
		c0.246,0.045,0.833,0.044,1.761-0.002c0.425-0.019,1.066-0.067,1.921-0.146c0.154-0.029,0.387-0.053,0.698-0.072
		c0.116,0.005,0.207,0.032,0.274,0.079c0.185,0.131,0.234,0.257,0.148,0.378c-0.088,0.125-0.53,0.275-1.327,0.453
		s-1.269,0.372-1.418,0.582c-0.039,0.055-0.029,0.102,0.028,0.143c0.191,0.136,0.875,0.072,2.052-0.19
		c1.177-0.262,1.81-0.361,1.899-0.298c0.045,0.031,0.072,0.086,0.083,0.162c0.01,0.077-0.001,0.14-0.036,0.188
		c-0.054,0.076-0.529,0.225-1.424,0.444c-0.896,0.22-1.4,0.409-1.513,0.568c-0.052,0.073-0.025,0.15,0.082,0.229
		c0.106,0.08,0.141,0.146,0.104,0.197c-0.043,0.061-0.145,0.033-0.305-0.08c-0.27-0.191-0.332-0.389-0.188-0.593
		C21.053,62.716,21.262,62.563,21.577,62.402z"/>
	<path fill="#3C6596" d="M26.443,64.27c1.343-0.422,2.215-0.549,2.614-0.38c0.255,0.107,0.333,0.281,0.231,0.522
		c-0.089,0.213-0.541,0.475-1.355,0.787s-1.245,0.525-1.293,0.641s-0.009,0.205,0.119,0.27c0.127,0.064,0.18,0.124,0.157,0.178
		c-0.03,0.072-0.176,0.053-0.437-0.057c-0.3-0.127-0.395-0.324-0.282-0.591c0.094-0.224,0.357-0.446,0.79-0.668
		c0.222-0.114,0.603-0.274,1.143-0.48c0.403-0.152,0.617-0.258,0.642-0.315c0.02-0.047-0.002-0.084-0.067-0.111
		c-0.205-0.086-0.767,0-1.686,0.259c-0.764,0.213-1.346,0.408-1.747,0.583c-0.509,0.224-0.802,0.319-0.877,0.287
		c-0.058-0.024-0.098-0.074-0.122-0.149c-0.023-0.076-0.022-0.145,0.004-0.205c0.035-0.083,0.424-0.313,1.168-0.69l1.334-0.678
		l-1.855,0.541l-1.35,0.353c-0.667,0.135-1.139,0.144-1.417,0.026c-0.047-0.02-0.061-0.051-0.043-0.094
		c0.027-0.065,0.096-0.087,0.206-0.066c0.147,0.033,0.33,0.046,0.549,0.041c0.311-0.005,1.01-0.164,2.096-0.479
		c0.976-0.284,1.69-0.515,2.143-0.693c0.077-0.031,0.188-0.061,0.335-0.088c0.066,0.003,0.132,0.019,0.197,0.045
		c0.061,0.026,0.114,0.073,0.16,0.141c0.045,0.068,0.056,0.131,0.032,0.188C27.805,63.451,27.342,63.745,26.443,64.27z"/>
	<path fill="#3C6596" d="M30.108,66.097c-1.177,0.614-1.96,0.884-2.348,0.811c-0.046-0.009-0.064-0.039-0.055-0.09
		c0.014-0.071,0.068-0.105,0.163-0.104c0.372,0.011,0.923-0.173,1.655-0.552l0.853-0.44l1.372-0.725
		c0.616-0.273,1.118-0.373,1.506-0.3c0.288,0.055,0.422,0.229,0.402,0.524c0.176-0.114,0.293-0.166,0.351-0.155
		c0.127,0.024,0.18,0.088,0.161,0.192c-0.025,0.135-0.398,0.49-1.117,1.067c-0.72,0.576-1.09,0.922-1.111,1.035
		c-0.015,0.079,0.041,0.133,0.167,0.16c0.125,0.027,0.183,0.073,0.171,0.137c-0.015,0.078-0.153,0.094-0.414,0.044
		c-0.257-0.049-0.364-0.187-0.321-0.413c0.034-0.181,0.187-0.419,0.457-0.714l-0.829,0.471c-0.398,0.195-0.702,0.273-0.909,0.234
		c-0.33-0.063-0.463-0.262-0.4-0.596C29.895,66.499,29.978,66.304,30.108,66.097z M33.289,64.948
		c-0.227-0.043-0.759,0.207-1.597,0.749c-0.838,0.543-1.279,0.928-1.322,1.155c-0.02,0.104,0.021,0.165,0.12,0.184
		c0.219,0.042,0.751-0.201,1.596-0.729s1.29-0.907,1.333-1.138C33.444,65.043,33.4,64.969,33.289,64.948z"/>
	<path fill="#3C6596" d="M45.497,62.466c1.86-3.373,3.155-5.162,3.885-5.368c0.305-0.086,0.498,0.016,0.579,0.305
		c0.076,0.268,0.051,0.595-0.075,0.983c-0.096,0.278-0.78,1.619-2.051,4.022c-1.032,2.091-1.507,3.281-1.426,3.571
		c0.029,0.102,0.118,0.137,0.269,0.107c0.149-0.03,0.229-0.029,0.238,0.004c0.028,0.103-0.071,0.186-0.301,0.251
		c-0.323,0.091-0.528-0.016-0.613-0.319c-0.16-0.567,0.24-1.831,1.201-3.789c0.338-0.688,0.998-1.912,1.982-3.675
		c0.335-0.598,0.476-0.99,0.423-1.178c-0.021-0.071-0.066-0.097-0.138-0.077c-0.26,0.073-0.85,0.779-1.771,2.118
		c-0.736,1.072-1.274,1.911-1.615,2.519c-0.326,0.583-0.742,1.394-1.248,2.433c-0.91,1.876-1.386,2.819-1.428,2.831
		c-0.057,0.016-0.134-0.001-0.231-0.051c-0.099-0.049-0.155-0.102-0.171-0.158c-0.041-0.146,0.471-1.389,1.536-3.725
		c1.065-2.337,1.556-3.655,1.471-3.956c-0.021-0.075-0.069-0.102-0.145-0.08c-0.191,0.054-0.603,0.494-1.234,1.321
		c-0.58,0.764-1.192,1.691-1.839,2.781l-1.646,2.905l-0.559,1.088c-0.312,0.607-0.484,0.916-0.519,0.925
		c-0.06,0.018-0.143,0.008-0.249-0.026c-0.119-0.035-0.187-0.081-0.203-0.138c-0.035-0.124,0.271-0.847,0.916-2.169l1.803-3.709
		c0.63-1.378,0.907-2.198,0.833-2.461c-0.027-0.098-0.09-0.133-0.188-0.105c-0.271,0.076-0.736,0.583-1.397,1.52
		c-0.496,0.703-1.151,1.881-1.968,3.534c-0.052,0.104-0.101,0.162-0.146,0.175c-0.083,0.023-0.133,0.003-0.151-0.061
		c-0.027-0.098,0.182-0.617,0.626-1.558c0.319-0.665,0.755-1.396,1.306-2.192c0.712-1.027,1.275-1.6,1.688-1.717
		c0.278-0.078,0.46,0.034,0.546,0.339c0.145,0.511-0.227,1.783-1.113,3.818c1.691-2.85,2.832-4.358,3.423-4.524
		c0.278-0.079,0.457,0.024,0.538,0.311C46.463,59.741,46.184,60.8,45.497,62.466z"/>
	<path fill="#3C6596" d="M50.604,62.397l-0.473,1.442c-0.264,0.704-0.521,1.142-0.772,1.314c-0.039,0.027-0.071,0.021-0.1-0.02
		c-0.043-0.063-0.037-0.123,0.019-0.181c0.172-0.17,0.301-0.342,0.386-0.514c0.15-0.298,0.35-0.85,0.597-1.654l0.554-1.922
		c0.097-0.384,0.172-0.595,0.227-0.632c0.081-0.056,0.201-0.072,0.361-0.05c0.088-0.27,0.205-0.454,0.349-0.554
		c0.219-0.15,0.408-0.107,0.57,0.127c0.241,0.351,0.291,1.021,0.147,2.012c-0.148,1.003-0.397,1.626-0.748,1.867
		c-0.328,0.227-0.611,0.167-0.849-0.177C50.748,63.277,50.659,62.924,50.604,62.397z M51.358,61.003
		c-0.261,1.026-0.267,1.72-0.018,2.081c0.106,0.155,0.234,0.182,0.382,0.079c0.241-0.166,0.416-0.718,0.525-1.654
		c-0.314,0.121-0.57,0.041-0.765-0.243C51.432,61.192,51.391,61.104,51.358,61.003z M52.247,61.28
		c0.041-0.195,0.055-0.431,0.04-0.706c-0.021-0.314-0.078-0.537-0.17-0.67c-0.084-0.122-0.18-0.147-0.286-0.074
		c-0.157,0.108-0.247,0.317-0.27,0.625c-0.022,0.309,0.022,0.544,0.134,0.705C51.819,61.342,52.004,61.381,52.247,61.28z"/>
	<path fill="#3C6596" d="M54.194,58.202c-0.104-0.079-0.165-0.128-0.185-0.148c-0.073-0.075-0.098-0.281-0.073-0.618
		s0.07-0.537,0.138-0.603c0.064-0.063,0.125-0.064,0.182-0.006c0.05,0.051,0.096,0.169,0.141,0.354
		c0.316-0.308,0.597-0.335,0.841-0.084c0.193,0.199,0.297,0.714,0.312,1.545c0.014,0.831,0.047,1.272,0.099,1.326
		c0.049,0.05,0.103,0.053,0.16,0.007l0.133-0.137c0.038-0.037,0.08-0.033,0.125,0.013c0.056,0.058,0.002,0.166-0.16,0.323
		c-0.207,0.201-0.401,0.21-0.58,0.024c-0.177-0.182-0.294-0.509-0.352-0.981c-0.037-0.296-0.052-0.693-0.042-1.192
		c0.008-0.405,0.003-0.617-0.017-0.638c-0.041-0.042-0.085-0.04-0.132,0.006c-0.042,0.041-0.105,0.134-0.191,0.279
		c-0.085,0.146-0.13,0.239-0.133,0.28c-0.104,2.501-0.382,3.973-0.836,4.413c-0.034,0.032-0.069,0.03-0.105-0.008
		c-0.048-0.049-0.04-0.117,0.021-0.205c0.076-0.106,0.155-0.269,0.239-0.485c0.129-0.32,0.236-0.889,0.321-1.704
		C54.178,59.242,54.209,58.654,54.194,58.202z"/>
	<path fill="#3C6596" d="M56.483,52.623c-0.114,0.148-0.247,0.164-0.399,0.047c-0.126-0.098-0.183-0.262-0.168-0.492
		c0.013-0.207,0.071-0.379,0.176-0.516c0.124-0.16,0.274-0.173,0.451-0.037c0.127,0.098,0.173,0.262,0.139,0.492
		C56.654,52.318,56.589,52.486,56.483,52.623z M58.112,57.15c0.083,0.064,0.195,0.005,0.336-0.177
		c0.031-0.041,0.072-0.041,0.123-0.002c0.061,0.046,0.012,0.173-0.147,0.378c-0.18,0.233-0.381,0.265-0.604,0.093
		c-0.26-0.2-0.536-0.964-0.83-2.291l0.058,2.065c0.035,1.221-0.077,1.999-0.338,2.337c-0.028,0.037-0.063,0.039-0.104,0.008
		c-0.058-0.045-0.068-0.103-0.033-0.174c0.113-0.224,0.188-0.45,0.222-0.681c0.044-0.286,0.06-0.955,0.048-2.005l-0.095-2.338
		c0.025-0.078,0.079-0.17,0.16-0.275s0.183-0.111,0.303-0.019c0.13,0.1,0.287,0.619,0.473,1.556
		C57.867,56.563,58.011,57.071,58.112,57.15z"/>
</g>
</svg>
