<?xml version="1.0" encoding="utf-8"?>
<!-- Generator: Adobe Illustrator 28.0.0, SVG Export Plug-In . SVG Version: 6.00 Build 0)  -->
<svg version="1.1" id="レイヤー_1" xmlns="http://www.w3.org/2000/svg" xmlns:xlink="http://www.w3.org/1999/xlink" x="0px"
	 y="0px" viewBox="0 0 728 90" style="enable-background:new 0 0 728 90;" xml:space="preserve">
<style type="text/css">
	.st0{fill:#FF5767;}
	.st1{opacity:0.5;}
	.st2{fill:#FFFFFF;}
	.st3{fill:none;}
	.st4{fill:#FFF200;}
	.st5{fill:none;stroke:#FFFFFF;stroke-miterlimit:10;}
	.st6{opacity:0.3;fill:#FFFFFF;enable-background:new    ;}
	.st7{opacity:0.3;fill:none;stroke:#FFFFFF;stroke-width:1;stroke-miterlimit:9.9994;enable-background:new    ;}
	.st8{opacity:0.3;fill:none;stroke:#FFFFFF;stroke-miterlimit:10;enable-background:new    ;}
	.st9{opacity:0.3;fill:#FFFFFF;stroke:#FFFFFF;stroke-miterlimit:10;enable-background:new    ;}
	.st10{opacity:0.3;fill:none;stroke:#FFFFFF;stroke-miterlimit:10.0004;enable-background:new    ;}
	.st11{opacity:0.2;fill:#FFFFFF;enable-background:new    ;}
	.st12{opacity:0.1;fill:#FFFFFF;enable-background:new    ;}
	.st13{fill:#75746A;}
</style>
<g id="_x33_00_xD7_300">
</g>
<g id="_x33_00_xD7_600">
	<rect class="st0" width="728" height="90"/>
	<g id="spring">
		<g class="st1">
			<g>
				<path class="st2" d="M124.4,18.4l-3,3c-1.2-1.2-2.3-1.8-3.3-1.8c-0.5,0-1,0.1-1.3,0.3c-0.3,0.2-0.5,0.5-0.5,0.9
					c0,0.3,0.1,0.5,0.3,0.7c0.2,0.2,0.7,0.5,1.5,0.9l1.8,0.9c1.9,0.9,3.2,1.9,3.9,2.8c0.7,1,1.1,2.1,1.1,3.4c0,1.7-0.6,3.2-1.9,4.3
					c-1.3,1.2-3,1.7-5.1,1.7c-2.8,0-5.1-1.1-6.8-3.3l3-3.3c0.6,0.7,1.2,1.2,2,1.6s1.4,0.6,2,0.6s1.2-0.2,1.6-0.5s0.6-0.7,0.6-1.1
					c0-0.7-0.7-1.5-2.1-2.2l-1.6-0.8c-3.1-1.6-4.7-3.6-4.7-5.9c0-1.5,0.6-2.8,1.8-3.9c1.2-1.1,2.7-1.6,4.5-1.6
					c1.3,0,2.4,0.3,3.6,0.8C122.7,16.6,123.7,17.4,124.4,18.4z"/>
				<path class="st2" d="M138,15.7v2.1c0.9-0.9,1.8-1.5,2.9-2c1-0.4,2.1-0.7,3.3-0.7c2.5,0,4.7,1,6.5,2.9c1.8,1.9,2.7,4.4,2.7,7.4
					c0,2.9-0.9,5.3-2.7,7.3c-1.8,1.9-4,2.9-6.5,2.9c-1.1,0-2.2-0.2-3.1-0.6c-1-0.4-1.9-1-2.9-2v9.2h-4.8V15.7H138z M143.1,19.7
					c-1.5,0-2.8,0.5-3.8,1.6c-1,1-1.5,2.4-1.5,4.1s0.5,3.1,1.5,4.2s2.3,1.6,3.8,1.6s2.7-0.5,3.8-1.6c1-1.1,1.5-2.5,1.5-4.1
					c0-1.7-0.5-3-1.5-4.1C145.9,20.2,144.7,19.7,143.1,19.7z"/>
				<path class="st2" d="M160.7,15.7h4.2v2.4c0.5-1,1.1-1.7,1.8-2.2c0.7-0.5,1.6-0.7,2.5-0.7c0.6,0,1.3,0.2,2,0.5l-1.5,4.2
					c-0.6-0.3-1-0.4-1.4-0.4c-0.7,0-1.4,0.5-1.9,1.4s-0.8,2.7-0.8,5.5v0.9v7.8h-4.8V15.7H160.7z"/>
				<path class="st2" d="M180,7.7c0.9,0,1.6,0.3,2.2,0.9c0.6,0.6,0.9,1.4,0.9,2.2c0,0.9-0.3,1.6-0.9,2.2c-0.6,0.6-1.3,0.9-2.2,0.9
					s-1.6-0.3-2.2-0.9c-0.6-0.6-0.9-1.4-0.9-2.3c0-0.9,0.3-1.6,0.9-2.2C178.4,8,179.2,7.7,180,7.7z M177.6,15.7h4.9v19.4h-4.9V15.7z
					"/>
				<path class="st2" d="M191.5,15.7h4.9v2c1.1-0.9,2.1-1.6,3-1.9c0.9-0.4,1.8-0.5,2.8-0.5c1.9,0,3.6,0.7,4.9,2
					c1.1,1.1,1.7,2.8,1.7,5.1v12.8H204v-8.5c0-2.3-0.1-3.9-0.3-4.6c-0.2-0.8-0.6-1.3-1.1-1.7c-0.5-0.4-1.2-0.6-1.9-0.6
					c-1,0-1.8,0.3-2.5,1s-1.2,1.6-1.5,2.7c-0.1,0.6-0.2,1.9-0.2,3.9v7.8h-4.9L191.5,15.7L191.5,15.7z"/>
				<path class="st2" d="M232.3,15.7h4.9v16.6c0,3.3-0.7,5.7-2,7.2c-1.8,2.1-4.4,3.1-8,3.1c-1.9,0-3.5-0.2-4.8-0.7s-2.4-1.2-3.3-2.1
					c-0.9-0.9-1.6-2-2-3.4h5.4c0.5,0.5,1.1,1,1.8,1.2c0.7,0.3,1.6,0.4,2.7,0.4c1.3,0,2.4-0.2,3.2-0.6c0.8-0.4,1.4-0.9,1.7-1.6
					c0.3-0.6,0.5-1.7,0.5-3.3c-0.9,0.9-1.8,1.5-2.7,1.8c-0.9,0.4-2,0.6-3.2,0.6c-2.6,0-4.8-0.9-6.6-2.8c-1.8-1.9-2.7-4.3-2.7-7.1
					c0-3.1,1-5.6,2.9-7.4c1.7-1.7,3.8-2.5,6.2-2.5c1.1,0,2.2,0.2,3.2,0.6c1,0.4,2,1.1,3,2v-2C232.5,15.7,232.3,15.7,232.3,15.7z
					 M227.2,19.8c-1.5,0-2.8,0.5-3.8,1.5s-1.5,2.3-1.5,3.9s0.5,2.9,1.5,4c1,1,2.3,1.6,3.9,1.6c1.5,0,2.8-0.5,3.7-1.5
					c1-1,1.5-2.3,1.5-4c0-1.6-0.5-2.9-1.5-3.9C230.1,20.3,228.8,19.8,227.2,19.8z"/>
				<path class="st2" d="M273.3,18.4l-3,3c-1.2-1.2-2.3-1.8-3.3-1.8c-0.5,0-1,0.1-1.3,0.3c-0.3,0.2-0.5,0.5-0.5,0.9
					c0,0.3,0.1,0.5,0.3,0.7c0.2,0.2,0.7,0.5,1.5,0.9l1.8,0.9c1.9,0.9,3.2,1.9,3.9,2.8c0.7,1,1.1,2.1,1.1,3.4c0,1.7-0.6,3.2-1.9,4.3
					c-1.3,1.2-3,1.7-5.1,1.7c-2.8,0-5.1-1.1-6.8-3.3l3-3.3c0.6,0.7,1.2,1.2,2,1.6s1.4,0.6,2,0.6s1.2-0.2,1.6-0.5s0.6-0.7,0.6-1.1
					c0-0.7-0.7-1.5-2.1-2.2l-1.6-0.8c-3.1-1.6-4.7-3.6-4.7-5.9c0-1.5,0.6-2.8,1.8-3.9c1.2-1.1,2.7-1.6,4.5-1.6
					c1.3,0,2.4,0.3,3.6,0.8C271.6,16.6,272.5,17.4,273.3,18.4z"/>
				<path class="st2" d="M296.4,15.7h4.9v19.4h-4.9V33c-1,0.9-1.9,1.6-2.9,2s-2,0.6-3.1,0.6c-2.5,0-4.7-1-6.5-2.9
					c-1.8-1.9-2.7-4.4-2.7-7.3c0-3,0.9-5.5,2.7-7.4s3.9-2.9,6.5-2.9c1.2,0,2.3,0.2,3.3,0.7c1,0.4,2,1.1,2.8,2L296.4,15.7L296.4,15.7
					z M291.3,19.7c-1.5,0-2.8,0.5-3.8,1.6s-1.5,2.4-1.5,4.1s0.5,3.1,1.5,4.1c1,1.1,2.3,1.6,3.7,1.6c1.5,0,2.8-0.5,3.8-1.6
					s1.5-2.5,1.5-4.2c0-1.7-0.5-3.1-1.5-4.1C294.1,20.2,292.8,19.7,291.3,19.7z"/>
				<path class="st2" d="M310.2,8.2h4.9v26.9h-4.9V8.2z"/>
				<path class="st2" d="M343.5,26.8h-15.6c0.2,1.4,0.8,2.5,1.8,3.3s2.2,1.2,3.8,1.2c1.8,0,3.4-0.6,4.7-1.9l4.1,1.9
					c-1,1.5-2.2,2.5-3.7,3.2c-1.4,0.7-3.1,1-5.1,1c-3,0-5.5-1-7.4-2.9c-1.9-1.9-2.9-4.3-2.9-7.2c0-3,1-5.4,2.9-7.4s4.3-2.9,7.2-2.9
					c3.1,0,5.5,1,7.5,2.9c1.9,2,2.9,4.5,2.9,7.8L343.5,26.8z M338.6,23c-0.3-1.1-1-2-1.9-2.6c-0.9-0.7-2-1-3.3-1
					c-1.4,0-2.5,0.4-3.6,1.1c-0.6,0.5-1.2,1.3-1.8,2.5H338.6z"/>
			</g>
		</g>
		<g>
			<g>
				<path class="st2" d="M122.9,16.9l-3,3c-1.2-1.2-2.3-1.8-3.3-1.8c-0.5,0-1,0.1-1.3,0.3c-0.3,0.2-0.5,0.5-0.5,0.9
					c0,0.3,0.1,0.5,0.3,0.7c0.2,0.2,0.7,0.5,1.5,0.9l1.8,0.9c1.9,0.9,3.2,1.9,3.9,2.8c0.7,1,1.1,2.1,1.1,3.4c0,1.7-0.6,3.2-1.9,4.3
					c-1.3,1.2-3,1.7-5.1,1.7c-2.8,0-5.1-1.1-6.8-3.3l3-3.3c0.6,0.7,1.2,1.2,2,1.6s1.4,0.6,2,0.6s1.2-0.2,1.6-0.5s0.6-0.7,0.6-1.1
					c0-0.7-0.7-1.5-2.1-2.2l-1.6-0.8c-3.1-1.6-4.7-3.6-4.7-5.9c0-1.5,0.6-2.8,1.8-3.9c1.2-1.1,2.7-1.6,4.5-1.6
					c1.3,0,2.4,0.3,3.6,0.8C121.2,15.1,122.1,15.9,122.9,16.9z"/>
				<path class="st2" d="M136.5,14.2v2.1c0.9-0.9,1.8-1.5,2.9-2c1-0.4,2.1-0.7,3.3-0.7c2.5,0,4.7,1,6.5,2.9s2.7,4.4,2.7,7.4
					c0,2.9-0.9,5.3-2.7,7.3c-1.8,1.9-4,2.9-6.5,2.9c-1.1,0-2.2-0.2-3.1-0.6c-1-0.4-1.9-1-2.9-2v9.2h-4.8V14.2H136.5z M141.6,18.2
					c-1.5,0-2.8,0.5-3.8,1.6c-1,1-1.5,2.4-1.5,4.1s0.5,3.1,1.5,4.2s2.3,1.6,3.8,1.6s2.7-0.5,3.8-1.6c1-1.1,1.5-2.5,1.5-4.1
					c0-1.7-0.5-3-1.5-4.1C144.4,18.7,143.1,18.2,141.6,18.2z"/>
				<path class="st2" d="M159.2,14.2h4.2v2.4c0.5-1,1.1-1.7,1.8-2.2s1.6-0.7,2.5-0.7c0.6,0,1.3,0.2,2,0.5l-1.5,4.2
					c-0.6-0.3-1-0.4-1.4-0.4c-0.7,0-1.4,0.5-1.9,1.4s-0.8,2.7-0.8,5.5v0.9v7.8h-4.8V14.2H159.2z"/>
				<path class="st2" d="M178.5,6.2c0.9,0,1.6,0.3,2.2,0.9c0.6,0.6,0.9,1.4,0.9,2.2c0,0.9-0.3,1.6-0.9,2.2c-0.6,0.6-1.3,0.9-2.2,0.9
					s-1.6-0.3-2.2-0.9c-0.6-0.6-0.9-1.4-0.9-2.3c0-0.9,0.3-1.6,0.9-2.2C176.9,6.5,177.7,6.2,178.5,6.2z M176.1,14.2h4.9v19.4h-4.9
					V14.2z"/>
				<path class="st2" d="M189.9,14.2h4.9v2c1.1-0.9,2.1-1.6,3-1.9c0.9-0.4,1.8-0.5,2.8-0.5c1.9,0,3.6,0.7,4.9,2
					c1.1,1.1,1.7,2.8,1.7,5.1v12.8h-4.8v-8.5c0-2.3-0.1-3.9-0.3-4.6c-0.2-0.8-0.6-1.3-1.1-1.7s-1.2-0.6-1.9-0.6c-1,0-1.8,0.3-2.5,1
					s-1.2,1.6-1.5,2.7c-0.1,0.6-0.2,1.9-0.2,3.9v7.8H190L189.9,14.2L189.9,14.2z"/>
				<path class="st2" d="M230.8,14.2h4.9v16.6c0,3.3-0.7,5.7-2,7.2c-1.8,2.1-4.4,3.1-8,3.1c-1.9,0-3.5-0.2-4.8-0.7s-2.4-1.2-3.3-2.1
					c-0.9-0.9-1.6-2-2-3.4h5.4c0.5,0.5,1.1,1,1.8,1.2c0.7,0.3,1.6,0.4,2.7,0.4c1.3,0,2.4-0.2,3.2-0.6c0.8-0.4,1.4-0.9,1.7-1.6
					c0.3-0.6,0.5-1.7,0.5-3.3c-0.9,0.9-1.8,1.5-2.7,1.8c-0.9,0.4-2,0.6-3.2,0.6c-2.6,0-4.8-0.9-6.6-2.8c-1.8-1.9-2.7-4.3-2.7-7.1
					c0-3.1,1-5.6,2.9-7.4c1.7-1.7,3.8-2.5,6.2-2.5c1.1,0,2.2,0.2,3.2,0.6c1,0.4,2,1.1,3,2v-2C231,14.2,230.8,14.2,230.8,14.2z
					 M225.7,18.2c-1.5,0-2.8,0.5-3.8,1.5s-1.5,2.3-1.5,3.9s0.5,2.9,1.5,4c1,1,2.3,1.6,3.9,1.6c1.5,0,2.8-0.5,3.7-1.5
					c1-1,1.5-2.3,1.5-4c0-1.6-0.5-2.9-1.5-3.9C228.5,18.7,227.3,18.2,225.7,18.2z"/>
				<path class="st2" d="M271.8,16.9l-3,3c-1.2-1.2-2.3-1.8-3.3-1.8c-0.5,0-1,0.1-1.3,0.3c-0.3,0.2-0.5,0.5-0.5,0.9
					c0,0.3,0.1,0.5,0.3,0.7c0.2,0.2,0.7,0.5,1.5,0.9l1.8,0.9c1.9,0.9,3.2,1.9,3.9,2.8c0.7,1,1.1,2.1,1.1,3.4c0,1.7-0.6,3.2-1.9,4.3
					c-1.3,1.2-3,1.7-5.1,1.7c-2.8,0-5.1-1.1-6.8-3.3l3-3.3c0.6,0.7,1.2,1.2,2,1.6s1.4,0.6,2,0.6s1.2-0.2,1.6-0.5s0.6-0.7,0.6-1.1
					c0-0.7-0.7-1.5-2.1-2.2L264,25c-3.1-1.6-4.7-3.6-4.7-5.9c0-1.5,0.6-2.8,1.8-3.9c1.2-1.1,2.7-1.6,4.5-1.6c1.3,0,2.4,0.3,3.6,0.8
					C270.1,15.1,271,15.9,271.8,16.9z"/>
				<path class="st2" d="M294.9,14.2h4.9v19.4h-4.9v-2.1c-1,0.9-1.9,1.6-2.9,2s-2,0.6-3.1,0.6c-2.5,0-4.7-1-6.5-2.9
					s-2.7-4.4-2.7-7.3c0-3,0.9-5.5,2.7-7.4c1.8-1.9,3.9-2.9,6.5-2.9c1.2,0,2.3,0.2,3.3,0.7c1,0.4,2,1.1,2.8,2L294.9,14.2L294.9,14.2
					z M289.7,18.2c-1.5,0-2.8,0.5-3.8,1.6s-1.5,2.4-1.5,4.1s0.5,3.1,1.5,4.1c1,1.1,2.3,1.6,3.7,1.6c1.5,0,2.8-0.5,3.8-1.6
					s1.5-2.5,1.5-4.2c0-1.7-0.5-3.1-1.5-4.1C292.6,18.7,291.3,18.2,289.7,18.2z"/>
				<path class="st2" d="M308.7,6.7h4.9v26.9h-4.9V6.7z"/>
				<path class="st2" d="M342,25.3h-15.6c0.2,1.4,0.8,2.5,1.8,3.3s2.2,1.2,3.8,1.2c1.8,0,3.4-0.6,4.7-1.9l4.1,1.9
					c-1,1.5-2.2,2.5-3.7,3.2c-1.4,0.7-3.1,1-5.1,1c-3,0-5.5-1-7.4-2.9s-2.9-4.3-2.9-7.2c0-3,1-5.4,2.9-7.4s4.3-2.9,7.2-2.9
					c3.1,0,5.5,1,7.5,2.9c1.9,2,2.9,4.5,2.9,7.8L342,25.3z M337.1,21.5c-0.3-1.1-1-2-1.9-2.6c-0.9-0.7-2-1-3.3-1
					c-1.4,0-2.5,0.4-3.6,1.1c-0.6,0.5-1.2,1.3-1.8,2.5H337.1z"/>
			</g>
		</g>
	</g>
	<g id="max">
		<rect x="383" y="7" class="st2" width="82" height="17.6"/>
		<g>
			<g>
				<path class="st0" d="M405.2,10.1h2.1l2.6,7.8l2.6-7.8h2.1l1.9,11.2h-2.1l-1.2-7.1l-2.4,7.1h-1.9l-2.4-7.1l-1.2,7.1h-2.1
					L405.2,10.1z"/>
				<path class="st0" d="M425.4,10.1h2.2l4.3,11.2h-2.2l-0.9-2.3h-4.6l-0.9,2.3h-2.2L425.4,10.1z M426.5,13l-1.5,3.8h3L426.5,13z"/>
				<path class="st0" d="M436.7,10.1h2.4l2.4,3.6l2.4-3.6h2.4l-3.5,5.4l3.8,5.8H444l-2.6-3.9l-2.6,3.9h-2.4l3.8-5.8L436.7,10.1z"/>
			</g>
		</g>
	</g>
	<g id="_x38_0">
		<g>
			<g>
				<path class="st3" d="M577.3,9.2c-15.1,0-28.4,33.9-28.4,51.4c0,5.9,1.5,10,3.7,12.3l27.5-20.5c4.4-10.5,7-22.4,7-30.8
					C587.1,13.4,583.2,9.2,577.3,9.2z"/>
				<path class="st3" d="M558,75.2c9.1,0,16.9-10.4,22.1-22.9l-27.5,20.5C554.1,74.4,556,75.2,558,75.2z"/>
				<path class="st3" d="M492.1,65.1c0,7.4,5.7,11.6,9.9,11.6c10.3,0,14.5-9.5,14.5-14.5c0-8.2-5.6-13.5-8.7-17.2
					C502.1,48.3,492.1,52.3,492.1,65.1z"/>
				<path class="st3" d="M529.7,19.3c0-3.8-2.9-11.1-11.2-11.1c-6.8,0-13.9,4.6-13.9,13.2c0,6,3.7,11.4,9.4,17.5
					C522.7,34.4,529.7,29.1,529.7,19.3z"/>
				<path class="st4" d="M516.8,41.7c6-3,20.3-11.3,20.3-23.7c0-6.8-6-13.5-16.3-13.5c-15.4,0-24.5,11.8-24.5,20.8
					c0,6.8,6.2,13.2,9.1,17.1c-7.2,3.9-21,9.6-21,22.1c0,4.3,2.7,15.3,17.3,15.3c13.8,0,23.5-10.4,23.5-21.7
					C525.2,51.5,520.4,46.2,516.8,41.7z M504.6,21.5c0-8.7,7.1-13.2,13.9-13.2c8.3,0,11.2,7.3,11.2,11.1c0,9.8-7,15.1-15.7,19.6
					C508.2,32.9,504.6,27.5,504.6,21.5z M502.1,76.7c-4.2,0-9.9-4.2-9.9-11.6c0-12.8,9.9-16.8,15.7-20.1c3.1,3.8,8.7,9,8.7,17.2
					C516.6,67.2,512.3,76.7,502.1,76.7z"/>
				<path class="st4" d="M548.9,60.5c0-17.5,13.4-51.4,28.4-51.4c5.9,0,9.8,4.2,9.8,12.3c0,8.5-2.6,20.4-7,30.8l12.2-9.1
					c1.7-5.9,2.6-11.9,2.6-17.7c0-12.3-5.9-21-17-21c-20.1,0-37.3,29.9-37.3,52.3c0,8.8,2.6,15.7,7.3,19.5l4.7-3.5
					C550.4,70.5,548.9,66.4,548.9,60.5z"/>
				<line class="st3" x1="552.6" y1="72.8" x2="547.9" y2="76.3"/>
				<line class="st3" x1="592.3" y1="43.2" x2="580.1" y2="52.3"/>
			</g>
			<line class="st5" x1="539" y1="86.8" x2="609.2" y2="34.8"/>
		</g>
		<g>
			<path class="st2" d="M619,43.4c-0.7,3.4-2.7,4.8-4.9,4.4c-2-0.4-3.3-2.6-2.6-5.7c0.7-3.3,2.8-4.7,4.9-4.3
				C618.9,38.4,619.6,40.6,619,43.4z M612.3,55.9L627,40.2l1.3,0.3l-14.7,15.7L612.3,55.9z M613,42.3c-0.6,2.6,0.1,4,1.3,4.3
				c1.4,0.3,2.4-0.8,3-3.4c0.5-2.4,0.2-3.8-1.3-4.2C614.8,38.7,613.6,39.9,613,42.3z M629.5,54c-0.8,3.5-2.7,4.8-4.9,4.4
				c-2-0.4-3.3-2.5-2.6-5.6c0.7-3.3,2.8-4.7,4.9-4.3C629.5,49,630,51.5,629.5,54z M623.6,52.9c-0.6,2.6,0.1,4,1.4,4.2
				c1.4,0.3,2.4-0.8,3-3.4c0.5-2.4,0.2-3.8-1.3-4.2C625.3,49.3,624.1,50.5,623.6,52.9z"/>
		</g>
		<g>
			<g>
				<path class="st2" d="M616.6,75.1c0,8.4-5.1,12.8-11.3,12.8c-6.4,0-10.9-5-10.9-12.3c0-7.7,4.8-12.7,11.3-12.7
					C612.3,62.9,616.6,67.9,616.6,75.1z M597.8,75.5c0,5.2,2.8,9.8,7.7,9.8c5,0,7.8-4.6,7.8-10.1c0-4.8-2.5-9.9-7.7-9.9
					C600.3,65.4,597.8,70.2,597.8,75.5z"/>
				<path class="st2" d="M620.7,63.3h13.1v2.6h-9.9V74h9.2v2.6h-9.2v11h-3.1L620.7,63.3L620.7,63.3z"/>
				<path class="st2" d="M638.2,63.3h13.1v2.6h-9.9V74h9.2v2.6h-9.2v11h-3.1L638.2,63.3L638.2,63.3z"/>
			</g>
		</g>
	</g>
	<g>
		<g id="_x34__x2F_1">
			<path class="st2" d="M299,70.6v-1.8h-3v-0.6l2.9-4.1h0.9v4h0.9v0.7h-0.9v1.8H299z M299,68.1V66c0-0.3,0-0.7,0-1l0,0
				c-0.2,0.4-0.4,0.7-0.5,1l-1.6,2.2l0,0L299,68.1L299,68.1z"/>
			<path class="st2" d="M306,71l2.8-7.2h0.7l-2.8,7.2H306z"/>
			<path class="st2" d="M316.8,64.9L316.8,64.9l-1.1,0.6l-0.2-0.7l1.4-0.8h0.7v6.5h-0.8V64.9z"/>
			<path class="st2" d="M327.2,63.6c-0.7,1-1.3,2.3-1.3,4.1c0,1.8,0.5,3.1,1.3,4.1h-0.7c-0.6-0.8-1.3-2.1-1.3-4.1s0.7-3.2,1.3-4.1
				H327.2z"/>
			<path class="st2" d="M338.8,67.6c0-0.9-0.1-2.1-0.1-2.9l0,0c-0.2,0.8-0.5,1.6-0.8,2.6l-1.2,3.3H336l-1.1-3.2
				c-0.3-0.9-0.6-1.8-0.8-2.6l0,0c0,0.8-0.1,2-0.1,3l-0.2,2.9H333l0.5-6.7h1.1l1.1,3.3c0.3,0.8,0.5,1.6,0.7,2.3l0,0
				c0.2-0.7,0.4-1.4,0.7-2.3l1.2-3.3h1.1l0.4,6.7H339L338.8,67.6z"/>
			<path class="st2" d="M350.6,68.1c0,1.8-1.2,2.6-2.4,2.6c-1.3,0-2.3-1-2.3-2.5c0-1.6,1.1-2.6,2.4-2.6S350.6,66.6,350.6,68.1z
				 M346.7,68.2c0,1.1,0.6,1.9,1.5,1.9c0.8,0,1.5-0.8,1.5-1.9c0-0.8-0.4-1.9-1.4-1.9C347.2,66.3,346.7,67.3,346.7,68.2z"/>
			<path class="st2" d="M356.7,67.1c0-0.5,0-0.9,0-1.3h0.8v0.8l0,0c0.2-0.5,0.8-0.9,1.6-0.9c0.7,0,1.7,0.4,1.7,2.1v2.9h-0.9v-2.8
				c0-0.8-0.3-1.4-1.1-1.4c-0.6,0-1,0.4-1.2,0.9c0,0.1-0.1,0.3-0.1,0.4v2.9h-0.9v-3.6H356.7z"/>
			<path class="st2" d="M366.7,71.8c0.7-1,1.3-2.3,1.3-4.1c0-1.8-0.5-3.1-1.3-4.1h0.7c0.6,0.8,1.3,2.1,1.3,4.1s-0.7,3.2-1.3,4.1
				H366.7z"/>
		</g>
		<g id="_x34__x2F_7">
			<path class="st2" d="M396.3,79.6v-1.8h-3v-0.6l2.9-4.1h0.9v4h0.9v0.7h-0.9v1.8H396.3z M396.3,77.1v-2.2c0-0.3,0-0.7,0-1l0,0
				c-0.2,0.4-0.4,0.7-0.5,1l-1.6,2.2l0,0H396.3z"/>
			<path class="st2" d="M403.3,80l2.8-7.2h0.7L404,80H403.3z"/>
			<path class="st2" d="M416.4,73.1v0.6l-2.8,5.9h-0.9l2.8-5.7l0,0h-3.2v-0.7h4.1V73.1z"/>
			<path class="st2" d="M424.5,72.6c-0.7,1-1.3,2.3-1.3,4.1c0,1.8,0.5,3.1,1.3,4.1h-0.7c-0.6-0.8-1.3-2.1-1.3-4.1s0.7-3.2,1.3-4.1
				H424.5z"/>
			<path class="st2" d="M430.3,78.5c0.4,0.2,1,0.4,1.6,0.4c0.9,0,1.4-0.5,1.4-1.1s-0.4-1-1.3-1.3c-1.1-0.4-1.8-1-1.8-1.9
				c0-1,0.9-1.8,2.2-1.8c0.7,0,1.2,0.2,1.5,0.3l-0.2,0.7c-0.2-0.1-0.7-0.3-1.3-0.3c-0.9,0-1.3,0.5-1.3,1c0,0.6,0.4,0.9,1.3,1.3
				c1.1,0.4,1.7,1,1.7,2s-0.8,1.9-2.4,1.9c-0.6,0-1.4-0.2-1.7-0.4L430.3,78.5z"/>
			<path class="st2" d="M444.4,78.3c0,0.5,0,0.9,0,1.3h-0.8v-0.8l0,0c-0.2,0.4-0.7,0.9-1.6,0.9c-0.8,0-1.7-0.4-1.7-2.1v-2.8h0.9v2.7
				c0,0.9,0.3,1.5,1.1,1.5c0.6,0,1-0.4,1.2-0.8c0-0.1,0.1-0.3,0.1-0.5v-3h0.9v3.6C444.5,78.3,444.4,78.3,444.4,78.3z"/>
			<path class="st2" d="M450.9,76c0-0.5,0-0.9,0-1.3h0.8v0.8l0,0c0.2-0.5,0.8-0.9,1.6-0.9c0.7,0,1.7,0.4,1.7,2.1v2.9h-0.9v-2.8
				c0-0.8-0.3-1.4-1.1-1.4c-0.6,0-1,0.4-1.2,0.9c0,0.1-0.1,0.3-0.1,0.4v2.9h-0.9V76H450.9z"/>
			<path class="st2" d="M460.9,80.8c0.7-1,1.3-2.3,1.3-4.1c0-1.8-0.5-3.1-1.3-4.1h0.7c0.6,0.8,1.3,2.1,1.3,4.1s-0.7,3.2-1.3,4.1
				H460.9z"/>
		</g>
		<g id="_x32_023">
			<path class="st2" d="M277.7,62.5v-0.4l0.6-0.5c1.3-1.3,1.9-1.9,1.9-2.7c0-0.5-0.3-1-1-1c-0.5,0-0.9,0.2-1.1,0.4l-0.2-0.5
				c0.4-0.3,0.9-0.5,1.5-0.5c1.1,0,1.6,0.8,1.6,1.5c0,1-0.7,1.7-1.8,2.8l-0.4,0.4l0,0h2.3v0.6L277.7,62.5L277.7,62.5z"/>
			<path class="st2" d="M289.3,59.8c0,1.8-0.7,2.7-1.8,2.7c-1,0-1.7-1-1.7-2.7s0.8-2.7,1.8-2.7C288.6,57.2,289.3,58.2,289.3,59.8z
				 M286.4,59.9c0,1.4,0.4,2.1,1.1,2.1s1.1-0.8,1.1-2.2c0-1.3-0.3-2.1-1.1-2.1C286.9,57.8,286.4,58.5,286.4,59.9z"/>
			<path class="st2" d="M293.9,62.5v-0.4l0.6-0.5c1.3-1.3,1.9-1.9,1.9-2.7c0-0.5-0.3-1-1-1c-0.5,0-0.9,0.2-1.1,0.4l-0.2-0.5
				c0.4-0.3,0.9-0.5,1.5-0.5c1.1,0,1.6,0.8,1.6,1.5c0,1-0.7,1.7-1.8,2.8L295,62l0,0h2.3v0.6L293.9,62.5L293.9,62.5z"/>
			<path class="st2" d="M302.2,61.7c0.2,0.1,0.7,0.3,1.2,0.3c0.9,0,1.2-0.6,1.2-1c0-0.7-0.7-1-1.3-1h-0.4v-0.5h0.4
				c0.5,0,1.2-0.3,1.2-0.9c0-0.4-0.3-0.8-0.9-0.8c-0.4,0-0.8,0.2-1,0.3l-0.2-0.5c0.3-0.2,0.8-0.4,1.4-0.4c1,0,1.5,0.6,1.5,1.2
				c0,0.5-0.3,1-1,1.2l0,0c0.6,0.1,1.2,0.6,1.2,1.3c0,0.8-0.6,1.6-1.9,1.6c-0.6,0-1.1-0.2-1.4-0.4L302.2,61.7z"/>
		</g>
		<g id="_x7E_">
			<path class="st2" d="M378.9,78.2c0-1.2,0.6-1.8,1.4-1.8c0.5,0,0.9,0.2,1.7,0.5c0.6,0.3,1.1,0.5,1.5,0.5s0.6-0.3,0.6-1h0.7
				c0.1,1.3-0.6,1.8-1.4,1.8c-0.5,0-0.9-0.1-1.7-0.5c-0.6-0.3-1-0.5-1.4-0.5s-0.7,0.3-0.7,1H378.9z"/>
		</g>
	</g>
	<g id="柄">
		<g>
			<path class="st6" d="M382.8,7.5c0,2.2-1.8,4-4,4s-4-1.8-4-4s1.8-4,4-4S382.8,5.3,382.8,7.5z"/>
			<ellipse transform="matrix(0.1212 -0.9926 0.9926 0.1212 323.7236 381.5811)" class="st7" cx="377.4" cy="8" rx="7.3" ry="7.3"/>
		</g>
		<g>
			<path class="st8" d="M395.1,69.4c0,3.4-2.8,6.2-6.2,6.2c-3.4,0-6.2-2.8-6.2-6.2c0-3.4,2.8-6.2,6.2-6.2
				C392.3,63.2,395.1,66,395.1,69.4z"/>
			<circle class="st8" cx="391" cy="67.6" r="11.1"/>
		</g>
		<g>
			<path class="st8" d="M481.1,20.4c0,3.4-2.8,6.2-6.2,6.2c-3.4,0-6.2-2.8-6.2-6.2s2.8-6.2,6.2-6.2C478.3,14.2,481.1,17,481.1,20.4z
				"/>
			<path class="st8" d="M486.1,20.1c0-4.7-3.8-8.6-8.6-8.6c-4.7,0-8.6,3.8-8.6,8.6s3.8,8.6,8.6,8.6
				C482.3,28.6,486.1,24.8,486.1,20.1z"/>
		</g>
		<g>
			<path class="st9" d="M707.1,10.7c0,2.4-2,4.4-4.4,4.4s-4.4-2-4.4-4.4s2-4.4,4.4-4.4C705.1,6.2,707.1,8.2,707.1,10.7z"/>
			<circle class="st8" cx="699.6" cy="17.1" r="12.6"/>
		</g>
		<g>
			<path class="st8" d="M688.1,71.4c0,3.4-2.8,6.2-6.2,6.2s-6.2-2.8-6.2-6.2c0-3.4,2.8-6.2,6.2-6.2C685.3,65.2,688.1,68,688.1,71.4z
				"/>
			<circle class="st8" cx="678" cy="75.6" r="11.1"/>
		</g>
		<g>
			<path class="st8" d="M638.1,29.4c0,2.3-1.9,4.2-4.2,4.2s-4.2-1.9-4.2-4.2s1.9-4.2,4.2-4.2C636.2,25.2,638.1,27.1,638.1,29.4z"/>
			<path class="st8" d="M638.4,28.4c0-3.4-2.8-6.2-6.2-6.2S626,25,626,28.4s2.8,6.2,6.2,6.2C635.6,34.6,638.4,31.9,638.4,28.4z"/>
		</g>
		<g>
			<path class="st6" d="M270.8,50.5c0,2.2-1.8,4-4,4s-4-1.8-4-4s1.8-4,4-4S270.8,48.3,270.8,50.5z"/>
			<path class="st8" d="M273.3,51.3c0-3.1-2.5-5.6-5.6-5.6s-5.6,2.5-5.6,5.6s2.5,5.6,5.6,5.6C270.8,56.9,273.3,54.4,273.3,51.3z"/>
		</g>
		<g>
			<path class="st8" d="M305.8,29.6c0,3.9-3.1,7-7,7s-7-3.1-7-7s3.1-7,7-7C302.7,22.5,305.8,25.7,305.8,29.6z"/>
			<path class="st8" d="M307,28.7c0-5-4.1-9.1-9.1-9.1s-9.1,4.1-9.1,9.1s4.1,9.1,9.1,9.1C302.9,37.8,307,33.7,307,28.7z"/>
		</g>
		<g>
			<path class="st6" d="M320.8,84.9c0,0.9-0.7,1.6-1.6,1.6s-1.6-0.7-1.6-1.6s0.7-1.6,1.6-1.6C320,83.3,320.8,84,320.8,84.9z"/>
			<path class="st8" d="M323.3,81.3c0-3.1-2.5-5.6-5.6-5.6s-5.6,2.5-5.6,5.6s2.5,5.6,5.6,5.6S323.3,84.4,323.3,81.3z"/>
		</g>
		<g>
			<path class="st9" d="M541.1,80.7c0,2.4-2,4.4-4.4,4.4s-4.4-2-4.4-4.4s2-4.4,4.4-4.4C539.1,76.2,541.1,78.2,541.1,80.7z"/>
			<ellipse class="st10" cx="534.5" cy="77.1" rx="9.5" ry="9.5"/>
		</g>
	</g>
	<g id="雲柄">
		<path class="st3" d="M-18-11V90H6.5c-0.6-3.1-0.9-6.3-0.9-9.6C5.4,57.2,21.3,50.5,34,43.6c1.7-5.1,2.6-10.5,1.7-16.4
			c-1.3-8.9,12.8-12.5,28.6-13.6C70.9,8.1,80.5,6,89.2,5.3c3-0.7,5.5-1.2,7.2-1.7c59.4-15,46-4,56.6,13.7c1.9,0.5,3.3,0.6,4.4-0.1
			c9.7-5.8,20.7,1.6,29.8,13.6c15.3,3.7,30,12.2,22.4,35.6c-0.9,2.7-2,5.6-3.4,8.4c0.8,7.4-0.7,12.7-5.2,13.6
			c-1,0.2-1.9,0.5-2.8,0.7c-0.2,0.3-0.3,0.5-0.5,0.8H245V-11H-18z"/>
		<path class="st11" d="M46.4,33.9c3.8-5.6,8-10,12.3-13.7c1.4-2.7,3.4-4.9,5.6-6.7c-15.8,1.1-30,4.7-28.6,13.6
			c0.9,6,0,11.3-1.7,16.4C39.1,40.8,43.6,37.9,46.4,33.9z"/>
		<path class="st12" d="M209.6,66.4c7.7-23.4-7-31.9-22.4-35.6c10,13.1,17.7,31.5,19,44C207.5,72,208.7,69.2,209.6,66.4z"/>
		<path class="st12" d="M110.2,5.1c19.3-1,34.7,10,42.8,12.2c-10.6-17.6,2.8-28.7-56.6-13.7c-1.7,0.4-4.2,0.9-7.2,1.7
			C98.6,4.5,107.1,5.2,110.2,5.1z"/>
		<path class="st12" d="M195.7,90h1.9c0.2-0.3,0.4-0.5,0.5-0.8C197.3,89.5,196.5,89.7,195.7,90z"/>
		<path class="st12" d="M27.8,59.1c2-5.2,4.5-10.3,6.2-15.5C21.3,50.5,5.4,57.2,5.6,80.4c0,3.2,0.3,6.4,0.9,9.6h13.2
			c-0.1-0.5-0.2-1-0.3-1.5C16.3,73.1,20.9,64.6,27.8,59.1z"/>
		<path class="st11" d="M56.1,38.4c-1-7.7,0.1-13.6,2.6-18.1c-4.3,3.6-8.5,8.1-12.3,13.7c-2.8,4-7.3,6.9-12.4,9.7
			c-1.7,5.2-4.2,10.2-6.2,15.5C39.4,49.8,57.4,48.9,56.1,38.4z"/>
		<path class="st12" d="M56.1,38.4c-1-7.7,0.1-13.6,2.6-18.1c-4.3,3.6-8.5,8.1-12.3,13.7c-2.8,4-7.3,6.9-12.4,9.7
			c-1.7,5.2-4.2,10.2-6.2,15.5C39.4,49.8,57.4,48.9,56.1,38.4z"/>
		<path class="st11" d="M201,88.5c4.5-1,6-6.3,5.2-13.6c-2.2,4.7-4.9,9.5-8.1,14.4C199.1,88.9,200,88.7,201,88.5z"/>
		<path class="st11" d="M160.2,26c2.1,1.9,14.8,1.8,27,4.8c-9.1-12-20.2-19.4-29.8-13.6c-1.1,0.6-2.5,0.6-4.4,0.1
			C154.7,20.1,156.9,23,160.2,26z"/>
		<path class="st11" d="M89.2,5.3C80.5,6,70.9,8.1,64.3,13.5c1.4-0.1,2.9-0.2,4.3-0.2C76.3,8.9,83.6,6.7,89.2,5.3z"/>
		<path class="st11" d="M58.7,20.2c3.3-2.8,6.6-5.1,10-6.9c-1.5,0.1-2.9,0.1-4.3,0.2C62.1,15.4,60.1,17.6,58.7,20.2z"/>
		<path class="st11" d="M58.7,20.2c3.3-2.8,6.6-5.1,10-6.9c-1.5,0.1-2.9,0.1-4.3,0.2C62.1,15.4,60.1,17.6,58.7,20.2z"/>
		<path class="st12" d="M206.2,74.9c-1.3-12.5-9-31-19-44c-12.3-3-25-2.9-27-4.8c-3.3-3-5.5-6-7.2-8.8c-8.1-2.2-23.5-13.2-42.8-12.2
			c-3.1,0.2-11.6-0.6-21,0.2c-5.6,1.4-12.9,3.6-20.5,8c13.9-0.6,28.2,0.5,33.6,1.5c30.1,5.6-4.3,39.3,62.5,33.2
			c7-0.6,44.8,18.4,13.7,38.3c-1.8,1.1-3.5,2.4-5.1,3.7h22.4c0.8-0.3,1.6-0.5,2.4-0.8C201.3,84.4,204,79.5,206.2,74.9z"/>
		<path class="st11" d="M206.2,74.9c-1.3-12.5-9-31-19-44c-12.3-3-25-2.9-27-4.8c-3.3-3-5.5-6-7.2-8.8c-8.1-2.2-23.5-13.2-42.8-12.2
			c-3.1,0.2-11.6-0.6-21,0.2c-5.6,1.4-12.9,3.6-20.5,8c13.9-0.6,28.2,0.5,33.6,1.5c30.1,5.6-4.3,39.3,62.5,33.2
			c7-0.6,44.8,18.4,13.7,38.3c-1.8,1.1-3.5,2.4-5.1,3.7h22.4c0.8-0.3,1.6-0.5,2.4-0.8C201.3,84.4,204,79.5,206.2,74.9z"/>
		<path class="st12" d="M27.8,59.1c-6.9,5.5-11.5,14.1-8.4,29.4c0.1,0.5,0.2,1,0.3,1.5h7.1c-0.4-1.2-0.8-2.5-1.2-3.7
			C22.5,75.7,24.7,67.1,27.8,59.1z"/>
		<path class="st11" d="M27.8,59.1c-6.9,5.5-11.5,14.1-8.4,29.4c0.1,0.5,0.2,1,0.3,1.5h7.1c-0.4-1.2-0.8-2.5-1.2-3.7
			C22.5,75.7,24.7,67.1,27.8,59.1z"/>
		<path class="st11" d="M164.8,48c-66.8,6.1-32.5-27.6-62.5-33.2c-5.4-1-19.6-2.1-33.6-1.5c-3.3,1.9-6.7,4.2-10,6.9
			c-2.5,4.6-3.6,10.5-2.6,18.1C57.4,48.8,39.4,49.7,27.8,59c-3.1,8-5.2,16.6-2.1,27.2c0.4,1.2,0.8,2.5,1.2,3.7h146.5
			c1.6-1.3,3.3-2.6,5.1-3.7C209.6,66.4,171.8,47.4,164.8,48z"/>
		<path class="st12" d="M164.8,48c-66.8,6.1-32.5-27.6-62.5-33.2c-5.4-1-19.6-2.1-33.6-1.5c-3.3,1.9-6.7,4.2-10,6.9
			c-2.5,4.6-3.6,10.5-2.6,18.1C57.4,48.8,39.4,49.7,27.8,59c-3.1,8-5.2,16.6-2.1,27.2c0.4,1.2,0.8,2.5,1.2,3.7h146.5
			c1.6-1.3,3.3-2.6,5.1-3.7C209.6,66.4,171.8,47.4,164.8,48z"/>
		<path class="st3" d="M164.8,48c-66.8,6.1-32.5-27.6-62.5-33.2c-5.4-1-19.6-2.1-33.6-1.5c-3.3,1.9-6.7,4.2-10,6.9
			c-2.5,4.6-3.6,10.5-2.6,18.1C57.4,48.8,39.4,49.7,27.8,59c-3.1,8-5.2,16.6-2.1,27.2c0.4,1.2,0.8,2.5,1.2,3.7h146.5
			c1.6-1.3,3.3-2.6,5.1-3.7C209.6,66.4,171.8,47.4,164.8,48z"/>
	</g>
	<g>
		<g>
			<g>
				<g>
					<path class="st13" d="M59.5,56.6c0.2,0.2,0.3,0.5,0.3,0.7c0,0.4-0.1,0.7-0.4,1c-0.3,0.2-0.5,0.4-0.8,0.4s-0.7-0.1-1-0.4
						c-1.4-1.6-3-3-4.2-3.9c-0.3-0.2-0.5-0.5-0.6-0.9c0-0.3,0.1-0.6,0.3-0.9c0.3-0.3,0.5-0.4,0.8-0.5c0.3,0,0.5,0.1,0.8,0.2
						C56.5,53.6,58.4,55.5,59.5,56.6z M61.2,73.2c1.3,1.8,2.7,2.5,4.4,2.7c1.5,0.1,3.5,0,6.1-0.3c3.9-0.5,8-1.1,11.1-1.8
						c0.1,0,0.1,0,0.2,0c0.7-0.1,1.1,0.3,1.3,1v0.1c0.1,0.7-0.3,1.2-1,1.3c-3.2,0.5-7.7,1.2-11.4,1.7c-2.8,0.4-5.2,0.5-6.8,0.2
						c-1.9-0.3-3.6-1.2-4.9-2.9c-1,1.6-2.2,3.1-3.4,4.4c-0.2,0.1-0.4,0.3-0.6,0.3c-0.3,0-0.7-0.1-1-0.4c-0.2-0.2-0.3-0.5-0.4-0.8
						c0-0.3,0.1-0.7,0.3-0.9c1.1-1,2.5-2.6,3.7-4.3L58,66.6c-0.1-0.6-0.3-0.7-0.9-0.7l-2.8,0.4c-0.5,0.1-1-0.3-1-1
						c-0.1-0.7,0.2-1.1,0.8-1.2l3.6-0.5c1.6-0.2,2.4,0.6,2.6,2.2L61.2,73.2z M73.1,64c2,3.1,5.3,5,8.8,5.8c0.5,0.1,0.9,0.5,0.9,1
						c0,0.2,0,0.4,0,0.6c-0.1,0.6-0.6,0.9-1.1,1c-0.2,0-0.3,0-0.5,0c-3.8-0.9-7.3-3.2-9.6-6.9c-0.8,3.4-2.7,6-6,8.5
						c-0.2,0.1-0.4,0.2-0.6,0.2c-0.4,0.1-0.8-0.1-1.2-0.6c-0.2-0.2-0.2-0.4-0.2-0.5c-0.1-0.4,0.2-0.9,0.6-1.1
						c3.2-2.1,4.9-4.4,5.4-7.5L63,65.3c-0.6,0.1-0.9-0.3-1-1c-0.1-0.7,0.2-1.1,0.7-1.2l7.1-0.9c0-1.6-0.1-3.1-0.3-4.7l-6.6,0.8
						c-0.6,0.1-0.9-0.3-1-1s0.2-1.1,0.7-1.1l9.2-1.2c0.9-1.7,1.6-3.8,2-5.2c0.1-0.5,0.4-0.8,0.9-0.9c0.2,0,0.3,0,0.5,0
						c0.6,0.1,0.9,0.5,1,0.9c0,0.1,0,0.3,0,0.4c-0.4,1.4-1.1,3-1.8,4.5l4.8-0.6c0.6-0.1,0.9,0.3,1,0.9c0.1,0.6-0.2,1.1-0.7,1.2
						l-7.8,1c0.2,1.6,0.3,3.1,0.3,4.7l8.9-1.1c0.6-0.1,0.9,0.3,1,1c0.1,0.6-0.2,1.1-0.7,1.2L73.1,64z M64,52
						c-0.2-0.2-0.3-0.4-0.3-0.6c0-0.3,0.1-0.7,0.5-1c0.2-0.1,0.4-0.2,0.6-0.2c0.4,0,0.7,0.1,1,0.4c0.7,0.7,1.6,1.7,2.1,2.6
						c0.2,0.2,0.2,0.4,0.3,0.7c0.1,0.4-0.1,0.7-0.5,1c-0.2,0.1-0.4,0.2-0.6,0.2c-0.4,0.1-0.9-0.1-1.1-0.5C65.5,53.8,64.7,52.8,64,52
						z"/>
					<path class="st13" d="M56.1,80.4c-0.4,0-0.9-0.2-1.2-0.5s-0.5-0.7-0.5-1.1c-0.1-0.5,0.1-1.1,0.5-1.4c1.2-1.1,2.5-2.6,3.5-4.1
						l-0.8-6.7c0-0.2,0-0.2-0.1-0.2c0,0-0.1,0-0.3,0l-2.8,0.4c-0.8,0.1-1.5-0.5-1.6-1.4c-0.1-1.1,0.5-1.7,1.2-1.8l3.6-0.5
						c0.9-0.1,1.7,0.1,2.2,0.5c0.5,0.5,0.8,1.1,1,2.1l0.9,7.2c1.1,1.5,2.4,2.2,4,2.4c1.4,0.1,3.3,0,6-0.3c4.2-0.5,8.2-1.2,11.1-1.8
						H83c0.6-0.1,1.5,0,1.8,1.4c0,0,0,0.1,0,0.2c0.1,0.9-0.4,1.7-1.4,1.9c-1.5,0.3-6.8,1.1-11.4,1.7c-3.1,0.4-5.4,0.5-6.9,0.2
						c-1.9-0.3-3.5-1.2-4.7-2.6c-0.9,1.4-2,2.8-3.1,3.9c-0.3,0.3-0.6,0.4-0.9,0.4C56.2,80.4,56.1,80.4,56.1,80.4z M57.4,65.4
						c0.2,0,0.5,0,0.7,0.2c0.3,0.2,0.4,0.6,0.4,0.9l0.9,6.9c0,0.1,0,0.2-0.1,0.3c-1.1,1.6-2.5,3.3-3.8,4.4c-0.1,0.1-0.2,0.3-0.2,0.5
						s0.1,0.4,0.2,0.5c0.2,0.2,0.4,0.2,0.6,0.2c0.1,0,0.3-0.1,0.4-0.2c1.1-1.2,2.3-2.6,3.3-4.2c0.1-0.1,0.2-0.2,0.4-0.2
						s0.3,0.1,0.4,0.2c1.1,1.5,2.7,2.4,4.5,2.7c1.4,0.2,3.7,0.1,6.7-0.2c4.7-0.6,9.9-1.4,11.4-1.7c0.6-0.1,0.7-0.5,0.6-0.8v-0.1
						c-0.1-0.6-0.4-0.6-0.7-0.6h-0.2C80,74.8,76,75.5,71.8,76c-2.7,0.3-4.7,0.4-6.2,0.3c-2-0.2-3.5-1.1-4.8-2.9
						c0-0.1-0.1-0.1-0.1-0.2l-0.9-7.4c-0.1-0.7-0.3-1.2-0.6-1.5s-0.8-0.4-1.5-0.3l-3.6,0.5c-0.1,0-0.4,0.1-0.3,0.7
						c0.1,0.6,0.4,0.5,0.5,0.5l2.8-0.4C57.1,65.4,57.2,65.4,57.4,65.4z M64.7,74.7c-0.5,0-1-0.3-1.4-0.8c-0.2-0.3-0.3-0.6-0.3-0.8
						c-0.1-0.6,0.2-1.3,0.8-1.6c2.8-1.9,4.4-3.9,5.1-6.5L63,65.7c-0.4,0-0.8-0.1-1.1-0.4c-0.3-0.2-0.4-0.6-0.5-1
						c-0.1-0.5,0-1,0.3-1.3c0.2-0.3,0.5-0.4,0.9-0.5l6.7-0.8c0-1.1-0.1-2.3-0.2-3.7L63,58.8c-0.8,0.1-1.5-0.5-1.6-1.4
						s0.3-1.6,1.2-1.7l3.6-0.4c-0.2-0.1-0.4-0.3-0.5-0.5c-0.4-0.7-1.2-1.7-1.9-2.5c-0.2-0.2-0.4-0.5-0.4-0.9
						c-0.1-0.5,0.2-1.1,0.7-1.4c0.3-0.2,0.6-0.3,0.9-0.3c0.6-0.1,1.1,0.1,1.4,0.5c0.5,0.6,1.6,1.7,2.1,2.7c0.2,0.3,0.3,0.6,0.3,0.9
						c0.1,0.5-0.1,0.9-0.5,1.3l3.3-0.4c0.7-1.3,1.3-3,1.9-4.9c0.3-1,0.9-1.2,1.3-1.3c0.2,0,0.5,0,0.7,0c0.8,0.2,1.3,0.6,1.4,1.3
						c0,0.2,0,0.4-0.1,0.6c-0.3,1.1-0.8,2.4-1.4,3.8l3.9-0.5c0.8-0.1,1.5,0.4,1.6,1.4c0.1,0.5,0,0.9-0.3,1.2
						c-0.2,0.3-0.5,0.4-0.9,0.5l-7.3,0.9c0.1,1.3,0.2,2.5,0.2,3.7l8.4-1.1c0.4,0,0.7,0,1,0.3s0.5,0.7,0.6,1.2s0,0.9-0.3,1.2
						c-0.2,0.3-0.5,0.4-0.9,0.5L74,64.4c1.8,2.4,4.6,4.2,8,5c0.7,0.1,1.2,0.7,1.3,1.4c0,0.2,0,0.5-0.1,0.8c-0.2,0.7-0.7,1.2-1.5,1.3
						c-0.2,0-0.5,0-0.7,0c-3.8-0.9-7-3.1-9.3-6.2c-0.9,3-2.8,5.5-6,7.7c-0.3,0.2-0.6,0.3-0.9,0.3C64.9,74.7,64.8,74.7,64.7,74.7z
						 M69.5,64c0.1,0,0.3,0.1,0.4,0.2s0.2,0.3,0.1,0.4c-0.6,3.2-2.3,5.7-5.6,7.9c-0.2,0.1-0.4,0.4-0.3,0.6c0,0.1,0,0.2,0.1,0.3
						c0.2,0.2,0.4,0.4,0.7,0.4c0.1,0,0.3-0.1,0.5-0.2c3.3-2.4,5.1-4.9,5.8-8.2c0-0.2,0.2-0.3,0.4-0.4c0.2,0,0.4,0.1,0.5,0.2
						c2.1,3.4,5.4,5.7,9.3,6.6c0.1,0,0.3,0,0.4,0c0.3,0,0.6-0.2,0.6-0.6c0.1-0.2,0.1-0.3,0-0.4c0-0.3-0.2-0.5-0.5-0.5
						c-4-0.9-7.3-3.1-9.1-6.1c-0.1-0.1-0.1-0.3,0-0.5s0.2-0.3,0.4-0.3l8.1-1c0.1,0,0.2-0.1,0.2-0.1c0.1-0.1,0.1-0.3,0.1-0.5
						s-0.1-0.4-0.2-0.5c0,0-0.1-0.1-0.2-0.1L72,62.4c-0.1,0-0.3,0-0.4-0.1s-0.2-0.2-0.2-0.4c0-1.5-0.1-3-0.3-4.6
						c0-0.3,0.2-0.5,0.4-0.6l7.8-1c0.1,0,0.2-0.1,0.2-0.1c0.1-0.1,0.1-0.3,0.1-0.5c-0.1-0.5-0.3-0.5-0.5-0.5l-4.8,0.6
						c-0.2,0-0.4-0.1-0.5-0.2c-0.1-0.1-0.1-0.3,0-0.5c0.7-1.5,1.4-3.2,1.8-4.5c0-0.1,0-0.1,0-0.2c0-0.3-0.4-0.4-0.6-0.4
						c-0.1,0-0.3,0-0.4,0s-0.4,0-0.5,0.5c-0.6,2.1-1.3,3.9-2.1,5.3c-0.1,0.1-0.2,0.2-0.4,0.3l-9.2,1.2c-0.1,0-0.4,0-0.3,0.6
						c0,0.4,0.2,0.6,0.5,0.5l6.6-0.8c0.3,0,0.5,0.2,0.6,0.4c0.2,1.8,0.3,3.4,0.3,4.8c0,0.2-0.2,0.5-0.4,0.5l-7.1,0.9
						c-0.1,0-0.2,0.1-0.2,0.1c-0.1,0.1-0.1,0.3-0.1,0.5s0.1,0.4,0.2,0.4c0,0,0.1,0.1,0.3,0.1L69.5,64C69.4,64,69.5,64,69.5,64z
						 M65,50.7L65,50.7c-0.2,0-0.4,0.1-0.5,0.2c-0.3,0.2-0.2,0.4-0.2,0.5c0,0,0,0.2,0.1,0.3l0,0c0.7,0.8,1.6,1.9,2,2.6
						c0.2,0.3,0.4,0.3,0.6,0.3c0.1,0,0.3-0.1,0.5-0.2c0.2-0.1,0.2-0.3,0.2-0.5c0-0.1-0.1-0.3-0.2-0.5c-0.6-0.9-1.5-2-2-2.5
						C65.3,50.7,65.1,50.7,65,50.7z M58.5,59.3c-0.4,0-0.9-0.2-1.2-0.6c-1.3-1.5-2.9-3-4.1-3.8c-0.4-0.3-0.7-0.8-0.8-1.2
						c0-0.3,0-0.8,0.4-1.3c0.3-0.4,0.7-0.6,1.1-0.7c0.4,0,0.8,0.1,1.2,0.3c1.5,1,3.4,2.8,4.7,4.1l0,0c0.2,0.3,0.4,0.7,0.5,1
						c0.1,0.5-0.1,1-0.5,1.4S59,59,58.7,59.1C58.6,59.3,58.6,59.3,58.5,59.3z M54.2,52.8C54.2,52.8,54.1,52.8,54.2,52.8
						c-0.2,0-0.4,0.1-0.6,0.3c-0.1,0.2-0.2,0.3-0.2,0.5s0.2,0.4,0.4,0.5c1.3,0.9,2.9,2.4,4.3,3.9c0.2,0.2,0.4,0.2,0.5,0.2
						c0.2,0,0.3-0.1,0.5-0.3c0.2-0.3,0.2-0.5,0.2-0.6s-0.1-0.3-0.2-0.5c-1.2-1.3-3-3-4.5-4C54.4,52.8,54.3,52.8,54.2,52.8z"/>
				</g>
				<g>
					<path class="st13" d="M93.4,70.6c-0.4,0-0.5-0.3-0.5-0.7c0-0.4,0.2-0.7,0.6-0.7l3,0.2l0.4-6.7c0-0.4,0.3-0.6,0.8-0.5
						c0.5,0,0.7,0.3,0.7,0.6L98,69.5l2.3,0.2c0.4,0,0.6,0.3,0.5,0.8s-0.3,0.7-0.6,0.7L98,71.1c0.7,1.5,1.6,2.9,2.5,3.9
						c0.1,0.2,0.2,0.4,0.2,0.5c0,0.2-0.1,0.4-0.3,0.5c-0.1,0.2-0.3,0.2-0.5,0.2s-0.3-0.1-0.5-0.2c-0.8-1-1.5-2.5-1.9-3.6
						c0.1,0.9,0.1,2.1,0,2.8l-0.4,6.2c0,0.4-0.3,0.6-0.8,0.5c-0.4,0-0.7-0.3-0.7-0.6l0.3-5.2c0.1-1.1,0.3-2.4,0.6-3.6
						c-0.6,1.9-2,4.1-3.2,5.4c-0.2,0.2-0.4,0.3-0.6,0.3s-0.3-0.1-0.5-0.2C92,77.8,92,77.6,92,77.4s0.1-0.4,0.3-0.5
						c1.5-1.5,2.9-3.6,3.8-5.9L93.4,70.6z M94.4,63.4c0.3,0,0.5,0.2,0.6,0.4c0.4,1.2,0.7,2.6,0.9,3.7c0,0.1,0,0.2,0,0.2
						c0,0.3-0.2,0.5-0.5,0.6c-0.1,0-0.2,0-0.3,0c-0.3,0-0.5-0.2-0.5-0.5c-0.2-1.1-0.5-2.5-0.9-3.6c0-0.1,0-0.2,0-0.3
						c0-0.3,0.2-0.5,0.5-0.6C94.1,63.4,94.3,63.4,94.4,63.4z M101.7,64.5c0,0.1,0,0.1,0,0.2c-0.3,1.1-1,2.7-1.6,3.7
						c-0.2,0.3-0.4,0.4-0.6,0.4c-0.1,0-0.2,0-0.3-0.1c-0.3-0.1-0.4-0.4-0.4-0.7c0-0.1,0-0.2,0.1-0.3c0.5-0.9,1.2-2.5,1.5-3.5
						c0.1-0.3,0.4-0.4,0.7-0.4c0.1,0,0.1,0,0.2,0C101.6,63.9,101.7,64.2,101.7,64.5z M111.2,74.9L111.2,74.9c0.4,0,0.6,0.3,0.7,0.7
						c0,0.1,0,0.2,0,0.2c0,0.3-0.2,0.6-0.5,0.6l-2.1,0.3L109,82c0,0.4-0.4,0.6-0.9,0.5c-0.5,0-0.8-0.2-0.7-0.6l0.3-4.9l-7,1.2h-0.1
						c-0.3,0-0.6-0.3-0.6-0.7c0-0.1,0-0.1,0-0.2c0-0.4,0.2-0.6,0.6-0.7l7.4-1.2l0.8-11.9c0-0.4,0.4-0.6,0.8-0.5
						c0.5,0,0.8,0.2,0.8,0.6l-0.8,11.5L111.2,74.9z M106,72.7c0.1,0.2,0.2,0.4,0.2,0.6s-0.1,0.4-0.2,0.5c-0.2,0.2-0.4,0.2-0.6,0.2
						s-0.4-0.1-0.5-0.3c-0.7-0.9-1.9-2.1-2.8-2.8c-0.2-0.1-0.3-0.3-0.2-0.5c0-0.2,0.1-0.4,0.2-0.5c0.2-0.1,0.4-0.2,0.6-0.2
						s0.4,0.1,0.5,0.2C104,70.6,105.2,71.7,106,72.7z M107.1,67.4c0.1,0.2,0.2,0.4,0.2,0.6s-0.1,0.4-0.2,0.5
						c-0.2,0.1-0.4,0.2-0.6,0.2s-0.5-0.1-0.6-0.3c-0.8-1-1.9-2.1-2.8-2.8c-0.2-0.1-0.2-0.3-0.2-0.5s0.1-0.4,0.2-0.5
						c0.2-0.2,0.4-0.2,0.6-0.2s0.4,0.1,0.5,0.2C105,65.1,106.3,66.4,107.1,67.4z"/>
					<path class="st13" d="M108.3,83.1c0,0-0.1,0-0.2,0c-0.3,0-0.6-0.1-0.8-0.3c-0.3-0.2-0.4-0.5-0.4-0.9l0.3-4.3l-6.4,1
						c-0.1,0-0.2,0-0.3,0c-0.6,0-1-0.5-1.1-1.1c0-0.1,0-0.2,0-0.3c0-0.3,0.1-0.5,0.2-0.7c-0.2-0.1-0.4-0.2-0.5-0.4
						c-0.4-0.4-0.7-0.9-1-1.4c0,0.1,0,0.2,0,0.3l-0.4,6.2c0,0.5-0.4,1.1-1.3,1c-0.4,0-0.7-0.2-0.9-0.4c-0.2-0.2-0.3-0.5-0.2-0.8
						l0.3-5.2c0-0.1,0-0.2,0-0.2c-0.6,0.9-1.2,1.8-1.8,2.4c-0.2,0.3-0.6,0.4-1,0.4c-0.3,0-0.5-0.1-0.8-0.3c-0.3-0.3-0.4-0.7-0.4-1
						s0.2-0.6,0.4-0.9c1.3-1.3,2.6-3.1,3.4-5l-2.1-0.1c-0.3,0-0.6-0.2-0.8-0.4c-0.2-0.2-0.2-0.5-0.2-0.8c0-0.7,0.5-1.2,1.1-1.1
						l1,0.1c-0.3-0.1-0.5-0.4-0.6-0.8c-0.1-0.5-0.4-2.2-0.9-3.5c0-0.2-0.1-0.3-0.1-0.5c0-0.5,0.4-0.9,0.8-1C93.8,63,94,63,94.1,63
						l0,0c0.4,0,0.8,0.3,1,0.7c0.4,1.1,0.7,2.4,0.8,3.3l0.3-4.2c0-0.3,0.2-0.6,0.4-0.8c0.2-0.2,0.5-0.2,0.9-0.2
						c0.9,0.1,1.2,0.7,1.2,1.2l-0.3,4c0.4-0.9,0.9-2.1,1.1-2.8c0.1-0.5,0.6-0.8,1.2-0.7c0.1,0,0.2,0,0.4,0.1
						c0.5,0.2,0.8,0.6,0.8,1.1l0,0h-0.5h0.5c0,0.1,0,0.2-0.1,0.3c-0.3,1.1-1,2.7-1.7,3.8c-0.2,0.3-0.4,0.4-0.6,0.5h0.5
						c0.5,0,0.8,0.3,1,0.8c0.1-0.1,0.1-0.3,0.3-0.4c0.3-0.3,0.7-0.4,1-0.4c0.2,0,0.5,0.1,0.8,0.3c1,0.8,2.2,1.9,3,3l0,0
						c0.2,0.2,0.3,0.6,0.3,0.9s-0.2,0.6-0.4,0.8c-0.3,0.3-0.7,0.4-1,0.4c-0.4,0-0.7-0.2-0.9-0.5c-0.7-0.9-1.8-1.9-2.7-2.7
						c-0.2-0.1-0.3-0.3-0.3-0.4c-0.2,0.5-0.6,0.7-1.1,0.7l-1.3-0.1c0.7,1.3,1.5,2.3,2.1,3c0.2,0.3,0.3,0.6,0.3,0.9
						c0,0.2-0.1,0.4-0.2,0.6l6.3-1l0.8-11.5c0-0.7,0.6-1.1,1.4-1c0.4,0,0.7,0.1,0.9,0.3c0.3,0.2,0.4,0.5,0.4,0.9L110,74.6l1.1-0.2
						c0.1,0,0.2,0,0.3,0c0.6,0,1,0.5,1.1,1.1c0,0.1,0,0.3,0,0.3c0,0.6-0.4,1.1-1,1.1l-1.7,0.3l-0.3,4.9
						C109.5,82.6,109.1,83.1,108.3,83.1z M107.7,76.5c0.1,0,0.2,0,0.3,0.1c0.1,0.1,0.2,0.3,0.2,0.4l-0.3,4.9c0,0.1,0.1,0.1,0.3,0.1
						c0.2,0,0.3,0,0.3,0l0.4-5.3c0-0.2,0.2-0.4,0.4-0.5l2.1-0.3c0,0,0.1-0.1,0.1-0.2v-0.1c0-0.1,0-0.2-0.1-0.2l0,0l0,0l-1.8,0.3
						c-0.1,0-0.3,0-0.4-0.1s-0.2-0.3-0.2-0.4l0.8-11.5c0,0-0.1-0.1-0.3-0.1c-0.2,0-0.3,0-0.3,0l-0.8,11.9c0,0.2-0.2,0.4-0.4,0.5
						l-7.4,1.2c-0.1,0-0.1,0.1-0.1,0.2v0.1c0,0.1,0.1,0.2,0.1,0.2l0,0l0,0L107.7,76.5L107.7,76.5z M97.2,72.6
						c-0.2,1.2-0.5,2.5-0.5,3.5l-0.3,5.2c0,0,0.1,0.1,0.2,0.1c0.2,0,0.2,0,0.3,0l0.4-6.2C97.2,74.4,97.2,73.5,97.2,72.6z
						 M100.5,77.7L100.5,77.7L100.5,77.7z M93.5,70.1l2.8,0.2c0.2,0,0.3,0.1,0.4,0.2s0.1,0.3,0,0.5c-0.9,2.3-2.3,4.5-4,6.1
						c-0.1,0.1-0.1,0.1-0.1,0.2s0,0.2,0.1,0.2c0,0,0.1,0,0.2,0.1c0.1,0,0.2,0,0.2-0.1c1.2-1.3,2.5-3.4,3.1-5.2
						c0.1-0.2,0.3-0.4,0.6-0.3c0.2,0,0.3,0.2,0.3,0.3c0-0.2,0.2-0.4,0.4-0.5c0.2,0,0.4,0,0.5,0.2c-0.1-0.3-0.3-0.6-0.4-0.8
						c-0.1-0.2-0.1-0.3,0-0.5c0.1-0.1,0.3-0.2,0.4-0.2l2.2,0.1c0.1,0,0.1-0.1,0.1-0.2s0-0.2-0.1-0.2L98,70c-0.1,0-0.3-0.1-0.3-0.2
						c-0.1-0.1-0.1-0.2-0.1-0.4l0.4-6.7c0-0.1-0.1-0.1-0.3-0.1c-0.2,0-0.2,0-0.2,0L97,69.3c0,0.1-0.1,0.3-0.2,0.3
						c-0.1,0.1-0.2,0.1-0.4,0.1l-3-0.2c0,0-0.1,0.1-0.1,0.2C93.4,70.1,93.4,70.1,93.5,70.1C93.4,70.1,93.5,70.1,93.5,70.1z
						 M98.1,72.1L98.1,72.1c0.4,1.1,1,2.6,1.8,3.5c0,0.1,0.1,0.1,0.1,0.1c0.1,0,0.1,0,0.1,0c0.1-0.1,0.1-0.2,0.1-0.2
						c0-0.1,0-0.1-0.1-0.2C99.6,74.5,98.8,73.4,98.1,72.1z M111.2,74.9L111.2,74.9L111.2,74.9z M102.5,70.2c-0.1,0-0.1,0-0.2,0.1
						c0,0-0.1,0.1-0.1,0.2s0,0.1,0,0.1c1,0.8,2.2,2,2.9,2.9c0,0,0.1,0.1,0.2,0.1s0.2,0,0.3-0.1c0,0,0.1-0.1,0.1-0.2s0-0.2-0.1-0.2
						c-0.8-0.9-1.9-2.1-2.8-2.8C102.7,70.2,102.6,70.2,102.5,70.2L102.5,70.2z M98.6,69.1h0.3l0,0c-0.1-0.1-0.2-0.1-0.3-0.2V69.1z
						 M95.4,68.8h0.7v-0.5C96,68.6,95.7,68.8,95.4,68.8z M99.3,67.9C99.3,68,99.3,68,99.3,67.9c0,0.2,0,0.2,0.1,0.3
						c0.1,0,0.2,0,0.2-0.1c0.6-1,1.3-2.5,1.6-3.6h0.5h-0.5c0,0,0-0.1-0.1-0.1H101c-0.1,0-0.1,0-0.2,0
						C100.5,65.3,99.9,66.9,99.3,67.9z M94.3,63.9c0,0-0.1,0-0.2,0C94,64,94,64,94,64v0.1c0.5,1.3,0.8,3.1,0.9,3.6
						c0,0.1,0,0.1,0,0.1c0.1,0,0.2,0,0.2,0c0.1,0,0.1-0.1,0.1-0.1v-0.1C95.1,66.8,94.8,65.2,94.3,63.9C94.4,64,94.4,63.9,94.3,63.9
						L94.3,63.9z M106.5,69.2C106.4,69.2,106.4,69.2,106.5,69.2c-0.5,0-0.8-0.2-1.1-0.5c-0.7-0.9-1.8-2-2.8-2.8
						c-0.3-0.2-0.4-0.6-0.4-0.9s0.2-0.6,0.4-0.9c0.3-0.3,0.7-0.4,1-0.4s0.6,0.1,0.8,0.3c0.9,0.7,2.2,1.9,3,2.9l0,0
						c0.2,0.3,0.3,0.6,0.3,1s-0.2,0.7-0.4,0.9C107.1,69.1,106.8,69.2,106.5,69.2z M103.6,64.8c-0.1,0-0.2,0-0.2,0.1
						c0,0-0.1,0.1-0.1,0.2v0.1c1,0.8,2.2,2,2.9,2.9c0.1,0.1,0.1,0.1,0.3,0.1c0.1,0,0.2,0,0.3-0.1l0,0c0,0,0,0,0.1-0.2
						c0-0.1,0-0.2-0.1-0.3c-0.8-1-2-2.1-2.9-2.8C103.8,64.8,103.7,64.8,103.6,64.8L103.6,64.8z"/>
				</g>
				<g>
					<path class="st13" d="M125.9,58.9c0-0.7,0.1-1.5,0.2-2.2c-0.7,0.8-1.4,1.5-2.2,2.2c-0.2,0.2-0.5,0.3-0.7,0.3
						c-0.3,0-0.5-0.1-0.7-0.4c-0.1-0.2-0.2-0.4-0.2-0.6c0-0.3,0.2-0.6,0.5-0.8c1.9-1.5,3.5-3.5,4.6-5.8c0.2-0.3,0.4-0.4,0.8-0.4
						c0.2,0,0.3,0,0.5,0.1c0.4,0.1,0.6,0.4,0.6,0.7c0,0.2-0.1,0.3-0.2,0.5c-0.4,0.6-0.8,1.2-1.3,1.8c1-0.1,1.9-0.1,2.9-0.1h13.8
						c0.5,0,0.7,0.4,0.7,0.9S145,56,144.5,56h-2.2v4.5h3.1c0.5,0,0.7,0.4,0.7,0.9s-0.3,0.9-0.7,0.9h-3.1v4.6h2.5
						c0.5,0,0.7,0.4,0.7,0.9s-0.2,0.9-0.7,0.9l-21.4,0.1c-0.5,0-0.7-0.4-0.7-0.9s0.2-0.9,0.7-0.9h2.6v-4.6h-3.2
						c-0.4,0-0.7-0.4-0.7-0.9s0.3-0.9,0.7-0.9h3.2L125.9,58.9z M127.2,70.7c0,0.1,0,0.2-0.1,0.3c-0.6,1.5-1.5,3-2.5,4.2
						c-0.3,0.3-0.6,0.4-0.9,0.4s-0.5-0.1-0.7-0.3c-0.2-0.2-0.4-0.4-0.4-0.7c0-0.2,0.1-0.4,0.3-0.7c0.9-0.9,1.7-2.2,2.3-3.7
						c0.1-0.3,0.4-0.5,0.8-0.5c0.1,0,0.3,0,0.4,0.1C126.9,70,127.2,70.3,127.2,70.7z M130.8,60.5V56h-3v4.5H130.8z M130.8,66.9v-4.6
						h-3v4.6H130.8z M130.8,69.9c0.4,0,0.7,0.2,0.8,0.6c0.3,1.3,0.5,2.8,0.6,4.2v0.1c0,0.5-0.4,0.8-0.9,0.8c-0.1,0-0.1,0-0.1,0
						c-0.5,0-0.9-0.3-0.9-0.7c-0.1-1.2-0.2-2.7-0.5-4.1c0-0.1,0-0.1,0-0.1c0-0.4,0.3-0.7,0.8-0.7C130.6,69.9,130.7,69.9,130.8,69.9z
						 M135.6,60.5V56h-3v4.5H135.6z M135.6,66.9v-4.6h-3v4.6H135.6z M136.3,69.8c0.4,0,0.7,0.2,0.8,0.6c0.5,1.3,0.9,2.7,1.2,4
						c0,0.1,0,0.2,0,0.3c0,0.4-0.3,0.7-0.8,0.8c-0.1,0-0.2,0.1-0.4,0.1c-0.4,0-0.8-0.2-0.8-0.7c-0.2-1.2-0.6-2.7-1-4
						c0-0.1-0.1-0.2-0.1-0.3c0-0.4,0.3-0.7,0.7-0.7C136,69.9,136.1,69.8,136.3,69.8z M140.5,60.5V56h-3.1v4.5H140.5z M140.5,66.9
						v-4.6h-3.1v4.6H140.5z M142,69.7c0.3,0,0.6,0.1,0.8,0.3c1.1,1.3,1.9,2.6,2.6,4c0.1,0.2,0.1,0.3,0.1,0.4c0,0.4-0.2,0.7-0.6,0.9
						c-0.2,0.1-0.3,0.1-0.5,0.1c-0.3,0-0.7-0.2-0.8-0.4c-0.7-1.3-1.4-2.7-2.4-3.9c-0.1-0.1-0.1-0.3-0.1-0.4c0-0.3,0.1-0.5,0.4-0.7
						C141.7,69.8,141.8,69.7,142,69.7z"/>
					<path class="st13" d="M123.7,76.2c-0.4,0-0.7-0.1-1-0.4c-0.4-0.3-0.6-0.7-0.6-1.1s0.2-0.7,0.4-1c0.9-0.9,1.7-2.1,2.2-3.5
						c0.2-0.5,0.7-0.8,1.3-0.8c0.2,0,0.4,0,0.6,0.1c0.7,0.2,1.1,0.7,1.1,1.3c0,0.2,0,0.3-0.1,0.5c-0.6,1.6-1.6,3.2-2.6,4.3
						C124.5,76,124.1,76.2,123.7,76.2L123.7,76.2z M126,70.3L126,70.3c-0.2,0-0.3,0.1-0.3,0.2c-0.6,1.5-1.5,2.9-2.5,3.8
						c-0.1,0.1-0.1,0.2-0.1,0.3c0,0.1,0,0.2,0.2,0.3c0.1,0.1,0.3,0.1,0.4,0.2c0.1,0,0.3,0,0.5-0.3c1-1.1,1.8-2.6,2.4-4
						c0-0.1,0-0.1,0-0.2l0,0c0-0.2-0.3-0.3-0.4-0.3C126.2,70.3,126.1,70.3,126,70.3z M131.2,76.1c-0.8,0-1.4-0.5-1.4-1.2
						c-0.1-1.3-0.2-2.8-0.5-4c0,0,0-0.1,0-0.2c0-0.7,0.5-1.2,1.2-1.3c0.1,0,0.2,0,0.4,0c0.7,0,1.2,0.4,1.3,1
						c0.4,1.5,0.5,3.1,0.6,4.3v0.1c0,0.7-0.6,1.3-1.4,1.4L131.2,76.1L131.2,76.1z M130.7,70.4L130.7,70.4c-0.3,0.1-0.5,0.2-0.5,0.3
						c0.2,1.3,0.4,2.8,0.5,4.2c0,0.2,0.3,0.3,0.4,0.3l0,0h0.1c0,0,0.4-0.1,0.4-0.3c-0.1-1.1-0.3-2.8-0.6-4.2
						C131.1,70.4,130.9,70.4,130.7,70.4C130.8,70.4,130.8,70.4,130.7,70.4z M137.1,76L137.1,76c-0.7,0-1.2-0.4-1.3-1.1
						c-0.2-1.3-0.7-2.8-1-3.9c0-0.1-0.1-0.3-0.1-0.4c0-0.6,0.4-1.1,1.1-1.2c0.2,0,0.3-0.1,0.4-0.1l0,0l0,0c0.6,0,1.1,0.3,1.3,0.9
						c0.5,1.4,1,2.8,1.2,4c0,0.1,0,0.2,0,0.4c0,0.6-0.5,1.2-1.2,1.3C137.4,76,137.3,76,137.1,76z M137.1,75c0.1,0,0.1,0,0.2,0
						c0.2,0,0.5-0.1,0.5-0.4c0-0.1,0-0.1,0-0.1c-0.3-1.3-0.7-2.6-1.2-3.9c0-0.1-0.1-0.2-0.4-0.2l0,0c0,0-0.1,0-0.2,0
						c-0.2,0-0.4,0.1-0.4,0.3c0,0,0,0,0,0.1c0.4,1.1,0.9,2.7,1.1,4.1C136.8,75,137,75,137.1,75z M144.4,76c-0.5,0-1-0.3-1.3-0.7
						c-0.8-1.6-1.5-2.8-2.4-3.9c-0.2-0.3-0.2-0.5-0.2-0.8c0-0.5,0.2-0.9,0.7-1.2c0.3-0.2,0.6-0.2,0.8-0.2l0,0c0.4,0,0.8,0.2,1.1,0.5
						c1.2,1.4,2,2.7,2.7,4.1c0.1,0.2,0.2,0.4,0.2,0.7c0,0.6-0.3,1.1-0.9,1.3C144.9,75.9,144.7,76,144.4,76z M142,70.2
						c-0.1,0-0.2,0-0.3,0.1s-0.2,0.2-0.2,0.3c0,0.1,0,0.1,0.1,0.2c0.9,1.1,1.7,2.4,2.5,4c0.1,0.1,0.2,0.2,0.4,0.2
						c0.1,0,0.2,0,0.3-0.1s0.3-0.2,0.3-0.4c0-0.1,0-0.1-0.1-0.2c-0.7-1.3-1.5-2.5-2.6-3.9C142.4,70.3,142.2,70.2,142,70.2L142,70.2z
						 M123.4,69.3c-0.7,0-1.2-0.6-1.2-1.4c0-0.4,0.1-0.8,0.4-1.1c0.2-0.2,0.5-0.3,0.8-0.3h2.1v-3.6h-2.7c-0.3,0-0.6-0.1-0.8-0.3
						c-0.3-0.3-0.4-0.6-0.4-1.1c0-0.4,0.1-0.8,0.4-1.1c0.2-0.2,0.5-0.3,0.8-0.3h2.7V59c0-0.2,0-0.5,0-0.8c-0.4,0.4-0.7,0.7-1.2,1.1
						c-0.4,0.3-0.7,0.4-1,0.4l0,0c-0.4,0-0.8-0.2-1.1-0.5c-0.2-0.3-0.3-0.6-0.3-0.9c0-0.5,0.3-1,0.7-1.3c1.7-1.3,3.3-3.3,4.4-5.6
						c0.3-0.5,0.7-0.7,1.2-0.7c0.3,0,0.5,0,0.7,0.1c0.5,0.2,0.9,0.7,0.9,1.2c0,0.3-0.1,0.5-0.2,0.8c-0.2,0.3-0.4,0.7-0.6,1
						c0.6,0,1.2,0,1.8,0h13.8l0,0c0.7,0,1.2,0.6,1.2,1.4c0,0.8-0.5,1.4-1.2,1.4h-1.7v3.5h2.6l0,0c0.7,0,1.2,0.6,1.2,1.4
						c0,0.8-0.5,1.4-1.2,1.4h-2.6v3.6h2c0.4,0,0.7,0.2,0.9,0.4c0.2,0.2,0.3,0.6,0.3,0.9c0,0.8-0.5,1.4-1.2,1.4L123.4,69.3z
						 M125.9,61.8c0.1,0,0.3,0.1,0.4,0.1c0.1,0.1,0.1,0.2,0.1,0.4v4.6c0,0.1-0.1,0.3-0.1,0.4c-0.1,0.1-0.2,0.1-0.4,0.1h-2.6
						c-0.1,0-0.1,0-0.1,0s-0.1,0.2-0.1,0.4c0,0.2,0,0.4,0.2,0.4l21.4-0.1c0.2,0,0.2-0.4,0.2-0.4c0-0.2,0-0.3-0.1-0.3
						c0,0,0-0.1-0.1-0.1l0,0h-2.5l0,0c-0.3,0-0.5-0.2-0.5-0.5v-4.6c0-0.1,0.1-0.3,0.1-0.4c0.1-0.1,0.2-0.1,0.4-0.1h3.1
						c0.2,0,0.2-0.3,0.2-0.4c0-0.4-0.2-0.4-0.2-0.4h-3.1l0,0c-0.3,0-0.5-0.2-0.5-0.5v-4.5c0-0.1,0.1-0.3,0.1-0.4
						c0.1-0.1,0.2-0.1,0.4-0.1h2.2c0.1,0,0.2,0,0.2-0.4s-0.1-0.4-0.2-0.4h-13.8c-0.9,0-1.9,0-2.8,0.1c-0.2,0-0.4-0.1-0.5-0.3
						s-0.1-0.4,0.1-0.5c0.4-0.5,0.9-1.1,1.2-1.7c0.1-0.1,0.1-0.2,0.1-0.2c0-0.1-0.1-0.2-0.3-0.3s-0.3-0.1-0.4-0.1
						c-0.2,0-0.3,0.1-0.4,0.2c-1.2,2.4-2.8,4.5-4.7,5.9c-0.2,0.1-0.3,0.3-0.3,0.4c0,0.1,0,0.2,0.1,0.3s0.2,0.1,0.3,0.2
						c0.1,0,0.3-0.1,0.4-0.2c0.8-0.8,1.5-1.4,2.1-2.1c0.1-0.2,0.4-0.2,0.6-0.1c0.2,0.1,0.3,0.3,0.3,0.5c-0.1,0.7-0.2,1.5-0.2,2.1
						l0,0v1.6c0,0.3-0.2,0.5-0.5,0.5h-3.2c-0.1,0-0.1,0-0.1,0c-0.1,0.1-0.1,0.2-0.1,0.4s0.1,0.3,0.1,0.4c0,0,0,0,0.1,0L125.9,61.8
						L125.9,61.8z M127.8,67.4c-0.1,0-0.3-0.1-0.4-0.1c-0.1-0.1-0.1-0.2-0.1-0.4v-4.6c0-0.3,0.2-0.5,0.5-0.5h3
						c0.1,0,0.3,0.1,0.4,0.1c0.1,0.1,0.1,0.2,0.1,0.4v4.6c0,0.3-0.2,0.5-0.5,0.5H127.8L127.8,67.4z M128.3,62.8v3.6h2v-3.6
						L128.3,62.8z M132.6,67.4c-0.1,0-0.3-0.1-0.4-0.1c-0.1-0.1-0.1-0.2-0.1-0.4v-4.6c0-0.3,0.2-0.5,0.5-0.5h3l0,0
						c0.1,0,0.3,0.1,0.4,0.1c0.1,0.1,0.1,0.2,0.1,0.4v4.6c0,0.3-0.2,0.5-0.5,0.5H132.6L132.6,67.4z M133.1,62.8v3.6h2v-3.6
						L133.1,62.8z M137.4,67.4c-0.3,0-0.5-0.2-0.5-0.5v-4.6c0-0.3,0.2-0.5,0.5-0.5h3.1l0,0c0.1,0,0.3,0.1,0.4,0.1
						c0.1,0.1,0.1,0.2,0.1,0.4v4.6c0,0.1-0.1,0.3-0.1,0.4c-0.1,0.1-0.2,0.1-0.4,0.1H137.4L137.4,67.4z M137.9,62.8v3.6h2.1v-3.6
						L137.9,62.8z M127.8,61c-0.3,0-0.5-0.2-0.5-0.5V56c0-0.1,0.1-0.3,0.1-0.4c0.1-0.1,0.2-0.1,0.4-0.1h3l0,0c0.3,0,0.5,0.2,0.5,0.5
						v4.5c0,0.1-0.1,0.3-0.1,0.4c-0.1,0.1-0.2,0.1-0.4,0.1H127.8L127.8,61z M128.2,56.5V60h2v-3.5H128.2z M132.6,61
						c-0.1,0-0.3-0.1-0.4-0.1c-0.1-0.1-0.1-0.2-0.1-0.4V56c0-0.1,0.1-0.3,0.1-0.4c0.1-0.1,0.2-0.1,0.4-0.1h3l0,0
						c0.3,0,0.5,0.2,0.5,0.5v4.5c0,0.1-0.1,0.3-0.1,0.4c-0.1,0.1-0.2,0.1-0.4,0.1H132.6L132.6,61z M133,56.5V60h2v-3.5H133z
						 M137.4,61c-0.1,0-0.3-0.1-0.4-0.1c-0.1-0.1-0.1-0.2-0.1-0.4V56c0-0.1,0.1-0.3,0.1-0.4c0.1-0.1,0.2-0.1,0.4-0.1h3.1l0,0
						c0.3,0,0.5,0.2,0.5,0.5v4.5c0,0.3-0.2,0.5-0.5,0.5H137.4L137.4,61z M137.8,56.5V60h2.1v-3.5H137.8z"/>
				</g>
				<g>
					<path class="st13" d="M156.6,64.8c0.3,0,0.5,0.1,0.7,0.4c0.7,1.2,1.3,2.7,1.7,3.9c0,0.1,0,0.2,0.1,0.3c0,0.4-0.1,0.6-0.5,0.8
						c-0.1,0-0.2,0.1-0.3,0.1c-0.3,0-0.6-0.1-0.7-0.5c-0.4-1.2-1-2.7-1.7-3.8c0-0.1-0.1-0.2-0.1-0.3c0-0.3,0.1-0.6,0.4-0.7
						C156.3,64.9,156.5,64.8,156.6,64.8z M156.9,73c-0.4,0-0.7-0.2-0.7-0.7c-0.1-0.5,0.1-0.8,0.6-0.9l3.4-0.4l-0.8-7.5
						c0-0.4,0.2-0.7,0.8-0.8c0.5-0.1,0.9,0.1,0.9,0.6l0.8,7.5l2.6-0.3c0.4,0,0.7,0.3,0.7,0.7c0.1,0.5-0.2,0.8-0.6,0.9l-2.4,0.3
						c1.1,1.6,2.3,2.9,3.5,3.8c0.2,0.1,0.3,0.3,0.3,0.6c0,0.2,0,0.4-0.2,0.6c-0.1,0.2-0.3,0.3-0.6,0.3c-0.2,0-0.4,0-0.6-0.2
						c-1.1-0.9-2.2-2.5-2.8-3.7c0.2,1,0.5,2.3,0.6,3.1l0.7,6.9c0,0.4-0.2,0.7-0.8,0.8c-0.5,0.1-0.9-0.1-0.9-0.6l-0.6-5.8
						c-0.1-1.2-0.1-2.8-0.1-4.1c-0.3,2.2-1.4,4.9-2.5,6.6c-0.1,0.2-0.4,0.4-0.6,0.4c-0.2,0-0.4,0-0.6-0.2c-0.2-0.2-0.4-0.4-0.4-0.6
						s0-0.4,0.2-0.6c1.4-1.9,2.5-4.5,3.1-7.3L156.9,73z M164.9,64.5c0,0.1,0,0.1,0,0.2c-0.1,1.3-0.6,3.1-1.1,4.4
						c-0.1,0.3-0.4,0.5-0.6,0.5c-0.1,0-0.2,0-0.3,0c-0.3-0.1-0.5-0.4-0.5-0.7c0-0.1,0-0.2,0-0.3c0.4-1.1,0.8-3,1-4.2
						c0-0.3,0.3-0.5,0.7-0.5c0.1,0,0.2,0,0.3,0C164.6,64,164.9,64.2,164.9,64.5z M177.5,74.2c0,0,0.1,0,0.2,0c0.4,0,0.6,0.2,0.8,0.6
						c0,0.1,0,0.2,0.1,0.3c0,0.4-0.1,0.7-0.4,0.8l-2.3,0.8l0.6,5.9c0,0.4-0.3,0.7-0.8,0.8c-0.5,0.1-0.9-0.1-0.9-0.6l-0.6-5.5
						l-7.6,2.7c0,0-0.1,0-0.2,0c-0.4,0-0.7-0.2-0.8-0.6c0-0.1,0-0.1,0-0.2c0-0.4,0.1-0.8,0.5-0.9l7.9-2.8l-1.4-13.3
						c0-0.5,0.3-0.7,0.8-0.8c0.6-0.1,0.9,0.1,1,0.6l1.4,12.9L177.5,74.2z M171.3,72.9c0.2,0.1,0.3,0.4,0.3,0.6s0,0.4-0.1,0.6
						c-0.2,0.2-0.4,0.3-0.7,0.4c-0.2,0-0.5,0-0.6-0.2c-1-0.9-2.5-1.9-3.6-2.5c-0.2-0.1-0.3-0.3-0.4-0.6c0-0.2,0-0.4,0.2-0.6
						c0.1-0.2,0.4-0.3,0.6-0.3c0.2,0,0.4,0,0.6,0.1C168.7,70.9,170.2,71.9,171.3,72.9z M171.4,66.7c0.2,0.2,0.3,0.4,0.3,0.7
						c0,0.2,0,0.5-0.2,0.6c-0.2,0.2-0.4,0.3-0.6,0.3c-0.3,0-0.5,0-0.7-0.2c-1.1-0.9-2.5-1.9-3.7-2.6c-0.2-0.1-0.3-0.3-0.3-0.5
						s0-0.4,0.2-0.6s0.4-0.3,0.7-0.4c0.2,0,0.4,0,0.6,0.1C168.7,64.7,170.3,65.8,171.4,66.7z"/>
					<path class="st13" d="M162.3,85.3c-0.3,0-0.5-0.1-0.7-0.2c-0.3-0.2-0.5-0.5-0.5-0.8l-0.6-5.8c0-0.2,0-0.3,0-0.5
						c-0.5,1.2-1,2.4-1.7,3.3c-0.2,0.3-0.6,0.6-1,0.6c-0.3,0-0.6,0-0.9-0.2c-0.4-0.3-0.6-0.6-0.6-1s0.1-0.7,0.3-1
						c1.2-1.7,2.3-4,2.9-6.4l-2.4,0.3c-0.3,0-0.6,0-0.8-0.2c-0.3-0.2-0.4-0.5-0.5-0.9c-0.1-0.8,0.3-1.3,1-1.4l2.9-0.3l-0.1-0.9
						c-0.1,0.4-0.4,0.8-0.8,0.9c-0.2,0.1-0.3,0.1-0.5,0.1c-0.6,0.1-1-0.2-1.2-0.8c-0.5-1.5-1.1-2.8-1.6-3.7v-0.1
						c0-0.1-0.1-0.2-0.1-0.4c-0.1-0.5,0.2-1,0.7-1.2c0.2-0.1,0.4-0.1,0.5-0.2l0,0c0.5-0.1,0.9,0.2,1.2,0.6c0.8,1.4,1.4,3.1,1.7,4
						l-0.6-5.3c0-0.3,0-0.6,0.2-0.8c0.1-0.2,0.4-0.4,1-0.5c0.4,0,0.7,0,1,0.2s0.5,0.5,0.5,0.8l0.5,4.7c0.4-1.1,0.7-2.7,0.8-3.6
						c0.1-0.5,0.5-0.9,1.1-1c0.1,0,0.2,0,0.4,0c0.6,0.1,1,0.5,1.1,1c0,0.1,0,0.2,0,0.4c-0.1,1.3-0.6,3.2-1.1,4.5
						c-0.2,0.5-0.5,0.8-0.9,0.8l1.1-0.1c0.4,0,0.7,0.1,0.9,0.3c0.1,0.1,0.2,0.3,0.3,0.5c0-0.2,0.1-0.4,0.2-0.7
						c0.3-0.3,0.6-0.5,1-0.6c0.2,0,0.5,0,0.9,0.1c1.3,0.7,2.8,1.7,3.9,2.7l0,0c0.2,0.2,0.4,0.6,0.4,0.9s0,0.7-0.2,0.9
						c-0.3,0.3-0.6,0.5-1,0.6c-0.4,0-0.8-0.1-1-0.3c-0.9-0.8-2.4-1.8-3.5-2.5c-0.2-0.1-0.4-0.3-0.5-0.6c0,0.6-0.4,1.1-1,1.1
						l-1.6,0.2c1,1.4,2.1,2.4,3,3c0.3,0.2,0.5,0.6,0.5,0.9s0,0.5-0.2,0.8l6.9-2.4l-1.4-12.9c-0.1-0.7,0.4-1.2,1.2-1.3
						c1-0.1,1.5,0.4,1.5,1l1.3,12.3l1.3-0.4c0.1-0.1,0.2-0.1,0.3-0.1c0.6-0.1,1.1,0.3,1.3,0.9c0,0.1,0.1,0.3,0.1,0.4
						c0.1,0.7-0.3,1.2-0.8,1.3l-1.9,0.7l0.6,5.5c0.1,0.6-0.2,1.2-1.3,1.3c-0.4,0-0.8,0-1.1-0.3c-0.2-0.2-0.4-0.4-0.4-0.8l-0.5-4.9
						l-6.9,2.4c-0.1,0.1-0.2,0.1-0.3,0.1c-0.6,0.1-1.2-0.3-1.4-1c0-0.1-0.1-0.2-0.1-0.3c0-0.3,0-0.6,0.2-0.9c-0.2,0-0.5-0.1-0.7-0.3
						c-0.5-0.5-1-1-1.5-1.6c0,0.2,0.1,0.4,0.1,0.6l0.7,6.9c0,0.4-0.1,0.7-0.3,0.9c-0.2,0.2-0.5,0.3-0.9,0.4
						C162.5,85.3,162.4,85.3,162.3,85.3z M160.9,73.9L160.9,73.9c0.3,0,0.5,0.2,0.5,0.5c0,1.4,0,2.9,0.1,4l0.6,5.8
						c0,0.1,0,0.1,0,0.1s0.1,0.1,0.3,0c0.2,0,0.3-0.1,0.3-0.1s0,0,0-0.1l-0.7-6.9c-0.1-0.8-0.3-2-0.6-3.1c-0.1-0.2,0.1-0.5,0.3-0.6
						s0.5,0,0.6,0.2c0.6,1.1,1.6,2.6,2.7,3.5c0.1,0.1,0.1,0.1,0.2,0.1c0.1,0,0.2-0.1,0.2-0.1c0.1-0.1,0.1-0.2,0.1-0.3
						c0-0.1-0.1-0.2-0.1-0.2c-1-0.8-2.4-2.1-3.6-4c-0.1-0.1-0.1-0.3,0-0.5s0.2-0.3,0.4-0.3l2.4-0.3c0.1,0,0.2,0,0.1-0.3
						c0-0.2-0.1-0.2-0.1-0.3c0,0,0,0-0.1,0l-2.6,0.3c-0.1,0-0.3,0-0.4-0.1c-0.1-0.1-0.2-0.2-0.2-0.3l-0.8-7.5c0-0.1,0-0.1,0-0.1
						s-0.2-0.1-0.3,0c-0.2,0-0.3,0.1-0.3,0.1l0.8,7.6c0,0.1,0,0.3-0.1,0.4s-0.2,0.2-0.3,0.2l-3.4,0.4c0,0-0.1,0-0.1,0.3
						c0,0.2,0.1,0.2,0.1,0.3l0,0h0.1l0,0l3.1-0.3c0.2,0,0.3,0,0.4,0.2c0.1,0.1,0.2,0.3,0.1,0.4c-0.6,2.8-1.7,5.4-3.2,7.5
						c-0.1,0.1-0.1,0.2-0.1,0.3c0,0.1,0.1,0.2,0.2,0.3c0,0,0.1,0.1,0.2,0c0.1,0,0.2-0.1,0.3-0.2c1.1-1.6,2.1-4.3,2.5-6.4
						C160.4,74,160.6,73.9,160.9,73.9z M174,76.8c0.1,0,0.2,0,0.3,0.1s0.2,0.2,0.2,0.4l0.6,5.5c0.1,0.1,0.2,0.1,0.4,0.1
						c0.4,0,0.4-0.2,0.4-0.2l-0.6-5.9c0-0.2,0.1-0.4,0.3-0.5l2.3-0.8c0.1,0,0.1-0.2,0.1-0.3v-0.1c0-0.1-0.1-0.3-0.3-0.3l0,0l0,0
						l-1.9,0.7c-0.1,0-0.3,0-0.4-0.1c-0.1-0.1-0.2-0.2-0.2-0.4l-1.4-12.9c0,0,0-0.2-0.4-0.1c-0.4,0-0.4,0.2-0.4,0.2l1.4,13.3
						c0,0.2-0.1,0.4-0.3,0.5l-7.9,2.8c-0.1,0-0.2,0.2-0.1,0.3c0,0,0,0.1,0,0.2c0,0.2,0.1,0.3,0.3,0.2l0,0l0,0l0,0L174,76.8
						C173.9,76.8,174,76.8,174,76.8z M166.2,79.5L166.2,79.5L166.2,79.5z M177.5,74.2L177.5,74.2L177.5,74.2z M167,70.6L167,70.6
						c-0.2,0-0.3,0.1-0.3,0.1c0,0.1-0.1,0.2-0.1,0.3c0,0.1,0,0.1,0.1,0.2c1.3,0.7,2.8,1.7,3.7,2.6c0.1,0,0.1,0.1,0.3,0.1
						c0.1,0,0.2-0.1,0.3-0.2c0,0,0.1-0.1,0-0.2c0-0.1-0.1-0.2-0.1-0.3c-1-0.9-2.5-1.9-3.7-2.5C167.2,70.7,167.1,70.6,167,70.6z
						 M162.3,69.9v0.4l0.9-0.1c-0.2,0-0.3,0-0.5-0.1C162.5,70.1,162.4,70,162.3,69.9z M156.6,65.3L156.6,65.3L156.6,65.3
						c-0.1,0-0.1,0-0.2,0.1c-0.1,0.1-0.1,0.1-0.1,0.2v0.1c0.8,1.3,1.4,3.1,1.7,3.8c0.1,0.2,0.1,0.1,0.2,0.1c0,0,0.1,0,0.2-0.1
						c0.2-0.1,0.2-0.1,0.1-0.2v-0.1c-0.3-0.9-0.9-2.5-1.6-3.8C156.8,65.4,156.7,65.3,156.6,65.3z M163,69.2h0.1l0,0
						c0,0,0.1,0,0.2-0.2c0.5-1.2,0.9-3.1,1-4.3v-0.1c0-0.1,0-0.1-0.2-0.2H164c0,0-0.2,0-0.2,0.1c-0.1,1.2-0.5,3.1-1,4.3
						c0,0.1,0,0.1,0,0.1C162.9,69.1,162.9,69.2,163,69.2L163,69.2z M156.6,64.8L156.6,64.8L156.6,64.8z M170.9,68.9
						c-0.4,0-0.7-0.1-1-0.4c-1-0.9-2.4-1.8-3.6-2.5c-0.3-0.2-0.6-0.5-0.6-0.9c0-0.3,0.1-0.7,0.3-1c0.3-0.3,0.6-0.5,1-0.6
						c0.3,0,0.6,0,0.9,0.2c1.1,0.6,2.8,1.7,3.9,2.6l0,0c0.3,0.2,0.5,0.6,0.5,1s-0.1,0.7-0.3,1C171.7,68.6,171.4,68.8,170.9,68.9
						C171,68.9,170.9,68.9,170.9,68.9z M167.1,64.5L167.1,64.5c-0.2,0-0.3,0.1-0.4,0.2c0,0.1-0.1,0.2-0.1,0.3c0,0.1,0,0.1,0.1,0.1
						c1.3,0.7,2.8,1.7,3.8,2.7c0.1,0.1,0.3,0.1,0.4,0.1c0.1,0,0.2-0.1,0.3-0.2c0,0,0.1-0.1,0-0.2c0-0.1-0.1-0.3-0.2-0.4
						c-1.1-0.9-2.7-2-3.7-2.5C167.3,64.5,167.2,64.5,167.1,64.5z"/>
				</g>
			</g>
			<g>
				<g>
					<path class="st2" d="M57.6,54.9c0.2,0.2,0.3,0.5,0.3,0.7c0,0.4-0.1,0.7-0.4,1C57.2,56.8,57,57,56.7,57s-0.7-0.1-1-0.4
						c-1.4-1.6-3-3-4.2-3.9c-0.3-0.2-0.5-0.5-0.6-0.9c0-0.3,0.1-0.6,0.3-0.9c0.3-0.3,0.5-0.4,0.8-0.5c0.3,0,0.5,0.1,0.8,0.2
						C54.6,52,56.6,53.8,57.6,54.9z M59.4,71.6c1.3,1.8,2.7,2.5,4.4,2.7c1.5,0.1,3.5,0,6.1-0.3c3.9-0.5,8-1.1,11.1-1.8
						c0.1,0,0.1,0,0.2,0c0.7-0.1,1.1,0.3,1.3,1v0.1c0.1,0.7-0.3,1.2-1,1.3c-3.2,0.5-7.7,1.2-11.4,1.7c-2.8,0.4-5.2,0.5-6.8,0.2
						c-1.9-0.3-3.6-1.2-4.9-2.9c-1,1.6-2.2,3.1-3.4,4.4c-0.2,0.2-0.4,0.3-0.6,0.3c-0.3,0-0.7-0.1-1-0.4c-0.2-0.2-0.3-0.5-0.4-0.8
						c0-0.3,0.1-0.7,0.3-0.9c1.1-1,2.5-2.6,3.7-4.3L56.1,65c-0.1-0.6-0.3-0.7-0.9-0.7l-2.8,0.4c-0.5,0.1-1-0.3-1-1
						c-0.1-0.7,0.2-1.1,0.8-1.2l3.6-0.5c1.6-0.2,2.4,0.6,2.6,2.2L59.4,71.6z M71.2,62.4c2,3.1,5.3,5,8.8,5.8c0.5,0.1,0.9,0.5,0.9,1
						c0,0.2,0,0.4,0,0.6c-0.1,0.6-0.6,0.9-1.1,1c-0.2,0-0.3,0-0.5,0c-3.8-0.9-7.3-3.2-9.6-6.9c-0.8,3.4-2.7,6-6,8.5
						c-0.2,0.1-0.4,0.2-0.6,0.2c-0.4,0.1-0.8-0.1-1.2-0.6c-0.1-0.2-0.2-0.4-0.2-0.5c-0.1-0.4,0.2-0.9,0.6-1.1
						c3.2-2.1,4.9-4.4,5.4-7.5L61,63.6c-0.6,0.1-0.9-0.3-1-1s0.2-1.1,0.7-1.2l7.1-0.9c0-1.6-0.1-3.1-0.3-4.7L61,56.7
						c-0.6,0.1-0.9-0.3-1-1s0.2-1.1,0.7-1.1l9.2-1.2c0.9-1.7,1.6-3.8,2-5.2c0.1-0.5,0.4-0.8,0.9-0.9c0.2,0,0.3,0,0.5,0
						c0.6,0.1,0.9,0.5,1,0.9c0,0.1,0,0.3,0,0.4c-0.4,1.4-1.1,3-1.8,4.5l4.8-0.6c0.6-0.1,0.9,0.3,1,0.9c0.1,0.6-0.2,1.1-0.7,1.2
						l-7.8,1c0.2,1.6,0.3,3.1,0.3,4.7l8.9-1.1c0.6-0.1,0.9,0.3,1,1c0.1,0.6-0.2,1.1-0.7,1.2L71.2,62.4z M62.1,50.3
						c-0.2-0.2-0.3-0.4-0.3-0.6c0-0.3,0.1-0.7,0.5-1c0.2-0.1,0.4-0.2,0.6-0.2c0.4,0,0.7,0.1,1,0.4c0.7,0.7,1.6,1.7,2.1,2.6
						c0.2,0.2,0.2,0.4,0.3,0.7c0.1,0.4-0.1,0.7-0.5,1c-0.2,0.1-0.4,0.2-0.6,0.2c-0.4,0.1-0.9-0.1-1.1-0.5
						C63.7,52.2,62.8,51.1,62.1,50.3z"/>
					<path class="st2" d="M54.2,78.7c-0.4,0-0.9-0.2-1.2-0.5s-0.5-0.7-0.5-1.1c-0.1-0.5,0.1-1.1,0.5-1.4c1.2-1.1,2.5-2.6,3.5-4.1
						L55.6,65c0-0.2,0-0.2-0.1-0.2c0,0-0.1,0-0.3,0l-2.8,0.4c-0.4,0-0.7,0-1-0.3c-0.3-0.2-0.5-0.6-0.6-1.1c-0.1-1.1,0.5-1.7,1.2-1.8
						l3.6-0.5c1.9-0.2,2.9,0.7,3.2,2.7l0.9,7.2c1.1,1.5,2.4,2.2,4,2.4c1.4,0.1,3.3,0,6-0.3c4.2-0.5,8.2-1.2,11.1-1.8H81
						c0.6-0.1,1.5,0,1.8,1.4v0.1c0.1,1-0.4,1.7-1.4,1.9c-1.5,0.3-6.8,1.1-11.4,1.7c-3.1,0.4-5.4,0.5-6.9,0.2
						c-1.9-0.3-3.5-1.2-4.7-2.6c-0.9,1.4-2,2.8-3.1,3.9c-0.3,0.3-0.6,0.4-0.9,0.4C54.3,78.7,54.3,78.7,54.2,78.7z M55.5,63.8
						c0.7,0,1,0.4,1.1,1.1l0.9,6.9c0,0.1,0,0.2-0.1,0.3c-1.1,1.6-2.5,3.3-3.8,4.4c-0.1,0.1-0.2,0.3-0.2,0.5s0.1,0.4,0.2,0.5
						c0.2,0.2,0.4,0.2,0.6,0.2c0.1,0,0.3-0.1,0.4-0.2c1.1-1.2,2.3-2.6,3.3-4.2c0.1-0.1,0.2-0.2,0.4-0.2s0.3,0.1,0.4,0.2
						c1.1,1.5,2.7,2.4,4.5,2.7c1.4,0.2,3.7,0.1,6.7-0.2c4.7-0.6,9.9-1.4,11.4-1.7c0.6-0.1,0.7-0.5,0.6-0.8c-0.1-0.7-0.4-0.7-0.7-0.7
						H81c-2.9,0.6-6.9,1.3-11.1,1.8c-2.7,0.3-4.7,0.4-6.2,0.3c-2-0.2-3.5-1.1-4.8-2.9c0-0.1-0.1-0.1-0.1-0.2L58,64.3
						c-0.2-1.5-0.8-2-2.1-1.8L52.2,63c-0.1,0-0.4,0.1-0.3,0.7c0,0.2,0.1,0.4,0.2,0.5c0.1,0.1,0.2,0.1,0.3,0.1l2.8-0.4
						C55.3,63.8,55.4,63.8,55.5,63.8z M62.9,73.1c-0.5,0-1-0.3-1.4-0.8c-0.2-0.2-0.3-0.5-0.3-0.8c-0.1-0.6,0.2-1.3,0.8-1.6
						c2.8-1.9,4.4-3.9,5.1-6.5l-5.9,0.7c-0.4,0-0.7,0-1-0.3c-0.3-0.2-0.5-0.6-0.6-1.1s0-1,0.3-1.3c0.2-0.3,0.5-0.4,0.9-0.5l6.7-0.8
						c0-1.1-0.1-2.3-0.2-3.7l-6.1,0.8c-0.4,0-0.7,0-1-0.3c-0.3-0.2-0.5-0.6-0.6-1.1c-0.1-0.4,0-0.8,0.2-1.1c0.1-0.2,0.4-0.5,1-0.6
						l3.6-0.4c-0.2-0.1-0.4-0.3-0.5-0.5c-0.4-0.7-1.2-1.7-1.9-2.5c-0.2-0.2-0.4-0.5-0.4-0.9c-0.1-0.5,0.2-1.1,0.7-1.4
						c0.3-0.2,0.6-0.3,0.9-0.3c0.6-0.1,1.1,0.1,1.4,0.5c0.5,0.6,1.5,1.7,2.1,2.7c0.2,0.3,0.3,0.6,0.3,0.9c0.1,0.5-0.1,1-0.5,1.3
						l3.3-0.4c0.7-1.3,1.3-3,1.9-4.9c0.3-1,0.9-1.2,1.3-1.3c0.2,0,0.5,0,0.7,0c0.8,0.2,1.3,0.6,1.4,1.3c0,0.2,0,0.4-0.1,0.6
						c-0.3,1.1-0.8,2.4-1.4,3.8l3.9-0.5c0.4,0,0.7,0,1,0.2c0.2,0.2,0.5,0.5,0.6,1.1c0.1,0.5,0,0.9-0.3,1.2c-0.2,0.3-0.5,0.4-0.9,0.5
						L70.4,56c0.1,1.3,0.2,2.5,0.2,3.7l8.4-1.1c0.4,0,0.8,0.1,1.1,0.4c0.3,0.3,0.4,0.6,0.5,1.1c0.1,0.9-0.4,1.6-1.2,1.7l-7.3,0.9
						c1.8,2.4,4.6,4.2,8.1,5c0.7,0.1,1.2,0.7,1.3,1.4c0,0.2,0,0.5-0.1,0.8c-0.2,0.7-0.7,1.2-1.5,1.3c-0.2,0-0.5,0-0.7,0
						c-3.8-0.9-7-3.1-9.3-6.2c-0.9,3-2.8,5.5-6,7.7C63.6,72.9,63.3,73,62.9,73.1C63,73.1,62.9,73.1,62.9,73.1z M67.6,62.3
						c0.1,0,0.3,0.1,0.4,0.2c0.1,0.1,0.2,0.3,0.1,0.4c-0.6,3.2-2.3,5.7-5.6,7.9c-0.2,0.1-0.4,0.4-0.3,0.6c0,0.1,0,0.2,0.1,0.3
						c0.2,0.2,0.4,0.4,0.7,0.4c0.1,0,0.3-0.1,0.4-0.2c3.3-2.4,5.1-4.9,5.8-8.2c0-0.2,0.2-0.3,0.4-0.4c0.2,0,0.4,0.1,0.5,0.2
						c2.1,3.4,5.4,5.7,9.3,6.6c0.1,0,0.3,0,0.4,0c0.3,0,0.6-0.2,0.6-0.6c0.1-0.2,0.1-0.3,0-0.4c0-0.3-0.2-0.5-0.5-0.5
						c-4-0.9-7.3-3.1-9.1-6.1c-0.1-0.1-0.1-0.3,0-0.5s0.2-0.3,0.4-0.3l8.1-1c0.3,0,0.4-0.2,0.3-0.6c0-0.2-0.1-0.4-0.2-0.5
						c0,0-0.1-0.1-0.3-0.1l-8.9,1.1c-0.1,0-0.3,0-0.4-0.1s-0.2-0.2-0.2-0.4c0-1.5-0.1-3-0.3-4.6c0-0.3,0.2-0.5,0.4-0.6l7.8-1
						c0.1,0,0.2-0.1,0.2-0.1c0.1-0.1,0.1-0.3,0.1-0.5s-0.1-0.4-0.2-0.4c0,0-0.1-0.1-0.3,0l-4.8,0.6c-0.2,0-0.4-0.1-0.5-0.2
						c-0.1-0.1-0.1-0.3,0-0.5c0.7-1.5,1.4-3.2,1.8-4.5c0-0.1,0-0.1,0-0.2c0-0.3-0.4-0.4-0.6-0.4c-0.1,0-0.3,0-0.4,0s-0.4,0-0.5,0.5
						c-0.6,2.1-1.3,3.9-2.1,5.3c-0.1,0.1-0.2,0.2-0.4,0.3L60.6,55c-0.2,0-0.2,0.1-0.3,0.1c-0.1,0.1-0.1,0.3-0.1,0.5s0.1,0.4,0.2,0.5
						c0,0,0.1,0.1,0.2,0.1l6.6-0.8c0.1,0,0.3,0,0.4,0.1s0.2,0.2,0.2,0.3c0.2,1.9,0.3,3.4,0.3,4.8c0,0.2-0.2,0.5-0.4,0.5L60.8,62
						c-0.1,0-0.2,0.1-0.2,0.1c-0.1,0.1-0.1,0.3-0.1,0.5s0.1,0.4,0.2,0.5c0,0,0.1,0.1,0.2,0.1L67.6,62.3L67.6,62.3z M63.1,49L63.1,49
						c-0.2,0-0.4,0.1-0.5,0.2c-0.3,0.2-0.3,0.4-0.2,0.5c0,0,0,0.2,0.1,0.3l0,0c0.7,0.8,1.6,1.9,2,2.6c0.1,0.2,0.3,0.3,0.6,0.3
						c0.1,0,0.3-0.1,0.4-0.2c0.2-0.1,0.2-0.3,0.2-0.5c0-0.1-0.1-0.3-0.2-0.5c-0.6-1-1.6-2.1-2-2.5C63.5,49.1,63.3,49,63.1,49z
						 M56.7,57.6c-0.4,0-0.9-0.2-1.2-0.6c-1.3-1.5-2.9-3-4.1-3.8c-0.4-0.3-0.7-0.8-0.8-1.2c0-0.3,0-0.8,0.4-1.3
						c0.3-0.4,0.7-0.6,1.1-0.7c0.4-0.1,0.8,0.1,1.2,0.3c1.5,1,3.4,2.8,4.7,4.1l0,0c0.2,0.3,0.4,0.7,0.5,1c0.1,0.5-0.1,1-0.5,1.4
						s-0.8,0.5-1.1,0.6C56.8,57.6,56.7,57.6,56.7,57.6z M52.3,51.1L52.3,51.1c-0.2,0-0.4,0.1-0.6,0.3c-0.1,0.2-0.2,0.3-0.2,0.5
						s0.2,0.4,0.4,0.5c1.3,0.9,2.9,2.4,4.3,3.9c0.2,0.2,0.4,0.2,0.5,0.2c0.2,0,0.3-0.1,0.5-0.3c0.2-0.3,0.2-0.5,0.2-0.6
						s-0.1-0.3-0.2-0.5c-1.2-1.3-3-3-4.5-4C52.6,51.2,52.4,51.1,52.3,51.1z"/>
				</g>
				<g>
					<path class="st2" d="M91.6,69c-0.4,0-0.6-0.3-0.5-0.7c0-0.4,0.2-0.7,0.6-0.7l3,0.2l0.4-6.7c0-0.4,0.3-0.6,0.8-0.5
						c0.5,0,0.7,0.3,0.7,0.6l-0.4,6.7l2.3,0.2c0.4,0,0.6,0.3,0.5,0.8c0,0.4-0.3,0.7-0.6,0.7l-2.2-0.1c0.7,1.5,1.6,2.9,2.5,3.9
						c0.1,0.2,0.2,0.4,0.2,0.5c0,0.2-0.1,0.4-0.3,0.5c-0.1,0.2-0.3,0.2-0.5,0.2s-0.3-0.1-0.5-0.2c-0.8-1-1.5-2.5-1.9-3.6
						c0.1,0.9,0.1,2.1,0,2.8l-0.4,6.2c0,0.4-0.3,0.6-0.8,0.5c-0.4,0-0.7-0.3-0.7-0.6l0.3-5.2c0.1-1.1,0.3-2.4,0.6-3.6
						c-0.6,1.9-2,4.1-3.2,5.4c-0.2,0.2-0.4,0.3-0.6,0.3s-0.3-0.1-0.5-0.2c-0.2-0.2-0.2-0.4-0.2-0.6s0.1-0.4,0.3-0.5
						c1.5-1.5,2.9-3.6,3.8-5.9L91.6,69z M92.5,61.8c0.3,0,0.5,0.2,0.6,0.4c0.4,1.2,0.7,2.6,0.9,3.7c0,0.1,0,0.2,0,0.2
						c0,0.3-0.2,0.5-0.5,0.6c-0.1,0-0.2,0-0.3,0c-0.3,0-0.5-0.2-0.5-0.5c-0.2-1.1-0.5-2.5-0.9-3.6c0-0.1,0-0.2,0-0.3
						c0-0.3,0.2-0.5,0.5-0.6C92.3,61.8,92.4,61.7,92.5,61.8z M99.8,62.8c0,0.1,0,0.1,0,0.2c-0.3,1.1-1,2.7-1.6,3.7
						c-0.2,0.3-0.4,0.4-0.6,0.4c-0.1,0-0.2,0-0.3-0.1c-0.3-0.1-0.4-0.4-0.4-0.7c0-0.1,0-0.2,0.1-0.3c0.5-0.9,1.2-2.5,1.5-3.5
						c0.1-0.3,0.4-0.4,0.7-0.4c0.1,0,0.1,0,0.2,0C99.7,62.3,99.9,62.5,99.8,62.8z M109.4,73.2L109.4,73.2c0.4,0,0.6,0.3,0.7,0.7
						c0,0.1,0,0.2,0,0.2c0,0.3-0.2,0.6-0.5,0.6l-2.1,0.3l-0.4,5.3c0,0.4-0.4,0.6-0.9,0.5c-0.5,0-0.8-0.2-0.7-0.6l0.3-4.9l-7,1.2
						h-0.1c-0.3,0-0.6-0.3-0.6-0.7c0-0.1,0-0.1,0-0.2c0-0.4,0.2-0.6,0.6-0.7l7.4-1.2l0.8-11.9c0-0.4,0.4-0.6,0.8-0.5
						c0.5,0,0.8,0.2,0.8,0.6l-0.8,11.5L109.4,73.2z M104.2,71.1c0.1,0.2,0.2,0.4,0.2,0.6s-0.1,0.4-0.2,0.5c-0.2,0.2-0.4,0.2-0.6,0.2
						s-0.4-0.1-0.5-0.3c-0.7-0.9-1.9-2.1-2.8-2.8c-0.2-0.1-0.3-0.3-0.2-0.5c0-0.2,0.1-0.4,0.2-0.5c0.2-0.1,0.4-0.2,0.6-0.2
						s0.4,0.1,0.5,0.2C102.2,68.9,103.4,70.1,104.2,71.1z M105.2,65.7c0.1,0.2,0.2,0.4,0.2,0.6s-0.1,0.4-0.2,0.5
						c-0.2,0.1-0.4,0.2-0.6,0.2s-0.5-0.1-0.6-0.3c-0.8-1-1.9-2.1-2.8-2.8c-0.2-0.1-0.2-0.3-0.2-0.5s0.1-0.4,0.2-0.5
						c0.2-0.2,0.4-0.2,0.6-0.2s0.4,0.1,0.5,0.2C103.1,63.5,104.4,64.7,105.2,65.7z"/>
					<path class="st2" d="M106.4,81.4c0,0-0.1,0-0.2,0c-0.3,0-0.6-0.1-0.8-0.3c-0.3-0.2-0.4-0.5-0.4-0.9l0.3-4.3l-6.4,1
						c-0.1,0-0.2,0-0.3,0c-0.6,0-1-0.5-1.1-1.1c0-0.1,0-0.2,0-0.3c0-0.3,0.1-0.5,0.2-0.7c-0.2-0.1-0.4-0.2-0.5-0.4
						c-0.4-0.4-0.7-0.9-1-1.4c0,0.1,0,0.2,0,0.3l-0.4,6.2c0,0.5-0.4,1.1-1.3,1c-0.4,0-0.7-0.2-0.9-0.4c-0.2-0.2-0.3-0.5-0.2-0.8
						l0.3-5.2c0-0.1,0-0.2,0-0.2c-0.6,0.9-1.2,1.8-1.8,2.4c-0.2,0.3-0.6,0.4-1,0.4c-0.3,0-0.5-0.1-0.8-0.3c-0.3-0.3-0.4-0.7-0.4-1
						s0.2-0.6,0.4-0.9c1.3-1.3,2.6-3.1,3.4-5l-2.1-0.1l0,0c-0.3,0-0.6-0.2-0.8-0.4c-0.2-0.2-0.2-0.5-0.2-0.8c0-0.7,0.5-1.2,1.1-1.1
						l1,0.1c-0.3-0.1-0.5-0.4-0.6-0.8c-0.1-0.5-0.4-2.2-0.9-3.5c0-0.2-0.1-0.3-0.1-0.5c0-0.5,0.4-0.9,0.8-1c0.2-0.1,0.4-0.1,0.5-0.1
						l0,0c0.4,0,0.8,0.3,1,0.7c0.4,1.1,0.7,2.4,0.8,3.3l0.3-4.2c0-0.3,0.2-0.6,0.4-0.8c0.2-0.2,0.5-0.2,0.9-0.2
						c0.5,0,0.8,0.2,0.9,0.4c0.2,0.2,0.3,0.5,0.2,0.8l-0.3,4c0.4-0.9,0.9-2.1,1.1-2.8c0.1-0.5,0.6-0.8,1.2-0.7c0.1,0,0.2,0,0.4,0.1
						c0.5,0.2,0.8,0.6,0.8,1.1c0,0.1,0,0.2-0.1,0.3c-0.3,1.1-1,2.7-1.7,3.8c-0.2,0.3-0.4,0.4-0.6,0.5H98c0.3,0,0.6,0.2,0.8,0.4
						c0.1,0.1,0.1,0.2,0.1,0.3c0.1-0.1,0.1-0.3,0.3-0.4c0.3-0.3,0.6-0.4,1-0.4c0.3,0,0.6,0.1,0.8,0.3c1,0.8,2.2,2,3,3l0,0
						c0.2,0.2,0.3,0.6,0.3,0.9s-0.2,0.6-0.4,0.8c-0.3,0.3-0.7,0.4-1,0.4c-0.4,0-0.7-0.2-0.9-0.5c-0.7-0.9-1.8-1.9-2.7-2.7
						c-0.2-0.1-0.3-0.3-0.3-0.4c-0.2,0.5-0.6,0.7-1.1,0.7l-1.3-0.1c0.7,1.3,1.5,2.3,2.1,3c0.2,0.3,0.3,0.6,0.3,0.9
						c0,0.2-0.1,0.4-0.2,0.6l6.3-1l0.8-11.5c0-0.3,0.1-0.5,0.3-0.7c0.2-0.2,0.6-0.3,1-0.3c1,0.1,1.3,0.7,1.2,1.2L107.7,73l1.1-0.2
						c0.1,0,0.2,0,0.3,0c0.6,0,1,0.5,1.1,1.1c0,0.1,0,0.3,0,0.3c0,0.6-0.4,1.1-1,1.1l-1.7,0.3l-0.3,4.9
						C107.6,80.9,107.3,81.4,106.4,81.4z M105.9,74.9c0.1,0,0.2,0,0.3,0.1c0.1,0.1,0.2,0.3,0.2,0.4l-0.3,4.9c0,0,0.1,0.1,0.3,0.1
						c0.2,0,0.3,0,0.3,0l0.4-5.3c0-0.2,0.2-0.4,0.4-0.5l2.1-0.3c0,0,0.1-0.1,0.1-0.2V74c0-0.1,0-0.2-0.1-0.2l0,0l0,0l-1.8,0.3
						c-0.2,0-0.3,0-0.4-0.1s-0.2-0.3-0.2-0.4l0.8-11.5c0,0-0.1-0.1-0.3-0.1c-0.2,0-0.3,0-0.3,0l-0.8,11.9c0,0.2-0.2,0.4-0.4,0.5
						l-7.4,1.2c-0.1,0-0.1,0.1-0.1,0.2v0.1c0,0.1,0.1,0.2,0.1,0.2l0,0l0,0L105.9,74.9C105.8,74.9,105.8,74.9,105.9,74.9z M95.3,70.9
						c-0.2,1.2-0.5,2.5-0.5,3.5l-0.3,5.2c0,0.1,0.1,0.1,0.2,0.1c0.2,0,0.2,0,0.3,0l0.4-6.2C95.4,72.7,95.4,71.7,95.3,70.9z
						 M98.6,76.1L98.6,76.1L98.6,76.1z M91.6,68.5l2.8,0.2c0.2,0,0.3,0.1,0.4,0.2s0.1,0.3,0,0.5c-0.9,2.3-2.3,4.5-4,6.1
						c-0.1,0.1-0.1,0.1-0.1,0.2s0,0.1,0.1,0.2c0,0,0.1,0,0.1,0.1c0.1,0,0.2,0,0.2-0.1c1.2-1.3,2.5-3.4,3.1-5.2
						c0.1-0.2,0.3-0.4,0.6-0.3c0.2,0,0.3,0.2,0.3,0.3c0-0.2,0.2-0.4,0.4-0.5c0.2,0,0.4,0,0.5,0.2c-0.1-0.3-0.3-0.5-0.4-0.8
						c-0.1-0.2-0.1-0.3,0-0.5c0.1-0.1,0.3-0.2,0.4-0.2l2.2,0.1c0.1,0,0.1-0.1,0.1-0.2s0-0.2-0.1-0.2l-2.3-0.2
						c-0.3,0-0.5-0.3-0.5-0.5l0.4-6.7c0-0.1-0.1-0.1-0.3-0.1c-0.2,0-0.2,0-0.2,0l-0.5,6.7c0,0.1-0.1,0.3-0.2,0.3
						c-0.1,0.1-0.2,0.1-0.4,0.1l-3-0.2c0,0-0.1,0.1-0.1,0.2C91.5,68.4,91.6,68.5,91.6,68.5V69V68.5z M96.3,70.4L96.3,70.4
						c0.4,1.1,1,2.6,1.8,3.5c0,0.1,0.1,0.1,0.1,0.1c0.1,0,0.1,0,0.1,0c0.1-0.1,0.1-0.2,0.1-0.2c0-0.1,0-0.1-0.1-0.2
						C97.8,72.8,97,71.8,96.3,70.4z M109.6,73.7L109.6,73.7L109.6,73.7z M109.4,73.2L109.4,73.2L109.4,73.2z M100.7,68.5
						c-0.1,0-0.1,0-0.2,0.1c0,0-0.1,0.1-0.1,0.2s0,0.1,0,0.1c1,0.8,2.2,1.9,2.9,2.9c0,0,0.1,0.1,0.2,0.1s0.2,0,0.3-0.1
						c0,0,0-0.1,0.1-0.2c0-0.1,0-0.2-0.1-0.2c-0.8-0.9-1.9-2.1-2.8-2.8C100.9,68.6,100.8,68.5,100.7,68.5L100.7,68.5z M96.7,67.4H97
						c-0.1-0.1-0.2-0.1-0.3-0.2V67.4z M93.6,67.2h0.7v-0.5C94.1,67,93.9,67.1,93.6,67.2z M97.4,66.3C97.4,66.4,97.4,66.4,97.4,66.3
						c0,0.2,0,0.2,0.1,0.3c0.1,0,0.2,0,0.2-0.1c0.6-1,1.3-2.5,1.6-3.6v-0.1c0,0,0-0.1-0.1-0.1h-0.1c-0.1,0-0.1,0-0.2,0
						C98.7,63.7,98,65.3,97.4,66.3z M92.5,62.3c0,0-0.1,0-0.2,0s-0.1,0.1-0.1,0.1v0.1c0.5,1.3,0.8,3.1,0.9,3.6c0,0.1,0,0.1,0,0.1
						c0.1,0,0.2,0,0.2,0c0.1,0,0.1-0.1,0.1-0.1V66c-0.1-0.8-0.4-2.4-0.9-3.6C92.6,62.3,92.5,62.3,92.5,62.3L92.5,62.3z M104.6,67.6
						L104.6,67.6c-0.5,0-0.8-0.2-1.1-0.5c-0.7-0.9-1.8-2-2.8-2.8c-0.3-0.2-0.4-0.6-0.4-0.9c0-0.3,0.2-0.6,0.4-0.9
						c0.3-0.3,0.6-0.4,1-0.4c0.3,0,0.6,0.1,0.8,0.3c0.9,0.7,2.2,1.9,3,2.9l0,0c0.2,0.3,0.3,0.6,0.3,1s-0.2,0.7-0.4,0.9
						C105.2,67.5,104.9,67.6,104.6,67.6z M101.7,63.1c-0.1,0-0.2,0-0.2,0.1c0,0-0.1,0.1-0.1,0.2v0.1c1,0.8,2.1,2,2.9,2.9
						c0.1,0.1,0.1,0.1,0.3,0.1c0.1,0,0.2,0,0.3-0.1l0,0c0,0,0,0,0.1-0.2c0-0.1,0-0.2-0.1-0.3c-0.8-0.9-2-2.1-2.9-2.8
						C101.9,63.2,101.8,63.2,101.7,63.1L101.7,63.1z"/>
				</g>
				<g>
					<path class="st2" d="M124.1,57.3c0-0.7,0.1-1.5,0.2-2.2c-0.7,0.8-1.4,1.5-2.2,2.2c-0.2,0.2-0.5,0.3-0.7,0.3
						c-0.3,0-0.5-0.1-0.7-0.4c-0.1-0.2-0.2-0.4-0.2-0.6c0-0.3,0.2-0.6,0.5-0.8c1.9-1.5,3.5-3.5,4.6-5.8c0.2-0.3,0.4-0.4,0.8-0.4
						c0.2,0,0.3,0,0.5,0.1c0.4,0.1,0.6,0.4,0.6,0.7c0,0.2-0.1,0.3-0.2,0.5c-0.4,0.6-0.8,1.2-1.3,1.8c1-0.1,1.9-0.1,2.8-0.1h13.8
						c0.5,0,0.7,0.4,0.7,0.9s-0.2,0.9-0.7,0.9h-2.2v4.5h3.1c0.5,0,0.7,0.4,0.7,0.9s-0.3,0.9-0.7,0.9h-3.1v4.6h2.5
						c0.5,0,0.7,0.4,0.7,0.9s-0.2,0.9-0.7,0.9l-21.4,0.1c-0.5,0-0.7-0.4-0.7-0.9s0.2-0.9,0.7-0.9h2.6v-4.6h-3.2
						c-0.4,0-0.7-0.4-0.7-0.9s0.3-0.9,0.7-0.9h3.2L124.1,57.3z M125.3,69c0,0.1,0,0.2-0.1,0.3c-0.6,1.5-1.5,3-2.5,4.2
						c-0.3,0.3-0.6,0.4-0.9,0.4s-0.5-0.1-0.7-0.3c-0.2-0.2-0.4-0.4-0.4-0.7c0-0.2,0.1-0.4,0.3-0.7c0.9-0.9,1.7-2.2,2.3-3.7
						c0.1-0.3,0.4-0.5,0.8-0.5c0.1,0,0.3,0,0.4,0.1C125.1,68.4,125.3,68.7,125.3,69z M128.9,58.8v-4.5h-3v4.5H128.9z M128.9,65.3
						v-4.6h-3v4.6H128.9z M128.9,68.2c0.4,0,0.7,0.2,0.8,0.6c0.3,1.3,0.5,2.8,0.6,4.2v0.1c0,0.5-0.4,0.8-0.9,0.8c-0.1,0-0.1,0-0.1,0
						c-0.5,0-0.9-0.3-0.9-0.7c-0.1-1.2-0.2-2.7-0.5-4.1c0-0.1,0-0.1,0-0.1c0-0.4,0.3-0.7,0.8-0.7C128.8,68.2,128.9,68.2,128.9,68.2z
						 M133.7,58.8v-4.5h-3v4.5H133.7z M133.8,65.2v-4.6h-3v4.6H133.8z M134.4,68.2c0.4,0,0.7,0.2,0.8,0.6c0.5,1.3,0.9,2.7,1.2,4
						c0,0.1,0,0.2,0,0.3c0,0.4-0.3,0.7-0.8,0.8c-0.1,0-0.2,0.1-0.4,0.1c-0.4,0-0.8-0.2-0.8-0.7c-0.2-1.2-0.6-2.7-1-4
						c0-0.1-0.1-0.2-0.1-0.3c0-0.4,0.3-0.7,0.7-0.7C134.2,68.2,134.3,68.2,134.4,68.2z M138.6,58.8v-4.5h-3.1v4.5H138.6z
						 M138.6,65.2v-4.6h-3.1v4.6H138.6z M140.2,68.1c0.3,0,0.6,0.1,0.8,0.3c1.1,1.3,1.9,2.6,2.6,4c0.1,0.2,0.1,0.3,0.1,0.4
						c0,0.4-0.2,0.7-0.6,0.9c-0.2,0.1-0.3,0.1-0.5,0.1c-0.3,0-0.7-0.2-0.8-0.4c-0.7-1.3-1.4-2.7-2.4-3.9c-0.1-0.1-0.1-0.3-0.1-0.4
						c0-0.3,0.1-0.5,0.4-0.7C139.8,68.1,140,68.1,140.2,68.1z"/>
					<path class="st2" d="M121.8,74.5c-0.4,0-0.7-0.1-1-0.4c-0.4-0.3-0.6-0.7-0.6-1.1s0.2-0.7,0.4-1c0.9-0.9,1.7-2.1,2.2-3.5
						c0.2-0.5,0.7-0.8,1.3-0.8c0.2,0,0.4,0,0.6,0.1c0.7,0.2,1.1,0.7,1.1,1.3c0,0.2,0,0.3-0.1,0.5c-0.6,1.6-1.6,3.2-2.6,4.4
						C122.7,74.3,122.3,74.5,121.8,74.5z M124.1,68.7L124.1,68.7c-0.2,0-0.3,0.1-0.3,0.2c-0.6,1.5-1.5,2.9-2.5,3.8
						c-0.1,0.1-0.1,0.2-0.1,0.3c0,0.1,0,0.2,0.2,0.3c0.1,0.1,0.3,0.1,0.4,0.2c0.1,0,0.3,0,0.5-0.2c1-1.1,1.8-2.6,2.4-4
						c0-0.1,0-0.1,0-0.2l0,0c0-0.2-0.3-0.3-0.4-0.3C124.3,68.7,124.2,68.7,124.1,68.7z M129.4,74.5L129.4,74.5
						c-0.9,0-1.5-0.5-1.5-1.2c-0.1-1.3-0.2-2.8-0.5-4c0,0,0-0.1,0-0.2c0-0.7,0.5-1.2,1.2-1.3c0.1,0,0.2,0,0.3,0l0,0
						c0.7,0,1.2,0.4,1.3,1c0.3,1.2,0.5,2.6,0.6,4.3v0.1C130.9,73.8,130.3,74.4,129.4,74.5C129.5,74.5,129.4,74.5,129.4,74.5z
						 M128.9,68.7C128.9,68.7,128.8,68.7,128.9,68.7c-0.4,0.1-0.5,0.2-0.5,0.3c0.2,1.3,0.4,2.8,0.5,4.2c0,0.2,0.3,0.3,0.4,0.3l0,0
						c0.2,0,0.6-0.1,0.6-0.3c-0.1-1.6-0.3-3.1-0.6-4.2C129.2,68.8,129.1,68.7,128.9,68.7L128.9,68.7L128.9,68.7z M135.3,74.4
						c-0.7,0-1.2-0.4-1.3-1.1c-0.2-1.3-0.7-2.8-1-3.9c0-0.1-0.1-0.3-0.1-0.4c0-0.6,0.4-1.1,1.1-1.2c0.2,0,0.3-0.1,0.4-0.1l0,0
						c0.6,0,1.1,0.3,1.3,0.9c0.5,1.4,0.9,2.8,1.2,4c0,0.1,0,0.2,0,0.4c0,0.7-0.5,1.2-1.2,1.3C135.5,74.4,135.4,74.4,135.3,74.4z
						 M134.4,68.7c-0.1,0-0.1,0-0.2,0c-0.2,0-0.4,0.1-0.4,0.3c0,0,0,0,0,0.1c0.4,1.1,0.9,2.7,1.1,4.1c0,0.2,0.2,0.2,0.3,0.2
						s0.1,0,0.2,0c0.2,0,0.5-0.1,0.5-0.4v-0.1c-0.3-1.2-0.7-2.6-1.2-3.9C134.7,68.8,134.7,68.7,134.4,68.7L134.4,68.7z M142.6,74.3
						c-0.5,0-1-0.3-1.3-0.7c-0.8-1.6-1.5-2.8-2.4-3.9c-0.2-0.3-0.2-0.5-0.2-0.8c0-0.5,0.2-0.9,0.7-1.2c0.3-0.2,0.6-0.2,0.8-0.2l0,0
						l0,0c0.4,0,0.8,0.2,1.1,0.5c1.2,1.4,2,2.7,2.7,4.1c0.1,0.2,0.2,0.4,0.2,0.7c0,0.6-0.3,1-0.9,1.3
						C143.1,74.2,142.8,74.3,142.6,74.3z M140.2,68.6L140.2,68.6c-0.1,0-0.2,0-0.3,0.1c-0.2,0.1-0.2,0.3-0.2,0.3
						c0,0.1,0,0.1,0.1,0.2c0.9,1.1,1.7,2.4,2.5,4c0.1,0.1,0.2,0.2,0.4,0.2c0.1,0,0.2,0,0.3-0.1s0.3-0.2,0.3-0.4c0-0.1,0-0.1-0.1-0.2
						c-0.7-1.3-1.5-2.5-2.6-3.9C140.5,68.7,140.4,68.6,140.2,68.6z M121.5,67.6c-0.7,0-1.2-0.6-1.2-1.4c0-0.4,0.1-0.8,0.4-1.1
						c0.2-0.2,0.5-0.3,0.8-0.3h2.1v-3.6h-2.7l0,0c-0.4,0-0.7-0.2-0.9-0.5c-0.2-0.3-0.3-0.6-0.3-1s0.1-0.8,0.4-1.1
						c0.2-0.2,0.5-0.3,0.8-0.3h2.7v-1.1c0-0.2,0-0.5,0-0.8c-0.4,0.4-0.7,0.7-1.2,1.1c-0.4,0.3-0.7,0.4-1,0.4l0,0
						c-0.4,0-0.8-0.2-1.1-0.5c-0.2-0.3-0.3-0.6-0.3-0.9c0-0.5,0.3-1,0.7-1.3c1.7-1.3,3.3-3.3,4.4-5.6c0.3-0.5,0.7-0.7,1.2-0.7
						c0.3,0,0.5,0,0.7,0.1c0.5,0.2,0.9,0.7,0.9,1.2c0,0.3-0.1,0.5-0.2,0.8c-0.2,0.3-0.4,0.7-0.6,1c0.6,0,1.2,0,1.8,0h13.8l0,0
						c0.7,0,1.2,0.6,1.2,1.4c0,0.8-0.5,1.4-1.2,1.4H141v3.5h2.6l0,0c0.7,0,1.2,0.6,1.2,1.4c0,0.8-0.5,1.4-1.2,1.4H141v3.6h2
						c0.4,0,0.7,0.2,0.9,0.4c0.2,0.2,0.3,0.6,0.3,0.9c0,0.8-0.5,1.4-1.2,1.4L121.5,67.6L121.5,67.6z M124.1,60.2
						c0.1,0,0.3,0.1,0.4,0.1c0.1,0.1,0.1,0.2,0.1,0.4v4.6c0,0.3-0.2,0.5-0.5,0.5h-2.6c-0.1,0-0.1,0-0.1,0s-0.1,0.2-0.1,0.4
						c0,0.2,0,0.4,0.2,0.4l0,0l21.4-0.1c0.2,0,0.2-0.4,0.2-0.4c0-0.2,0-0.3-0.1-0.3c0,0,0-0.1-0.1-0.1l0,0h-2.5l0,0
						c-0.1,0-0.3-0.1-0.4-0.1c-0.1-0.1-0.1-0.2-0.1-0.4v-4.6c0-0.1,0.1-0.3,0.1-0.4c0.1-0.1,0.2-0.1,0.4-0.1h3.1
						c0.2,0,0.2-0.3,0.2-0.4c0-0.4-0.2-0.4-0.2-0.4h-3.1l0,0c-0.3,0-0.5-0.2-0.5-0.5v-4.5c0-0.1,0.1-0.3,0.1-0.4
						c0.1-0.1,0.2-0.1,0.4-0.1h2.2c0.1,0,0.2,0,0.2-0.4s-0.1-0.4-0.2-0.4h-13.8c-0.9,0-1.8,0-2.8,0.1c-0.2,0-0.4-0.1-0.5-0.3
						s-0.1-0.4,0.1-0.5c0.4-0.5,0.8-1.1,1.2-1.7c0.1-0.1,0.1-0.2,0.1-0.2c0-0.1-0.1-0.2-0.2-0.3c-0.3-0.1-0.6-0.1-0.7,0.1
						c-1.2,2.4-2.8,4.5-4.7,5.9c-0.2,0.1-0.3,0.3-0.3,0.4c0,0.1,0,0.2,0.1,0.3s0.2,0.2,0.3,0.2l0,0c0.1,0,0.3-0.1,0.4-0.2
						c0.8-0.7,1.5-1.4,2.1-2.1c0.1-0.2,0.4-0.2,0.6-0.1c0.2,0.1,0.3,0.3,0.3,0.5c-0.1,0.7-0.2,1.5-0.2,2.1l0,0v1.6
						c0,0.3-0.2,0.5-0.5,0.5h-3.2c-0.1,0-0.1,0-0.1,0c-0.1,0.1-0.1,0.2-0.1,0.4s0,0.3,0.1,0.4c0,0,0.1,0,0.1,0.1H124.1L124.1,60.2z
						 M125.9,65.8c-0.1,0-0.3-0.1-0.4-0.1c-0.1-0.1-0.1-0.2-0.1-0.4v-4.6c0-0.3,0.2-0.5,0.5-0.5h3l0,0c0.1,0,0.3,0.1,0.4,0.1
						c0.1,0.1,0.1,0.2,0.1,0.4v4.6c0,0.3-0.2,0.5-0.5,0.5H125.9L125.9,65.8z M126.4,61.2v3.6h2v-3.6L126.4,61.2z M130.7,65.8
						c-0.3,0-0.5-0.2-0.5-0.5v-4.6c0-0.1,0.1-0.3,0.1-0.4c0.1-0.1,0.2-0.1,0.4-0.1h3l0,0c0.3,0,0.5,0.2,0.5,0.5v4.6
						c0,0.1-0.1,0.3-0.1,0.4c-0.1,0.1-0.2,0.1-0.4,0.1H130.7L130.7,65.8z M131.2,61.2v3.6h2v-3.6L131.2,61.2z M135.5,65.7
						c-0.3,0-0.5-0.2-0.5-0.5v-4.6c0-0.3,0.2-0.5,0.5-0.5h3.1l0,0c0.1,0,0.3,0.1,0.4,0.1c0.1,0.1,0.1,0.2,0.1,0.4v4.6
						c0,0.1-0.1,0.3-0.1,0.4c-0.1,0.1-0.2,0.1-0.4,0.1H135.5L135.5,65.7z M136,61.2v3.6h2.1v-3.6L136,61.2z M125.9,59.3
						c-0.3,0-0.5-0.2-0.5-0.5v-4.5c0-0.1,0.1-0.3,0.1-0.4c0.1-0.1,0.2-0.1,0.4-0.1h3l0,0c0.3,0,0.5,0.2,0.5,0.5v4.5
						c0,0.1-0.1,0.3-0.1,0.4c-0.1,0.1-0.2,0.1-0.4,0.1H125.9L125.9,59.3z M126.4,54.8v3.5h2v-3.5H126.4z M130.7,59.3
						c-0.1,0-0.3-0.1-0.4-0.1c-0.1-0.1-0.1-0.2-0.1-0.4v-4.5c0-0.1,0.1-0.3,0.1-0.4c0.1-0.1,0.2-0.1,0.4-0.1h3l0,0
						c0.3,0,0.5,0.2,0.5,0.5v4.5c0,0.3-0.2,0.5-0.5,0.5H130.7L130.7,59.3z M131.2,54.8v3.5h2v-3.5H131.2z M135.5,59.3
						c-0.3,0-0.5-0.2-0.5-0.5v-4.5c0-0.1,0.1-0.3,0.1-0.4c0.1-0.1,0.2-0.1,0.4-0.1h3.1l0,0c0.3,0,0.5,0.2,0.5,0.5v4.5
						c0,0.1-0.1,0.3-0.1,0.4c-0.1,0.1-0.2,0.1-0.4,0.1H135.5L135.5,59.3z M136,54.8v3.5h2.1v-3.5H136z"/>
				</g>
				<g>
					<path class="st2" d="M154.7,63.2c0.3,0,0.5,0.1,0.7,0.4c0.7,1.2,1.3,2.7,1.7,3.9c0,0.1,0,0.2,0.1,0.3c0,0.4-0.1,0.6-0.5,0.8
						c-0.1,0-0.2,0.1-0.3,0.1c-0.3,0-0.6-0.1-0.7-0.5c-0.4-1.2-1-2.7-1.7-3.8c0-0.1-0.1-0.2-0.1-0.3c0-0.3,0.1-0.6,0.4-0.7
						C154.5,63.2,154.6,63.2,154.7,63.2z M155.1,71.3c-0.4,0-0.7-0.2-0.7-0.7s0.1-0.8,0.6-0.9l3.4-0.4l-0.8-7.5
						c0-0.4,0.2-0.7,0.8-0.8c0.5-0.1,0.9,0.1,0.9,0.6l0.8,7.5l2.6-0.3c0.4,0,0.7,0.3,0.7,0.7c0.1,0.5-0.2,0.8-0.6,0.8l-2.4,0.3
						c1.1,1.6,2.3,2.9,3.5,3.8c0.2,0.1,0.3,0.3,0.3,0.6c0,0.2,0,0.4-0.2,0.6c-0.1,0.2-0.3,0.3-0.6,0.3c-0.2,0-0.4,0-0.6-0.2
						c-1.1-0.9-2.2-2.5-2.8-3.7c0.2,1,0.5,2.3,0.6,3.1l0.7,6.9c0,0.4-0.2,0.7-0.8,0.8c-0.5,0.1-0.9-0.1-0.9-0.6l-0.6-5.8
						c-0.1-1.2-0.1-2.8-0.1-4.1c-0.3,2.2-1.4,4.9-2.5,6.6c-0.1,0.2-0.4,0.4-0.6,0.4c-0.2,0-0.4,0-0.6-0.2c-0.2-0.2-0.4-0.4-0.4-0.6
						s0-0.4,0.2-0.6c1.4-1.9,2.5-4.5,3.1-7.3L155.1,71.3z M163,62.9c0,0.1,0,0.1,0,0.2c-0.1,1.3-0.6,3.1-1.1,4.4
						c-0.1,0.3-0.4,0.5-0.6,0.5c-0.1,0-0.2,0-0.3,0c-0.3-0.1-0.5-0.3-0.5-0.7c0-0.1,0-0.2,0-0.3c0.4-1.1,0.8-3,1-4.2
						c0-0.3,0.3-0.5,0.7-0.5c0.1,0,0.2,0,0.3,0C162.8,62.3,163,62.5,163,62.9z M175.6,72.6c0,0,0.1,0,0.2,0c0.4,0,0.6,0.2,0.8,0.6
						c0,0.1,0,0.2,0.1,0.3c0,0.4-0.1,0.7-0.4,0.8l-2.3,0.8l0.6,5.9c0,0.4-0.3,0.7-0.8,0.8c-0.5,0.1-0.9-0.1-0.9-0.6l-0.6-5.5
						l-7.6,2.7c0,0-0.1,0-0.2,0c-0.4,0-0.7-0.2-0.8-0.6c0-0.1,0-0.1,0-0.2c0-0.4,0.1-0.8,0.5-0.9l7.9-2.8l-1.4-13.3
						c0-0.4,0.3-0.7,0.8-0.8c0.6-0.1,0.9,0.1,1,0.6l1.4,12.9L175.6,72.6z M169.4,71.2c0.2,0.1,0.3,0.4,0.3,0.6s0,0.4-0.1,0.6
						c-0.2,0.2-0.4,0.3-0.7,0.4c-0.2,0-0.5,0-0.6-0.2c-1-0.9-2.5-1.9-3.6-2.5c-0.2-0.1-0.3-0.3-0.4-0.6c0-0.2,0-0.4,0.2-0.6
						c0.1-0.2,0.4-0.3,0.6-0.3c0.2,0,0.4,0,0.6,0.1C166.8,69.2,168.4,70.2,169.4,71.2z M169.6,65c0.2,0.2,0.3,0.4,0.3,0.7
						c0,0.2,0,0.5-0.2,0.6c-0.2,0.2-0.4,0.3-0.6,0.3c-0.3,0-0.5,0-0.7-0.2c-1.1-0.9-2.5-1.9-3.7-2.6c-0.2-0.1-0.3-0.3-0.3-0.5
						s0-0.4,0.2-0.6c0.2-0.2,0.4-0.3,0.7-0.4c0.2,0,0.4,0,0.6,0.1C166.8,63,168.5,64.1,169.6,65z"/>
					<path class="st2" d="M160.5,83.6c-0.3,0-0.6-0.1-0.8-0.3c-0.2-0.2-0.4-0.4-0.4-0.8l-0.6-5.8c0-0.2,0-0.3,0-0.5
						c-0.5,1.2-1.1,2.4-1.7,3.3c-0.2,0.3-0.6,0.6-1,0.6c-0.3,0-0.6,0-0.9-0.2c-0.4-0.3-0.6-0.6-0.6-1s0.1-0.7,0.3-1
						c1.2-1.7,2.3-4,2.9-6.4l-2.4,0.3c-0.4,0-0.7-0.1-0.9-0.3c-0.2-0.2-0.3-0.5-0.4-0.8c-0.1-0.8,0.3-1.3,1-1.4l2.9-0.3l-0.1-0.9
						c-0.1,0.4-0.4,0.8-0.8,0.9c-0.2,0.1-0.3,0.1-0.5,0.1c-0.6,0.1-1-0.2-1.2-0.8c-0.2-0.5-0.8-2.4-1.6-3.7v-0.1
						c0-0.1-0.1-0.2-0.1-0.4c-0.1-0.5,0.2-1,0.7-1.2c0.2-0.1,0.4-0.1,0.5-0.2c0.4-0.1,0.9,0.2,1.2,0.6c0.8,1.4,1.4,3.1,1.7,4L157,62
						c0-0.3,0-0.6,0.2-0.8c0.1-0.2,0.4-0.4,1-0.5c1-0.1,1.4,0.5,1.5,1l0.5,4.7c0.4-1.1,0.7-2.7,0.8-3.6c0.1-0.5,0.5-0.9,1.1-1
						c0.1,0,0.2,0,0.4,0c0.6,0.1,1,0.5,1.1,1l0,0c0,0.1,0,0.2,0,0.4c-0.1,1.3-0.6,3.2-1.1,4.5c-0.2,0.5-0.5,0.8-1,0.8l1.1-0.1
						c0.3,0,0.6,0,0.8,0.2c0.2,0.1,0.3,0.3,0.4,0.6c0-0.2,0.1-0.4,0.2-0.7c0.3-0.3,0.6-0.5,1-0.6c0.3,0,0.6,0,0.9,0.2
						c1.3,0.7,2.8,1.7,3.9,2.7l0,0c0.2,0.2,0.4,0.6,0.4,0.9s0,0.7-0.2,0.9c-0.3,0.3-0.6,0.5-1,0.6c-0.4,0-0.8-0.1-1-0.3
						c-0.9-0.8-2.4-1.8-3.5-2.5c-0.2-0.1-0.4-0.3-0.5-0.6c0,0.6-0.4,1.1-1,1.1l-1.6,0.2c1,1.4,2.1,2.4,3,3c0.3,0.2,0.5,0.6,0.5,0.9
						s0,0.5-0.2,0.8l6.9-2.4l-1.4-12.9c-0.1-0.7,0.4-1.2,1.2-1.3c0.4,0,0.7,0,1,0.1c0.3,0.2,0.5,0.5,0.6,0.9l1.3,12.3l1.3-0.4
						c0.1-0.1,0.2-0.1,0.3-0.1c0.6-0.1,1.1,0.3,1.3,0.9c0,0.1,0.1,0.3,0.1,0.4c0.1,0.7-0.3,1.2-0.8,1.3l-1.9,0.7l0.6,5.5
						c0,0.4-0.1,0.7-0.4,1c-0.2,0.2-0.5,0.3-0.9,0.4c-0.8,0.1-1.4-0.3-1.5-1l-0.5-4.9l-6.9,2.4c-0.1,0.1-0.2,0.1-0.3,0.1
						c-0.6,0.1-1.2-0.3-1.3-1c0-0.1-0.1-0.2-0.1-0.3c0-0.3,0-0.6,0.2-0.9c-0.2,0-0.5-0.1-0.7-0.3c-0.5-0.5-1-1-1.5-1.6
						c0,0.2,0.1,0.4,0.1,0.6l0.7,6.9c0,0.4-0.1,0.7-0.3,0.9c-0.2,0.2-0.5,0.3-0.9,0.4C160.6,83.6,160.6,83.6,160.5,83.6z M159,72.2
						C159.1,72.2,159.1,72.2,159,72.2c0.3,0,0.5,0.2,0.5,0.5c0,1.4,0,2.9,0.1,4l0.6,5.8c0.1,0.1,0.2,0.1,0.3,0.1
						c0.2,0,0.3-0.1,0.3-0.1s0,0,0-0.1l-0.7-6.9c-0.1-0.8-0.3-2-0.6-3.1c-0.1-0.2,0.1-0.5,0.3-0.6s0.5,0,0.6,0.2
						c0.6,1.1,1.6,2.6,2.7,3.5c0.1,0.1,0.1,0.1,0.2,0.1c0.1,0,0.2-0.1,0.2-0.1c0.1-0.1,0.1-0.2,0.1-0.3c0-0.1-0.1-0.2-0.1-0.2
						c-1.4-1.1-2.7-2.5-3.6-4c-0.1-0.1-0.1-0.3,0-0.5s0.2-0.3,0.4-0.3l2.4-0.3c0.1,0,0.2,0,0.1-0.3c0-0.2-0.1-0.2-0.1-0.3l-2.7,0.3
						c-0.1,0-0.3,0-0.4-0.1c-0.1-0.1-0.2-0.2-0.2-0.3l-0.8-7.5c0-0.1,0-0.2-0.4-0.1c-0.2,0-0.3,0.1-0.3,0.1l0.8,7.6
						c0,0.1,0,0.3-0.1,0.4s-0.2,0.2-0.3,0.2l-3.4,0.4c0,0-0.1,0-0.1,0.3c0,0.2,0.1,0.2,0.1,0.3h0.1l3.1-0.3c0.2,0,0.3,0,0.4,0.2
						c0.1,0.1,0.2,0.3,0.1,0.4c-0.6,2.8-1.7,5.4-3.2,7.5c-0.1,0.1-0.1,0.2-0.1,0.3c0,0.1,0.1,0.2,0.2,0.3c0.1,0,0.1,0.1,0.2,0
						c0.1,0,0.2-0.1,0.3-0.2c1.1-1.6,2.1-4.3,2.5-6.4C158.6,72.4,158.8,72.2,159,72.2z M172.2,75.1c0.1,0,0.2,0,0.3,0.1
						s0.2,0.2,0.2,0.4l0.6,5.5c0,0,0,0.2,0.4,0.1c0.3,0,0.4-0.1,0.4-0.1l-0.6-6c0-0.2,0.1-0.4,0.3-0.5l2.3-0.8
						c0.1,0,0.1-0.2,0.1-0.3v-0.1c0-0.1-0.1-0.3-0.3-0.3l0,0l0,0l-1.9,0.7c-0.1,0-0.3,0-0.4-0.1c-0.1-0.1-0.2-0.2-0.2-0.4L172,60.4
						c-0.1-0.1-0.2-0.1-0.4-0.1c-0.4,0-0.4,0.2-0.4,0.2l1.4,13.3c0,0.2-0.1,0.4-0.3,0.5l-7.9,2.8c-0.1,0-0.2,0.2-0.1,0.3
						c0,0,0,0.1,0,0.2s0.1,0.3,0.3,0.2l0,0l0,0L172.2,75.1C172.1,75.1,172.1,75.1,172.2,75.1z M164.3,77.9L164.3,77.9L164.3,77.9z
						 M175.6,72.6L175.6,72.6L175.6,72.6z M165.2,69C165.1,69,165.1,69,165.2,69c-0.2,0-0.3,0.1-0.3,0.1c0,0.1-0.1,0.2-0.1,0.3
						c0,0.1,0,0.1,0.1,0.2c1.3,0.7,2.8,1.7,3.7,2.6c0.1,0,0.1,0.1,0.3,0.1c0.1,0,0.2-0.1,0.3-0.2c0,0,0.1-0.1,0-0.2
						c0-0.1-0.1-0.2-0.1-0.3c-1-0.9-2.5-1.9-3.7-2.5C165.3,69,165.3,69,165.2,69z M160.4,68.2v0.4l0.9-0.1c-0.2,0-0.3,0-0.5-0.1
						C160.7,68.4,160.5,68.3,160.4,68.2z M154.8,63.7L154.8,63.7L154.8,63.7c-0.1,0-0.1,0-0.2,0.1c-0.1,0.1-0.1,0.2-0.1,0.2
						s0,0.1,0,0.2c0.8,1.3,1.5,3.3,1.7,3.8c0.1,0.1,0.1,0.1,0.2,0.1c0.1,0,0.2,0,0.2-0.1c0.2-0.1,0.2-0.1,0.1-0.2v-0.1
						c-0.3-0.9-0.9-2.5-1.6-3.8C155,63.7,154.9,63.7,154.8,63.7z M161.2,67.5h0.1l0,0c0,0,0.1,0,0.2-0.2c0.5-1.2,0.9-3.1,1-4.3v-0.1
						c0-0.1,0-0.1-0.2-0.2h-0.1c0,0-0.2,0-0.2,0.1c-0.1,1.2-0.5,3.1-1,4.3c0,0.1,0,0.1,0,0.1C161,67.4,161.1,67.5,161.2,67.5
						L161.2,67.5z M154.7,63.2L154.7,63.2L154.7,63.2z M169,67.2c-0.4,0-0.7-0.1-1-0.4c-1-0.9-2.4-1.8-3.6-2.5
						c-0.3-0.2-0.6-0.5-0.6-0.9c0-0.3,0.1-0.7,0.3-1c0.3-0.3,0.6-0.5,1-0.6c0.3,0,0.6,0,0.9,0.2c1.1,0.6,2.8,1.7,3.9,2.6l0,0
						c0.3,0.3,0.5,0.6,0.5,1s-0.1,0.7-0.3,1C169.8,66.9,169.5,67.1,169,67.2C169.1,67.2,169.1,67.2,169,67.2z M165.3,62.8
						C165.3,62.8,165.2,62.8,165.3,62.8c-0.2,0-0.3,0.1-0.4,0.2c0,0.1-0.1,0.2-0.1,0.3s0,0.1,0.1,0.1c1.3,0.7,2.8,1.7,3.8,2.7
						c0.1,0.1,0.3,0.1,0.4,0.1c0.1,0,0.2-0.1,0.3-0.2c0,0,0.1-0.1,0-0.2c0-0.1-0.1-0.3-0.2-0.4c-1.1-0.9-2.7-2-3.7-2.5
						C165.4,62.9,165.4,62.8,165.3,62.8z"/>
				</g>
			</g>
		</g>
	</g>
</g>
</svg>
