<?xml version="1.0" encoding="utf-8"?>
<!-- Generator: Adobe Illustrator 28.1.0, SVG Export Plug-In . SVG Version: 6.00 Build 0)  -->
<svg version="1.1" id="レイヤー_1" xmlns="http://www.w3.org/2000/svg" xmlns:xlink="http://www.w3.org/1999/xlink" x="0px"
	 y="0px" viewBox="0 0 310 60" style="enable-background:new 0 0 310 60;" xml:space="preserve">
<style type="text/css">
	.st0{opacity:0.8;fill:none;stroke:#FF9C54;stroke-width:1.0917;stroke-miterlimit:10;enable-background:new    ;}
	.st1{opacity:0.7;fill:none;stroke:#FF9C54;stroke-width:1.0917;stroke-miterlimit:10;enable-background:new    ;}
	.st2{fill:#FF9C54;}
</style>
<g id="header_x5F_logo">
	<g id="アイコン_1_">
		<g>
			<g id="絵_1_">
				<g>
					<g>
						<path class="st0" d="M38.3,45.6c-3,4-32.9-4.9-33.3-17.8c-0.2-7.4,9.4-15.6,15-14.3c3.5,0.9,3.6,5,9.9,16.7
							C36.1,41.7,39.4,44.1,38.3,45.6z"/>
					</g>
					<g>
						<path class="st1" d="M31.1,45.5c3.2,3.3,29.6-7.9,28.5-19.7c-0.6-6.8-10.3-13.3-15.3-11.5c-3.1,1.1-2.7,4.9-7.2,16.3
							C32.7,41.7,29.9,44.2,31.1,45.5z"/>
					</g>
				</g>
			</g>
			<g>
				<g>
					<g>
						<path class="st2" d="M87.5,31.7c-1.6-2.4-5.8-9.9-7-11.8c-0.2-0.3-0.3-0.4-0.4-0.4c-0.2,0-0.2,0.5-0.2,1.1
							c0,1.7,0,6.4,0.1,9.3c0,0.4,0.2,0.5,0.5,0.5c0,0,0,0,0,0c0.9,0,1.3,0.6,1.3,1.1c0,0.6-0.4,1.1-1.3,1.1c0,0-0.1,0-0.1,0
							c-0.6,0-1.2,0-1.8,0c-0.7,0-1.4,0-1.9,0c-1.1,0-1.4-0.8-1.4-1.1c0-0.6,0.4-1.1,1.2-1.1c0,0,0.1,0,0.1,0c0.1,0,0.2,0,0.2,0
							c0.2,0,0.5-0.1,0.5-0.5c0-1.8,0-3.7,0-5.6c0-1.8,0-3.6,0-5.1c0-0.5,0-0.6-0.4-0.6c-0.4,0-1.5,0-1.5-1.1c0-0.6,0.4-1.1,1.2-1.1
							c0,0,0.1,0,0.1,0c0.3,0,0.5,0,0.7,0c0.4,0,0.7,0,1,0c1.9,0,2.9,1.1,3.3,1.8c1.7,2.7,4.9,8.4,6.4,10.7c0.1,0.2,0.3,0.3,0.4,0.3
							c0.2,0,0.2-0.2,0.2-1c0-1.6,0-6.2-0.1-8.9c0-0.5-0.1-0.6-0.6-0.6c-0.1,0-0.1,0-0.2,0c-1.1,0-1.4-0.8-1.4-1.1
							c0-0.6,0.4-1.1,1.2-1.1c0,0,0.1,0,0.1,0c0.5,0,1,0,1.6,0c0.7,0,1.5,0,2.1,0c0.6,0,1.4,0.2,1.4,1.1c0,0.6-0.5,1.1-1.3,1.1
							c0,0,0,0-0.1,0c-0.4,0.1-0.4,0.3-0.4,0.5c0,1.3,0,2.8,0,4.3c0,2.6,0,5.3,0.1,7.2c0,0,0,0,0,0c0,1.3-1,2-2,2
							C88.7,32.7,88,32.4,87.5,31.7z"/>
						<path class="st2" d="M99,32.8c-2.5,0-4-1.7-4-3.4c0-1.1,0.7-2.2,2.2-2.7c1.6-0.5,3.5-0.9,3.9-1c0.2,0,0.4-0.3,0.4-0.7
							c0-0.3-0.1-1.4-1.6-1.4c-1,0-1.8,0.5-2.2,0.9c-0.2,0.3-0.6,0.4-0.8,0.4c-0.6,0-1.1-0.4-1.1-1c0-1,2-2.2,4.3-2.2
							c2.5,0,3.8,1.2,3.8,3.7c0,0.3,0,0.5,0,0.8c0,0.3-0.1,2-0.1,3.1c0,0.8,0,1,0.4,1c0.7,0,1.1,0.5,1.1,1c0,1.2-1.2,1.2-1.4,1.2
							c-0.6,0-1.3-0.1-1.6-0.8C101.3,32.5,100.1,32.8,99,32.8z M101.3,27.6c-3.8,0.5-4,1.4-4,1.9c0,0.7,0.6,1.3,1.8,1.3
							c1.8,0,2.6-0.9,2.6-2.4C101.6,28.1,101.6,27.6,101.3,27.6C101.3,27.6,101.3,27.6,101.3,27.6z"/>
						<path class="st2" d="M115.5,31.7c0-0.1,0-0.1-0.1-0.1c0,0,0,0-0.1,0c-0.8,0.7-1.9,1.2-3.2,1.2c-3.1,0-5.4-2.2-5.4-5.4
							c0-2.9,1.9-5.5,5.5-5.5c1.2,0,2.6,0.5,3.3,1.4c0,0.1,0.1,0.1,0.1,0.1c0,0,0.1,0,0.1-0.1c0.2-0.6,0.8-1.2,2.2-1.2
							c1,0,1.5,0.3,1.5,1.2c0,0.5-0.3,1.1-1,1.1c0,0,0,0,0,0c0,0,0,0,0,0c-0.7,0-0.7,0.2-0.7,2.9c0,1.1,0,2.3,0,3.6c0,0.7,0,1.4,0,2
							c-0.1,3.7-3,5.4-5.9,5.4c-2.4,0-4.5-1.2-4.5-2.2c0-0.6,0.6-1.2,1.2-1.2c0.2,0,0.5,0.1,0.7,0.3c0.8,0.6,1.9,1,2.9,1
							c1.7,0,3.3-1,3.3-3.2L115.5,31.7z M115.4,27.3c0-2.1-1.4-3.4-3.2-3.4c-0.6,0-3.2,0.3-3.2,3.5c0,2.1,1.4,3.4,3.2,3.4
							C113.9,30.8,115.4,29.5,115.4,27.3z"/>
						<path class="st2" d="M120.8,27.3c0-3.2,2.5-5.5,5.7-5.5c3.2,0,5.7,2.3,5.7,5.5c0,3.3-2.4,5.5-5.7,5.5
							C123.3,32.8,120.8,30.6,120.8,27.3z M129.9,27.3c0-2.1-1.5-3.5-3.4-3.5c-1.9,0-3.4,1.4-3.4,3.5c0,2.1,1.5,3.5,3.4,3.5
							C128.4,30.8,129.9,29.4,129.9,27.3z"/>
						<path class="st2" d="M150.7,32.6c-0.5,0-1.2,0-1.9,0c-0.5,0-0.9,0-1.2,0c-0.8,0-1.1-0.5-1.1-1c0-0.5,0.3-1,1-1
							c0,0,0.1,0,0.1,0c0.1,0,0.1,0,0.2,0c0.2,0,0.3,0,0.3-0.3c0-0.7,0-1.5,0-2.3c0-1.1,0-2,0-2.4c-0.1-1.3-0.8-1.8-1.6-1.8
							c-1.2,0-2.6,1.1-2.7,2.6c0,0.5,0,1.1,0,1.9c0,0.6,0,1.3,0,2.1c0,0.2,0.1,0.3,0.3,0.3c0.6,0,1.3,0.1,1.3,1c0,0.5-0.4,1-1.1,1h0
							c-0.5,0-1.2,0-1.9,0c-0.5,0-0.9,0-1.2,0c-0.4,0-1.1-0.2-1.1-1c0-0.5,0.3-1,1-1c0,0,0.1,0,0.1,0c0.1,0,0.1,0,0.2,0
							c0.2,0,0.3-0.1,0.3-0.3c0-0.7,0-1.5,0-2.2c0-1.1,0-2,0-2.4c-0.1-1.3-0.8-1.8-1.6-1.8c-1.2,0-2.6,1.1-2.6,2.6
							c0,0.3,0,0.7,0,1.2c0,0.7,0,1.6,0,2.6c0,0.2,0.1,0.3,0.3,0.3c0.4,0,1.2,0.1,1.2,1c0,0.5-0.4,1-1.1,1h0c-0.5,0-1.2,0-1.9,0
							c-0.5,0-0.9,0-1.2,0c-0.8,0-1.1-0.5-1.1-1c0-0.5,0.4-1,1.1-1c0,0,0.1,0,0.1,0c0,0,0.1,0,0.1,0c0.2,0,0.4,0,0.4-0.3
							c0-1.6,0.1-2.7,0.1-3.8c0-0.6,0-1.2,0-1.9c0-0.2-0.2-0.5-0.4-0.5c0,0,0,0,0,0c-0.7,0.1-1.1-0.4-1.1-1c0-0.5,0.3-1.1,1-1.1h0
							c0.4,0,0.6,0,0.8,0c1.2,0,1.9,0.6,2,1c0,0.1,0,0.1,0,0.1c0,0,0,0,0.1,0c0.7-0.8,1.7-1.2,2.7-1.2c1.2,0,2.5,0.6,3,2
							c0.9-1.3,2.2-1.9,3.4-1.9c1.8,0,3.4,1.3,3.5,3.7c0,0.9,0.1,3.1,0.1,4.8c0,0.2,0.2,0.3,0.3,0.3h0c0.7,0,1.1,0.5,1.1,1
							C151.8,32.1,151.5,32.6,150.7,32.6C150.7,32.6,150.7,32.6,150.7,32.6z"/>
						<path class="st2" d="M154.8,22c1.6,0,2.3,0.8,2.3,2.3c0,0,0,0.1,0,0.1c0,3-0.1,4.6-0.1,5.7c0,0.2,0.1,0.4,0.4,0.4
							c0.8,0,1.3,0.5,1.3,1.1c0,0.5-0.4,1.1-1.2,1.1c0,0,0,0,0,0c-0.5,0-1.3,0-2,0c-0.5,0-1,0-1.3,0c-1,0-1.3-0.6-1.3-1.1
							c0-0.5,0.4-1.1,1.2-1.1c0,0,0.1,0,0.1,0c0.1,0,0.2,0,0.3,0c0.3,0,0.4-0.1,0.4-0.5c0-1,0-2.3,0-3.8c0-0.3,0-0.7,0-1.1
							c0-0.6-0.1-0.8-0.6-0.8c0,0-0.1,0-0.2,0c0,0,0,0-0.1,0c-0.7,0-1-0.5-1-1.1c0-0.6,0.4-1.2,1.1-1.2C154,22,154.8,22,154.8,22z
							 M153.9,17.6c0-1.1,1-1.5,1.6-1.5c0.8,0,1.6,0.6,1.6,1.5c0,0.8-0.6,1.5-1.6,1.5C154.6,19.2,153.9,18.6,153.9,17.6z"/>
						<path class="st2" d="M186,32.2c-0.6,0-1.2,0-1.8,0c-0.7,0-1.4,0-2,0c-0.7,0-0.7-0.6-0.7-0.6c0-0.3,0.2-0.6,0.6-0.6
							c0,0,0,0,0,0c0.3,0,0.5,0,0.8,0c0.2,0,0.4-0.2,0.4-0.4c-0.2-3.8-0.5-11.9-0.5-11.9c0-0.4-0.1-0.5-0.2-0.5
							c-0.1,0-0.3,0.3-0.4,0.6c-1,3-3.3,9.5-4.4,12.4c-0.2,0.6-0.8,1-1.4,1c-0.5,0-1.1-0.3-1.3-1c-0.7-1.8-3.4-9.8-4.3-12.4
							c-0.1-0.3-0.2-0.5-0.4-0.5c-0.2,0-0.3,2.4-0.7,12.3c0,0.2,0.1,0.4,0.4,0.4c0.3,0,0.5,0,0.8,0c0.6,0,0.7,0.5,0.7,0.6
							c0,0.3-0.2,0.6-0.7,0.6c0,0,0,0,0,0c-0.6,0-1.2,0-1.8,0c-0.7,0-1.4,0-2,0c-0.7,0-0.7-0.6-0.7-0.6c0-0.3,0.2-0.6,0.6-0.6
							c0,0,0,0,0,0c0.3,0,0.4,0,0.7,0c0.2,0,0.4-0.1,0.4-0.4c0.2-3.8,0.6-9.3,0.7-12.3c0,0,0,0,0,0c0-0.3-0.2-0.4-0.4-0.4
							c-0.4,0-0.4,0-0.7,0c-0.7,0-0.7-0.5-0.7-0.6c0-0.3,0.2-0.6,0.7-0.6c0,0,0,0,0,0c0.5,0,0.9,0,1.3,0c0.3,0,0.6,0,1,0
							c0,0,0,0,0,0c0.7,0,1.3,0.5,1.6,1.3c1.2,3.5,3.1,8.9,4.3,12.1c0.1,0.2,0.2,0.4,0.4,0.4c0.1,0,0.3-0.1,0.3-0.3
							c1-2.7,3.2-8.8,4.4-12.2c0.2-0.7,0.9-1.3,1.6-1.3c0,0,0,0,0,0c0.4,0,0.7,0,0.9,0c0.4,0,0.7,0,1.3,0c0,0,0,0,0,0
							c0.4,0,0.7,0.3,0.7,0.6c0,0.3-0.2,0.6-0.6,0.6c-0.3,0-0.4,0-0.7,0c-0.2,0-0.4,0.2-0.4,0.4c0,0.1,0,0.6,0.7,12.3
							c0,0.3,0.1,0.4,0.4,0.4c0.3,0,0.4,0,0.7,0c0.7,0,0.7,0.6,0.7,0.6C186.7,31.9,186.5,32.2,186,32.2C186,32.2,186,32.2,186,32.2z
							"/>
						<path class="st2" d="M193.7,32.5c-2.9,0-5.1-2.1-5.1-5.1c0-3.2,2.4-5.2,5-5.2c3.1,0,4.5,2.3,4.5,3.5c0,0.8-0.5,1.4-1.6,1.4
							c-0.5,0-1.3,0-2.1,0c-1.7,0-3.6,0-4.1,0c-0.2,0-0.3,0.1-0.3,0.4c0,2.4,1.6,3.8,3.8,3.8c1.6,0,2.6-0.7,3.3-1.4
							c0.1-0.1,0.3-0.2,0.5-0.2c0.3,0,0.7,0.3,0.7,0.6C198.2,30.9,196.6,32.5,193.7,32.5z M193.7,23.2c-2.2,0-3.5,1.9-3.5,2.7
							c0,0.2,0.2,0.2,2.8,0.2c1.2,0,2.4,0,3.1,0c0.5,0,0.7-0.3,0.7-0.6C196.8,24.9,196,23.2,193.7,23.2z"/>
						<path class="st2" d="M211.3,32.2c-0.6,0-1.2,0-1.8,0c-0.6,0-1.1,0-1.6,0c-0.5,0-0.7-0.3-0.7-0.6c0-0.3,0.2-0.6,0.7-0.6h0
							c0.3,0,0.3,0,0.7,0c0.2,0,0.3-0.1,0.3-0.4c0-1,0-2.2,0-3.2c0-0.7,0-1.3,0-1.6c-0.1-1.8-1.3-2.5-2.6-2.5
							c-1.6,0-3.3,1.1-3.4,2.9c0,0.4,0,1.1,0,1.8c0,0.8,0,1.7,0,2.7c0,0.2,0.1,0.4,0.4,0.4c0.3,0,0.3,0,0.6,0c0.4,0,0.7,0.2,0.7,0.6
							c0,0.3-0.2,0.6-0.7,0.6h0c-0.6,0-1.2,0-1.8,0c-0.6,0-1.1,0-1.7,0c-0.5,0-0.7-0.3-0.7-0.6c0-0.3,0.2-0.6,0.7-0.6h0
							c0.3,0,0.3,0,0.7,0c0.2,0,0.4-0.1,0.4-0.4c0-1.4,0-2.5,0-3.6c0-0.8,0-1.6,0-2.6c0-0.6-0.2-1-0.7-1c-0.2,0-0.2,0-0.5,0
							c0,0,0,0,0,0c-0.4,0-0.6-0.3-0.6-0.6s0.2-0.6,0.7-0.6h0.7c0.9,0,1.7,0.4,1.8,1.2c0,0.1,0,0.1,0.1,0.1c0,0,0.1,0,0.1-0.1
							c0.8-1,2.1-1.5,3.3-1.5c1.9,0,3.7,1.1,3.8,3.5c0,0.7,0,2.5,0,4c0,0.4,0,0.7,0,1c0,0.2,0.1,0.4,0.4,0.4c0.3,0,0.3,0,0.7,0h0
							c0.4,0,0.7,0.3,0.7,0.6C212,31.9,211.8,32.2,211.3,32.2L211.3,32.2L211.3,32.2z"/>
						<path class="st2" d="M216.9,23.5c-0.4,0-0.4,0-0.4,0.3c0,0.8-0.1,3-0.1,4.6c0,1.7,0,2.8,1.8,2.8c0.2,0,0.4,0,0.6,0
							c0,0,0,0,0.1,0c0.3,0,0.5,0.3,0.5,0.6c0,0.6-0.5,0.7-1.4,0.7c-2.9,0-2.9-2.4-2.9-3.3c0-1.4,0-4,0-5.1c0-0.1,0-0.3,0-0.3
							c0-0.2-0.1-0.2-0.2-0.2h-1.3c-0.4,0-0.6-0.3-0.6-0.6c0-0.3,0.2-0.6,0.6-0.6h1.3c0.2,0,0.2,0,0.2-0.2c0-0.1,0-1.1,0-1.9
							c0-0.2,0-0.4,0-0.5v0c0-0.4,0.3-0.6,0.7-0.6c0.3,0,0.7,0.2,0.7,0.7c0,0.6,0,2.4,0,2.4c0,0.2,0,0.2,0.3,0.2h2
							c0.4,0,0.6,0.3,0.6,0.6c0,0.3-0.2,0.6-0.6,0.6L216.9,23.5L216.9,23.5z"/>
						<path class="st2" d="M228.9,30.9c0-0.1,0-0.1-0.1-0.1c0,0-0.1,0-0.1,0.1c-0.7,1-2.1,1.7-3.4,1.7c-2.3,0-3.7-1.5-3.7-3
							c0-1.1,0.7-2.2,2.4-2.7c1.4-0.4,3.2-0.7,4.2-0.9c0.3,0,0.4-0.1,0.4-0.3c0-0.1,0-0.2,0-0.3c0-1.2-0.5-2.1-2.3-2.1
							c-1.2,0-2.1,0.5-2.6,1c-0.1,0.1-0.3,0.2-0.5,0.2c-0.3,0-0.6-0.2-0.6-0.6c0-0.8,1.9-1.8,3.8-1.8c2.1,0,3.5,0.9,3.5,3.3
							c0,0.2,0,0.4,0,0.6c-0.1,0.7-0.1,1.8-0.1,2.7c0,1.6,0.2,2.1,1.1,2.4c0.3,0.1,0.4,0.3,0.4,0.5c0,0.3-0.2,0.6-0.6,0.6
							C230,32.3,229.1,31.7,228.9,30.9z M228.6,27.6c0-0.1,0-0.2,0-0.3c0-0.2-0.1-0.2-0.2-0.2c0,0,0,0-0.1,0c-3.5,0.5-5.4,1-5.4,2.5
							c0,0.9,0.9,1.8,2.4,1.8C226.5,31.3,228.6,30.9,228.6,27.6z"/>
						<path class="st2" d="M237.2,32.2c-0.6,0-1.3,0-1.9,0c-0.6,0-1.3,0-1.8,0c-0.1,0-0.7,0-0.7-0.6c0-0.3,0.2-0.6,0.7-0.6h0
							c0.2,0,0.3,0,0.4,0c0.4,0,0.8,0,0.8-0.4c0-1.9,0-5.9,0-9c0-1.1,0-2.1,0-2.9c0-0.6-0.1-0.9-0.7-1c-0.2,0-0.2,0-0.5,0
							c0,0,0,0,0,0c-0.4,0-0.6-0.3-0.6-0.6c0-0.3,0.2-0.6,0.6-0.6h0.7c1.4,0,1.9,0.8,1.9,1.8c0,0,0,0,0,0.1c0,2.3-0.1,7.2-0.1,10.4
							c0,0.7,0,1.3,0,1.8c0,0.3,0.3,0.4,0.9,0.4c0.1,0,0.2,0,0.3,0h0c0.5,0,0.7,0.3,0.7,0.6C237.9,31.9,237.7,32.2,237.2,32.2
							L237.2,32.2L237.2,32.2z"/>
						<path class="st2" d="M254.8,32.5c-5,0-8.1-3.5-8.1-7.9c0-4.1,3-8.2,8.2-8.2c1.5,0,3,0.4,4.3,1.2c0,0,0.2,0.1,0.2-0.2
							c0-0.5,0.1-0.8,0.6-0.8c0.3,0,0.7,0.2,0.7,0.6c0,0,0,0,0,0c0,0.6,0,1,0,1.5c0,0.5,0,1,0,1.6c0,0,0,0,0,0
							c0,0.4-0.3,0.6-0.7,0.6c-0.3,0-0.7-0.2-0.7-0.6c0-0.3,0-1-0.3-1.2c-1.1-1.1-2.6-1.6-4.2-1.6c-4.2,0-6.7,3.4-6.7,6.8
							c0,3.2,2.1,6.7,6.6,6.7c2,0,4-0.8,5.1-2.2c0.2-0.2,0.4-0.3,0.7-0.3c0.4,0,0.8,0.4,0.8,0.8C261.4,30.1,258.8,32.5,254.8,32.5z"
							/>
						<path class="st2" d="M267.3,32.2c-0.6,0-1.3,0-1.9,0c-0.6,0-1.3,0-1.8,0c-0.1,0-0.7,0-0.7-0.6c0-0.3,0.2-0.6,0.7-0.6h0
							c0.2,0,0.3,0,0.4,0c0.4,0,0.8,0,0.8-0.4c0-1.9,0-5.9,0-9c0-1.1,0-2.1,0-2.9c0-0.6-0.1-0.9-0.7-1c-0.2,0-0.2,0-0.5,0
							c0,0,0,0,0,0c-0.4,0-0.6-0.3-0.6-0.6c0-0.3,0.2-0.6,0.7-0.6h0.7c1.4,0,1.9,0.8,1.9,1.8c0,0,0,0,0,0.1c0,2.3-0.1,7.2-0.1,10.4
							c0,0.7,0,1.3,0,1.8c0,0.3,0.3,0.4,0.9,0.4c0.1,0,0.2,0,0.3,0h0c0.5,0,0.7,0.3,0.7,0.6C268,31.9,267.8,32.2,267.3,32.2
							L267.3,32.2L267.3,32.2z"/>
						<path class="st2" d="M273.6,32.2c-0.6,0-1.3,0-1.9,0s-1.3,0-1.8,0c-0.1,0-0.7,0-0.7-0.6c0-0.3,0.2-0.6,0.7-0.6h0
							c0.3,0,0.4,0,0.8,0c0.3,0,0.4-0.2,0.4-0.4c0-2.1,0-4.2,0-6.1c0-0.6-0.2-1-0.8-1c-0.2,0-0.3,0-0.5,0c0,0,0,0,0,0
							c-0.4,0-0.6-0.3-0.6-0.6c0-0.3,0.2-0.6,0.7-0.6c0.4,0,0.4,0,0.9,0c1.2,0,1.7,0.9,1.7,1.8c0,0,0,0,0,0.1c0,1.5,0,3.2,0,4.7
							c0,0.6,0,1.1,0,1.7c0,0.2,0.1,0.4,0.4,0.4c0.4,0,0.5,0,0.8,0c0.1,0,0.7,0,0.7,0.6C274.3,31.9,274.1,32.2,273.6,32.2
							C273.6,32.2,273.6,32.2,273.6,32.2z M271.3,18.4c-0.1,0-1.1,0-1.1-1c0-0.7,0.6-1,1.1-1c0.7,0,1.1,0.5,1.1,1
							C272.5,17.6,272.4,18.4,271.3,18.4z"/>
						<path class="st2" d="M286.8,32.2c-0.6,0-1.2,0-1.8,0c-0.6,0-1.1,0-1.6,0c-0.5,0-0.7-0.3-0.7-0.6c0-0.3,0.2-0.6,0.7-0.6h0
							c0.3,0,0.3,0,0.7,0c0.2,0,0.3-0.1,0.3-0.4c0-1,0-2.2,0-3.2c0-0.7,0-1.3,0-1.6c-0.1-1.8-1.3-2.5-2.6-2.5
							c-1.6,0-3.3,1.1-3.4,2.9c0,0.4,0,1.1,0,1.8c0,0.8,0,1.7,0,2.7c0,0.2,0.1,0.4,0.4,0.4c0.3,0,0.3,0,0.6,0c0.4,0,0.7,0.2,0.7,0.6
							c0,0.3-0.2,0.6-0.7,0.6h0c-0.6,0-1.2,0-1.8,0c-0.6,0-1.1,0-1.6,0c-0.5,0-0.7-0.3-0.7-0.6c0-0.3,0.2-0.6,0.7-0.6h0
							c0.3,0,0.3,0,0.7,0c0.2,0,0.4-0.1,0.4-0.4c0-1.4,0-2.5,0-3.6c0-0.8,0-1.6,0-2.6c0-0.6-0.2-1-0.7-1c-0.2,0-0.2,0-0.5,0
							c0,0,0,0,0,0c-0.4,0-0.6-0.3-0.6-0.6s0.2-0.6,0.7-0.6h0.7c0.9,0,1.7,0.4,1.8,1.2c0,0.1,0,0.1,0.1,0.1c0,0,0.1,0,0.1-0.1
							c0.8-1,2.1-1.5,3.3-1.5c1.9,0,3.7,1.1,3.8,3.5c0,0.7,0,2.5,0,4c0,0.4,0,0.7,0,1c0,0.2,0.1,0.4,0.4,0.4c0.3,0,0.3,0,0.7,0h0
							c0.4,0,0.7,0.3,0.7,0.6C287.5,31.9,287.3,32.2,286.8,32.2L286.8,32.2L286.8,32.2z"/>
						<path class="st2" d="M293.1,32.2c-0.6,0-1.3,0-1.9,0c-0.6,0-1.3,0-1.8,0c-0.1,0-0.7,0-0.7-0.6c0-0.3,0.2-0.6,0.7-0.6h0
							c0.3,0,0.4,0,0.8,0c0.3,0,0.4-0.2,0.4-0.4c0-2.1,0-4.2,0-6.1c0-0.6-0.2-1-0.8-1c-0.2,0-0.3,0-0.5,0c0,0,0,0,0,0
							c-0.4,0-0.6-0.3-0.6-0.6c0-0.3,0.2-0.6,0.7-0.6c0.4,0,0.4,0,0.9,0c1.2,0,1.7,0.9,1.7,1.8c0,0,0,0,0,0.1c0,1.5,0,3.2,0,4.7
							c0,0.6,0,1.1,0,1.7c0,0.2,0.1,0.4,0.4,0.4c0.4,0,0.5,0,0.8,0c0.1,0,0.7,0,0.7,0.6C293.8,31.9,293.6,32.2,293.1,32.2
							C293.1,32.2,293.1,32.2,293.1,32.2z M290.8,18.4c-0.1,0-1.1,0-1.1-1c0-0.7,0.6-1,1.1-1c0.7,0,1.1,0.5,1.1,1
							C291.9,17.6,291.8,18.4,290.8,18.4z"/>
						<path class="st2" d="M300.9,32.5c-3.5,0-5.3-2.5-5.3-5.1c0-3,2.2-5.3,5.1-5.3c1,0,1.9,0.3,2.6,0.6c0,0,0.1,0,0.1,0
							c0.1,0,0.1-0.1,0.1-0.2c0-0.3,0.3-0.4,0.5-0.4c0.3,0,0.7,0.2,0.7,0.5c0,0,0,0,0,0c0,0.5,0,0.8,0,1.1c0,0.3,0,0.7,0,1.2
							c0,0,0,0,0,0c0,0.4-0.3,0.5-0.7,0.5c-0.3,0-0.6-0.2-0.6-0.5c0-0.5,0-0.7-0.2-1c-0.6-0.6-1.4-0.9-2.3-0.9
							c-2.2,0-3.9,1.7-3.9,4.1c0,2,1.3,4,3.9,4c1.1,0,2.3-0.4,2.9-1.3c0.2-0.2,0.4-0.3,0.6-0.3c0.4,0,0.7,0.3,0.7,0.7
							C305,31,303.3,32.5,300.9,32.5z"/>
					</g>
				</g>
			</g>
		</g>
		<g>
			<g>
				<path class="st2" d="M121.5,42.3c0.1-0.2,0.2-0.3,0.4-0.3c0.2,0.1,0.3,0.2,0.3,0.4l-0.2,0.6c1.5,0,3.1-0.1,4.6-0.2
					c0.3,0,0.4,0.1,0.4,0.4c-0.1,0.2-0.2,0.3-0.4,0.3c-1.6,0.1-3.2,0.1-4.8,0.2c-0.3,1.1-0.7,2.2-1.1,3.2c-0.4,0.9-0.8,1.9-1.3,2.9
					c-0.1,0.2-0.3,0.3-0.5,0.2c-0.2-0.1-0.3-0.3-0.2-0.6c0.5-1,1-1.9,1.3-2.8c0.4-0.9,0.7-1.9,1-2.9h-1.8c-0.3,0-0.4-0.1-0.4-0.3
					c0-0.2,0.1-0.3,0.4-0.3h2L121.5,42.3z M128.2,45.5c0.2,0.2,0.3,0.4,0.2,0.6c-0.2,0.2-0.4,0.2-0.7,0c-0.8-0.7-1.4-1-1.8-1
					c-0.3,0-0.5,0.2-0.6,0.6c0,0.2,0.1,0.7,0.3,1.6c0.1,0.5,0.3,1.1,0.4,1.7c0.6,0.3,1,0.6,1.3,0.8c0.3,0.2,0.5,0.3,0.7,0.5
					c0.2,0.2,0.2,0.4,0,0.6c-0.2,0.2-0.4,0.2-0.6,0c-0.3-0.3-0.8-0.7-1.4-1.1c-0.1,0.5-0.3,0.9-0.6,1.2c-0.5,0.5-1.2,0.7-2,0.7
					c-0.8,0-1.4-0.2-1.8-0.6c-0.3-0.3-0.5-0.7-0.5-1.2c0-0.5,0.2-1,0.6-1.3c0.4-0.3,0.9-0.5,1.6-0.5c0.5,0,1.1,0.2,1.9,0.5
					c-0.1-0.5-0.2-0.9-0.3-1.4c-0.1-0.5-0.2-0.9-0.2-1.3c0-0.4,0.1-0.7,0.3-0.9c0.2-0.3,0.5-0.4,0.8-0.4c0.3,0,0.7,0.1,1.1,0.3
					C127.4,45,127.9,45.2,128.2,45.5z M121.9,49.8c0,0.4,0.2,0.8,0.6,1c0.3,0.2,0.7,0.3,1.2,0.3c0.6,0,1-0.2,1.4-0.5
					c0.3-0.3,0.4-0.7,0.4-1.2c-0.9-0.5-1.5-0.7-2.1-0.7C122.4,48.7,121.9,49.1,121.9,49.8z"/>
				<path class="st2" d="M132,46.5c0.2,0.1,0.2,0.3,0.1,0.5c-0.5,0.7-0.7,1.3-0.7,1.8c0,0.6,0.3,1.1,0.8,1.4
					c0.6,0.3,1.5,0.4,2.8,0.4c1.2,0,2.4-0.1,3.6-0.4c0.3-0.1,0.5,0,0.6,0.3c0.1,0.3-0.1,0.5-0.4,0.6c-1,0.2-2.3,0.3-3.7,0.3
					c-1.8,0-3-0.2-3.6-0.7c-0.6-0.5-0.9-1.1-0.9-1.7s0.3-1.4,0.9-2.2C131.5,46.4,131.7,46.4,132,46.5z M137.5,43.1
					c0.3,0.1,0.4,0.2,0.3,0.5c-0.1,0.2-0.2,0.3-0.5,0.3c-0.6-0.1-1.3-0.2-2.1-0.2c-1.4,0-2.7,0.1-4,0.3c-0.2,0-0.4-0.1-0.4-0.3
					c0-0.2,0.1-0.3,0.3-0.4c1.4-0.3,2.8-0.4,4.1-0.4C136.2,42.9,136.9,42.9,137.5,43.1z M137.7,42c0.1-0.1,0.3,0,0.4,0.1
					c0.3,0.4,0.6,0.8,0.9,1.2c0.1,0.2,0,0.3-0.1,0.4c-0.2,0.1-0.3,0-0.4-0.1c-0.2-0.4-0.5-0.8-0.8-1.2
					C137.5,42.3,137.5,42.1,137.7,42z M138.7,41.6c0.1-0.1,0.3,0,0.4,0.1c0.3,0.4,0.6,0.8,0.9,1.2c0.1,0.2,0,0.3-0.1,0.4
					c-0.2,0.1-0.3,0-0.4-0.1c-0.2-0.4-0.5-0.8-0.8-1.2C138.5,41.9,138.6,41.7,138.7,41.6z"/>
				<path class="st2" d="M144.6,42.4c0.2,0,0.4,0,0.6,0c0.3,0.1,0.4,0.2,0.5,0.5c0.1,0.1,0.1,0.3,0.1,0.5c0,0.4-0.2,1.1-0.4,2
					l-0.2,0.7c1,0.1,2,0.4,3.1,0.9c0.1-1.1,0.1-1.9,0.1-2.5c0-0.3,0.1-0.4,0.4-0.4s0.4,0.1,0.4,0.4c0,0.8-0.1,1.8-0.2,2.8
					c0.7,0.3,1.2,0.6,1.5,0.8c0.2,0.2,0.2,0.4,0.1,0.6c-0.2,0.2-0.4,0.2-0.7,0c-0.3-0.2-0.6-0.4-1-0.6c-0.1,1.2-0.5,2.1-1,2.6
					c-0.5,0.5-1.3,0.9-2.4,1.2c-0.2,0-0.3,0-0.4-0.2c-0.1-0.2,0-0.3,0.2-0.4c0.9-0.3,1.6-0.7,2.1-1.1c0.5-0.5,0.7-1.3,0.8-2.4
					c-1-0.5-2-0.9-3.2-1.1c-0.3,0.9-0.6,1.6-0.9,2.2c-0.3,0.7-0.7,1.3-1.1,1.7c-0.3,0.3-0.7,0.4-1,0.4c-0.4,0-0.8-0.2-1-0.5
					c-0.2-0.3-0.3-0.7-0.3-1.2c0-0.7,0.3-1.4,0.8-2c0.7-0.7,1.6-1.1,3-1.2c0.3-1.3,0.5-2.1,0.5-2.5c0-0.2,0-0.3-0.1-0.4
					c-0.1-0.1-0.2-0.1-0.5,0c-0.4,0.1-1.3,0.2-2.5,0.3c-0.2,0-0.4-0.1-0.4-0.3c0-0.3,0.1-0.4,0.4-0.4l0.8,0l0.9-0.1L144.6,42.4z
					 M142.1,47.5c-0.5,0.6-0.8,1.2-0.8,1.8c0,0.7,0.2,1,0.6,1c0.4,0,0.8-0.3,1.2-0.9c0.2-0.4,0.4-0.8,0.6-1.2c0.2-0.5,0.4-1,0.5-1.5
					C143.3,46.7,142.6,47,142.1,47.5z"/>
				<path class="st2" d="M165,46.5c0.2,0.1,0.2,0.3,0.1,0.5c-0.5,0.7-0.7,1.3-0.7,1.8c0,0.6,0.3,1.1,0.8,1.4
					c0.6,0.3,1.5,0.4,2.8,0.4c1.2,0,2.4-0.1,3.6-0.4c0.3-0.1,0.5,0,0.6,0.3c0.1,0.3-0.1,0.5-0.4,0.6c-1,0.2-2.3,0.3-3.7,0.3
					c-1.8,0-3-0.2-3.6-0.7c-0.6-0.5-0.9-1.1-0.9-1.7s0.3-1.4,0.9-2.2C164.5,46.4,164.7,46.4,165,46.5z M171.1,43.1
					c0.3,0.1,0.4,0.2,0.3,0.5c-0.1,0.2-0.2,0.3-0.5,0.3c-0.6-0.1-1.5-0.2-2.7-0.2c-1.4,0-2.7,0.1-4,0.3c-0.2,0-0.4-0.1-0.4-0.3
					c0-0.2,0.1-0.3,0.3-0.4c1.4-0.3,2.8-0.4,4.1-0.4C169.4,42.9,170.3,42.9,171.1,43.1z"/>
				<path class="st2" d="M176,46.5c0.2,0.1,0.2,0.3,0.1,0.5c-0.5,0.7-0.7,1.3-0.7,1.8c0,0.6,0.3,1.1,0.8,1.4
					c0.6,0.3,1.5,0.4,2.8,0.4c1.2,0,2.4-0.1,3.6-0.4c0.3-0.1,0.5,0,0.6,0.3c0.1,0.3-0.1,0.5-0.4,0.6c-1,0.2-2.3,0.3-3.7,0.3
					c-1.8,0-3-0.2-3.6-0.7c-0.6-0.5-0.9-1.1-0.9-1.7s0.3-1.4,0.9-2.2C175.5,46.4,175.7,46.4,176,46.5z M182.1,43.1
					c0.3,0.1,0.4,0.2,0.3,0.5c-0.1,0.2-0.2,0.3-0.5,0.3c-0.6-0.1-1.5-0.2-2.7-0.2c-1.4,0-2.7,0.1-4,0.3c-0.2,0-0.4-0.1-0.4-0.3
					c0-0.2,0.1-0.3,0.3-0.4c1.4-0.3,2.8-0.4,4.1-0.4C180.4,42.9,181.3,42.9,182.1,43.1z"/>
				<path class="st2" d="M192.7,42.8c0.1,0.3,0,0.5-0.3,0.8c-1.7,1.1-3.1,2-4,2.6c0.9-0.3,1.7-0.4,2.4-0.4c1,0,1.8,0.2,2.4,0.7
					c0.6,0.5,0.9,1.1,0.9,1.9c0,0.7-0.2,1.3-0.6,1.8c-0.8,0.8-2.1,1.2-4,1.2c-0.9,0-1.6,0-2.3-0.1c-0.2,0-0.3-0.1-0.3-0.3
					c0-0.2,0.1-0.3,0.3-0.3c0.6,0,1.3,0,2,0c1.7,0,2.9-0.3,3.6-1c0.3-0.3,0.5-0.8,0.5-1.4c0-0.5-0.2-1-0.6-1.3
					c-0.5-0.4-1.2-0.6-2.1-0.6c-1.1,0-2.2,0.3-3.4,0.8c-0.5,0.3-1,0.6-1.6,0.9c-0.3,0.1-0.4,0.1-0.6-0.1c-0.1-0.2,0-0.4,0.1-0.5
					c0.9-0.6,1.9-1.2,3-1.9c1.2-0.8,2.4-1.6,3.5-2.5c-2.5,0.1-4.3,0.3-5.3,0.3c-0.3,0-0.4-0.1-0.4-0.4c0-0.2,0.1-0.4,0.4-0.4
					c2-0.1,3.9-0.2,5.7-0.3C192.4,42.4,192.6,42.6,192.7,42.8z"/>
				<path class="st2" d="M204.4,44.2c0.7,0.8,1.1,1.8,1.1,3s-0.3,2.2-1,2.9c-0.8,0.7-1.8,1.1-3.2,1.2c-0.2,0-0.3-0.1-0.3-0.3
					s0.1-0.3,0.3-0.3c1.1,0,1.9-0.3,2.7-1c0.5-0.6,0.7-1.4,0.7-2.3c0-1.1-0.3-2-0.9-2.6c-0.7-0.7-1.6-1-2.7-1
					c-0.2,1.4-0.4,2.6-0.7,3.6c-0.3,1.2-0.7,2.2-1.2,2.8c-0.4,0.5-0.8,0.8-1.4,0.8c-0.5,0-0.9-0.2-1.3-0.6c-0.5-0.6-0.7-1.3-0.7-2.1
					c0-1.5,0.6-2.7,1.7-3.7c1.1-0.9,2.3-1.3,3.7-1.3S203.6,43.4,204.4,44.2z M197.7,45c-0.8,0.9-1.2,1.9-1.2,3.1
					c0,0.5,0.1,1,0.4,1.5c0.3,0.4,0.6,0.6,0.9,0.6c0.3,0,0.6-0.2,0.9-0.5c0.3-0.4,0.6-1.1,0.9-2c0.4-1.4,0.6-2.7,0.8-4
					C199.3,43.8,198.4,44.3,197.7,45z"/>
				<path class="st2" d="M210.2,42.2c0.3,0,0.4,0.2,0.4,0.4l-0.1,0.4h4.3c0.9,0,1.3,0.4,1.2,1.2c-0.1,0.9-0.4,1.8-0.9,2.9
					c-0.5,0.9-1,1.7-1.5,2.2c-1.3,1.3-3,2.1-5.2,2.3c-0.2,0-0.4-0.1-0.4-0.3c0-0.2,0.1-0.3,0.3-0.3c2-0.3,3.6-1,4.7-2.1
					c1.1-1.1,1.8-2.4,2.1-4.1c0-0.2,0-0.4,0-0.5c0-0.3-0.2-0.4-0.5-0.4h-4.3c-0.5,1.5-1.4,2.6-2.6,3.4c-0.2,0.1-0.4,0.1-0.5-0.1
					c-0.1-0.1-0.1-0.3,0.1-0.4c1.4-0.9,2.2-2.3,2.4-4.1C209.7,42.3,209.9,42.1,210.2,42.2z"/>
				<path class="st2" d="M219.5,42.7c0.3,0,0.4,0.1,0.4,0.4v4.7c0,0.3-0.1,0.4-0.4,0.4s-0.4-0.1-0.4-0.4v-4.7
					C219.1,42.8,219.2,42.7,219.5,42.7z M225.6,42.4c0.3,0,0.4,0.2,0.4,0.5v4c0,1.5-0.4,2.6-1.1,3.4c-0.7,0.8-2,1.3-3.8,1.5
					c-0.2,0-0.4-0.1-0.4-0.3c0-0.2,0.1-0.4,0.3-0.4c1.5-0.2,2.6-0.7,3.3-1.3c0.6-0.6,0.9-1.6,0.9-2.9v-4
					C225.2,42.6,225.3,42.4,225.6,42.4z"/>
				<path class="st2" d="M238,49.9c0.3,0,0.4,0.1,0.4,0.4s-0.1,0.4-0.4,0.4h-8.9c-0.3,0-0.4-0.1-0.4-0.4s0.1-0.4,0.4-0.4H238z
					 M237.2,43.2c0.3,0,0.4,0.1,0.4,0.4s-0.1,0.4-0.4,0.4h-7c-0.3,0-0.4-0.1-0.4-0.4s0.1-0.4,0.4-0.4H237.2z"/>
				<path class="st2" d="M241.3,45.3c0.2-0.1,0.4,0,0.5,0.2c0.3,0.6,0.6,1.2,0.9,2c0.1,0.3,0,0.4-0.2,0.5c-0.3,0.1-0.4,0-0.5-0.3
					c-0.2-0.6-0.4-1.2-0.8-2C241.1,45.6,241.1,45.4,241.3,45.3z M247.8,45c0.2,0,0.3,0.2,0.3,0.4c-0.3,2.1-0.8,3.6-1.7,4.5
					c-0.9,0.9-2.4,1.5-4.3,1.7c-0.2,0-0.4-0.1-0.4-0.3c0-0.2,0-0.3,0.2-0.4c1.8-0.2,3.1-0.7,3.9-1.5c0.8-0.8,1.3-2.2,1.5-4.1
					C247.4,45.1,247.5,45,247.8,45z M243.8,44.9c0.2-0.1,0.3,0,0.4,0.1c0.5,0.7,0.9,1.4,1.1,2.1c0.1,0.3,0,0.4-0.2,0.5
					c-0.2,0-0.4,0-0.5-0.2c-0.3-0.8-0.6-1.5-0.9-2.1C243.6,45.1,243.6,45,243.8,44.9z"/>
				<path class="st2" d="M254.2,42.2c0.3,0,0.4,0.2,0.4,0.4l-0.1,0.4h4.3c0.9,0,1.3,0.4,1.2,1.2c-0.1,0.9-0.4,1.8-0.9,2.9
					c-0.5,0.9-1,1.7-1.5,2.2c-1.3,1.3-3,2.1-5.2,2.3c-0.2,0-0.4-0.1-0.4-0.3c0-0.2,0.1-0.3,0.3-0.3c2-0.3,3.6-1,4.7-2.1
					c1.1-1.1,1.8-2.4,2.1-4.1c0-0.2,0-0.4,0-0.5c0-0.3-0.2-0.4-0.5-0.4h-4.3c-0.5,1.5-1.4,2.6-2.6,3.4c-0.2,0.1-0.4,0.1-0.5-0.1
					c-0.1-0.1-0.1-0.3,0.1-0.4c1.4-0.9,2.2-2.3,2.4-4.1C253.7,42.3,253.9,42.1,254.2,42.2z"/>
			</g>
		</g>
	</g>
</g>
</svg>
