<?xml version="1.0" encoding="utf-8"?>
<!-- Generator: Adobe Illustrator 28.1.0, SVG Export Plug-In . SVG Version: 6.00 Build 0)  -->
<svg version="1.1" id="レイヤー_1" xmlns="http://www.w3.org/2000/svg" xmlns:xlink="http://www.w3.org/1999/xlink" x="0px"
	 y="0px" viewBox="0 0 310 60" style="enable-background:new 0 0 310 60;" xml:space="preserve">
<style type="text/css">
	.st0{fill:#F4E484;fill-opacity:0.7;stroke:#F4E484;stroke-width:0.8949;stroke-miterlimit:10;stroke-opacity:0.8;}
	.st1{fill:#DD87AA;fill-opacity:0.6;stroke:#DD87AA;stroke-width:0.8949;stroke-miterlimit:10;stroke-opacity:0.7;}
	.st2{fill:#FF9C54;}
	.st3{fill:#848484;}
</style>
<g id="header_x5F_logo">
	<g id="アイコン_00000054945306440323605420000015991386381034823839_">
		<g>
			<g id="絵_00000076599766122546639770000004599777874104508547_">
				<path class="st0" d="M38.3,45.6c-3,4-32.9-4.9-33.3-17.8c-0.2-7.4,9.4-15.6,15-14.3c3.5,0.9,3.6,5,9.9,16.7
					C36.1,41.7,39.4,44.1,38.3,45.6z"/>
				<path class="st1" d="M31.1,45.5c3.2,3.3,29.6-7.9,28.5-19.7c-0.6-6.8-10.3-13.3-15.3-11.5c-3.1,1.1-2.7,4.9-7.2,16.3
					C32.7,41.7,29.9,44.2,31.1,45.5z"/>
			</g>
			<g>
				<g>
					<path class="st2" d="M87.5,36.7c-1.6-2.4-5.8-9.9-7-11.8c-0.2-0.3-0.3-0.4-0.4-0.4c-0.2,0-0.2,0.5-0.2,1.1c0,1.7,0,6.4,0.1,9.3
						c0,0.4,0.2,0.5,0.5,0.5c0,0,0,0,0,0c0.9,0,1.3,0.6,1.3,1.1c0,0.6-0.4,1.1-1.3,1.1c0,0-0.1,0-0.1,0c-0.6,0-1.2,0-1.8,0
						c-0.7,0-1.4,0-1.9,0c-1.1,0-1.4-0.8-1.4-1.1c0-0.6,0.4-1.1,1.2-1.1c0,0,0.1,0,0.1,0c0.1,0,0.2,0,0.2,0c0.2,0,0.5-0.1,0.5-0.5
						c0-1.8,0-3.7,0-5.6c0-1.8,0-3.6,0-5.1c0-0.5,0-0.6-0.4-0.6c-0.4,0-1.5,0-1.5-1.1c0-0.6,0.4-1.1,1.2-1.1c0,0,0.1,0,0.1,0
						c0.3,0,0.5,0,0.7,0c0.4,0,0.7,0,1,0c1.9,0,2.9,1.1,3.3,1.8c1.7,2.7,4.9,8.4,6.4,10.7c0.1,0.2,0.3,0.3,0.4,0.3
						c0.2,0,0.2-0.2,0.2-1c0-1.6,0-6.2-0.1-8.9c0-0.5-0.1-0.6-0.6-0.6c-0.1,0-0.1,0-0.2,0c-1.1,0-1.4-0.8-1.4-1.1
						c0-0.6,0.4-1.1,1.2-1.1c0,0,0.1,0,0.1,0c0.5,0,1,0,1.6,0c0.7,0,1.5,0,2.1,0c0.6,0,1.4,0.2,1.4,1.1c0,0.6-0.5,1.1-1.3,1.1
						c0,0,0,0-0.1,0c-0.4,0.1-0.4,0.3-0.4,0.5c0,1.3,0,2.8,0,4.3c0,2.6,0,5.3,0.1,7.2c0,0,0,0,0,0c0,1.3-1,2-2,2
						C88.7,37.7,88,37.4,87.5,36.7z"/>
					<path class="st2" d="M99,37.8c-2.5,0-4-1.7-4-3.4c0-1.1,0.7-2.2,2.2-2.7c1.6-0.5,3.5-0.9,3.9-1c0.2,0,0.4-0.3,0.4-0.7
						c0-0.3-0.1-1.4-1.6-1.4c-1,0-1.8,0.5-2.2,0.9c-0.2,0.3-0.6,0.4-0.8,0.4c-0.6,0-1.1-0.4-1.1-1c0-1,2-2.2,4.3-2.2
						c2.5,0,3.8,1.2,3.8,3.7c0,0.3,0,0.5,0,0.8c0,0.3-0.1,2-0.1,3.1c0,0.8,0,1,0.4,1c0.7,0,1.1,0.5,1.1,1c0,1.2-1.2,1.2-1.4,1.2
						c-0.6,0-1.3-0.1-1.6-0.8C101.3,37.5,100.1,37.8,99,37.8z M101.3,32.6c-3.8,0.5-4,1.4-4,1.9c0,0.7,0.6,1.3,1.8,1.3
						c1.8,0,2.6-0.9,2.6-2.4C101.6,33.1,101.6,32.6,101.3,32.6L101.3,32.6z"/>
					<path class="st2" d="M115.5,36.7c0-0.1,0-0.1-0.1-0.1c0,0,0,0-0.1,0c-0.8,0.7-1.9,1.2-3.2,1.2c-3.1,0-5.4-2.2-5.4-5.4
						c0-2.9,1.9-5.5,5.5-5.5c1.2,0,2.6,0.5,3.3,1.4c0,0.1,0.1,0.1,0.1,0.1c0,0,0.1,0,0.1-0.1c0.2-0.6,0.8-1.2,2.2-1.2
						c1,0,1.5,0.3,1.5,1.2c0,0.5-0.3,1.1-1,1.1c0,0,0,0,0,0c0,0,0,0,0,0c-0.7,0-0.7,0.2-0.7,2.9c0,1.1,0,2.3,0,3.6c0,0.7,0,1.4,0,2
						c-0.1,3.7-3,5.4-5.9,5.4c-2.4,0-4.4-1.2-4.4-2.2c0-0.6,0.6-1.2,1.2-1.2c0.2,0,0.5,0.1,0.7,0.3c0.8,0.6,1.9,1,2.9,1
						c1.7,0,3.3-1,3.3-3.2L115.5,36.7z M115.4,32.3c0-2.1-1.4-3.4-3.2-3.4c-0.6,0-3.2,0.3-3.2,3.5c0,2.1,1.4,3.4,3.2,3.4
						C113.9,35.8,115.4,34.5,115.4,32.3z"/>
					<path class="st2" d="M120.8,32.3c0-3.2,2.5-5.5,5.7-5.5c3.2,0,5.7,2.3,5.7,5.5c0,3.3-2.4,5.5-5.7,5.5
						C123.3,37.8,120.8,35.6,120.8,32.3z M129.9,32.3c0-2.1-1.5-3.5-3.4-3.5c-1.8,0-3.4,1.4-3.4,3.5c0,2.1,1.5,3.5,3.4,3.5
						C128.4,35.8,129.9,34.4,129.9,32.3z"/>
					<path class="st2" d="M150.7,37.6c-0.5,0-1.2,0-1.9,0c-0.5,0-0.9,0-1.2,0c-0.8,0-1.1-0.5-1.1-1c0-0.5,0.3-1,1-1c0,0,0.1,0,0.1,0
						c0.1,0,0.1,0,0.2,0c0.2,0,0.3,0,0.3-0.3c0-0.7,0-1.5,0-2.3c0-1.1,0-2,0-2.4c-0.1-1.3-0.8-1.8-1.6-1.8c-1.2,0-2.6,1.1-2.7,2.6
						c0,0.5,0,1.1,0,1.9c0,0.6,0,1.3,0,2.1c0,0.2,0.1,0.3,0.3,0.3c0.6,0,1.3,0.1,1.3,1c0,0.5-0.4,1-1.1,1h0c-0.5,0-1.2,0-1.9,0
						c-0.5,0-0.9,0-1.2,0c-0.4,0-1.1-0.2-1.1-1c0-0.5,0.3-1,1-1c0,0,0.1,0,0.1,0c0.1,0,0.1,0,0.2,0c0.2,0,0.3-0.1,0.3-0.3
						c0-0.7,0-1.5,0-2.2c0-1.1,0-2,0-2.4c-0.1-1.3-0.8-1.8-1.6-1.8c-1.2,0-2.6,1.1-2.6,2.6c0,0.3,0,0.7,0,1.2c0,0.7,0,1.6,0,2.6
						c0,0.2,0.1,0.3,0.3,0.3c0.4,0,1.2,0.1,1.2,1c0,0.5-0.4,1-1.1,1h0c-0.5,0-1.2,0-1.9,0c-0.5,0-0.9,0-1.2,0c-0.8,0-1.1-0.5-1.1-1
						c0-0.5,0.4-1,1.1-1c0,0,0.1,0,0.1,0c0,0,0.1,0,0.1,0c0.2,0,0.4,0,0.4-0.3c0-1.6,0.1-2.7,0.1-3.8c0-0.6,0-1.2,0-1.9
						c0-0.2-0.2-0.5-0.4-0.5c0,0,0,0,0,0c-0.7,0.1-1.1-0.4-1.1-1c0-0.5,0.3-1.1,1-1.1h0c0.4,0,0.6,0,0.8,0c1.2,0,1.9,0.6,2,1
						c0,0.1,0,0.1,0,0.1c0,0,0,0,0.1,0c0.7-0.8,1.7-1.2,2.7-1.2c1.2,0,2.5,0.6,3,2c0.9-1.3,2.2-1.9,3.4-1.9c1.8,0,3.4,1.3,3.5,3.7
						c0,0.9,0.1,3.1,0.1,4.8c0,0.2,0.2,0.3,0.3,0.3h0c0.7,0,1.1,0.5,1.1,1C151.8,37.1,151.5,37.6,150.7,37.6L150.7,37.6L150.7,37.6z
						"/>
					<path class="st2" d="M154.8,27c1.6,0,2.3,0.8,2.3,2.3c0,0,0,0.1,0,0.1c0,3-0.1,4.6-0.1,5.7c0,0.2,0.1,0.4,0.4,0.4
						c0.8,0,1.3,0.5,1.3,1.1c0,0.5-0.4,1.1-1.2,1.1c0,0,0,0,0,0c-0.5,0-1.3,0-2,0c-0.5,0-1,0-1.3,0c-1,0-1.3-0.6-1.3-1.1
						c0-0.5,0.4-1.1,1.2-1.1c0,0,0.1,0,0.1,0c0.1,0,0.2,0,0.3,0c0.3,0,0.4-0.1,0.4-0.5c0-1,0-2.3,0-3.8c0-0.3,0-0.7,0-1.1
						c0-0.6-0.1-0.8-0.6-0.8c0,0-0.1,0-0.2,0c0,0,0,0-0.1,0c-0.7,0-1-0.5-1-1.1c0-0.6,0.4-1.2,1.1-1.2L154.8,27L154.8,27z
						 M153.9,22.6c0-1.1,1-1.5,1.6-1.5c0.8,0,1.6,0.6,1.6,1.5c0,0.8-0.6,1.5-1.6,1.5C154.6,24.2,153.9,23.6,153.9,22.6z"/>
					<path class="st3" d="M186,37.2c-0.6,0-1.2,0-1.8,0c-0.7,0-1.4,0-2,0c-0.7,0-0.7-0.6-0.7-0.6c0-0.3,0.2-0.6,0.6-0.6c0,0,0,0,0,0
						c0.3,0,0.5,0,0.8,0c0.2,0,0.4-0.2,0.4-0.4c-0.2-3.8-0.5-11.9-0.5-11.9c0-0.4-0.1-0.5-0.2-0.5c-0.1,0-0.3,0.3-0.4,0.6
						c-1,3-3.3,9.5-4.4,12.4c-0.2,0.6-0.8,1-1.4,1c-0.5,0-1.1-0.3-1.3-1c-0.7-1.8-3.4-9.8-4.3-12.4c-0.1-0.3-0.2-0.5-0.4-0.5
						c-0.2,0-0.3,2.4-0.7,12.3c0,0.2,0.1,0.4,0.4,0.4c0.3,0,0.5,0,0.8,0c0.6,0,0.7,0.5,0.7,0.6c0,0.3-0.2,0.6-0.7,0.6c0,0,0,0,0,0
						c-0.6,0-1.2,0-1.8,0c-0.7,0-1.4,0-2,0c-0.7,0-0.7-0.6-0.7-0.6c0-0.3,0.2-0.6,0.6-0.6c0,0,0,0,0,0c0.3,0,0.4,0,0.7,0
						c0.2,0,0.4-0.2,0.4-0.4c0.2-3.8,0.6-9.3,0.7-12.3c0,0,0,0,0,0c0-0.3-0.2-0.4-0.4-0.4c-0.4,0-0.4,0-0.7,0
						c-0.7,0-0.7-0.5-0.7-0.6c0-0.3,0.2-0.6,0.7-0.6c0,0,0,0,0,0c0.5,0,0.9,0,1.3,0c0.3,0,0.6,0,1,0c0,0,0,0,0,0
						c0.7,0,1.3,0.5,1.6,1.3c1.2,3.5,3.1,8.9,4.3,12.1c0.1,0.2,0.2,0.4,0.4,0.4c0.1,0,0.3-0.1,0.3-0.3c1-2.7,3.2-8.8,4.4-12.2
						c0.2-0.7,0.9-1.3,1.6-1.3c0,0,0,0,0,0c0.4,0,0.7,0,0.9,0c0.4,0,0.8,0,1.3,0c0,0,0,0,0,0c0.4,0,0.7,0.3,0.7,0.6
						c0,0.3-0.2,0.6-0.6,0.6c-0.3,0-0.4,0-0.7,0c-0.2,0-0.4,0.2-0.4,0.4c0,0.1,0,0.6,0.7,12.3c0,0.3,0.1,0.4,0.4,0.4
						c0.3,0,0.4,0,0.7,0c0.7,0,0.7,0.6,0.7,0.6C186.7,36.9,186.5,37.2,186,37.2C186,37.2,186,37.2,186,37.2z"/>
					<path class="st3" d="M193.8,37.5c-2.9,0-5.1-2.1-5.1-5.1c0-3.2,2.4-5.2,5-5.2c3.1,0,4.5,2.3,4.5,3.5c0,0.8-0.5,1.4-1.6,1.4
						c-0.5,0-1.3,0-2.1,0c-1.7,0-3.6,0-4.1,0c-0.2,0-0.3,0.1-0.3,0.4c0,2.4,1.6,3.8,3.8,3.8c1.6,0,2.6-0.7,3.3-1.4
						c0.1-0.1,0.3-0.2,0.5-0.2c0.3,0,0.7,0.3,0.7,0.6C198.2,35.8,196.6,37.5,193.8,37.5z M193.7,28.2c-2.2,0-3.5,1.9-3.5,2.7
						c0,0.2,0.2,0.2,2.8,0.2c1.2,0,2.4,0,3.1,0c0.5,0,0.7-0.3,0.7-0.6C196.8,29.9,196,28.2,193.7,28.2z"/>
					<path class="st3" d="M211.3,37.2c-0.6,0-1.2,0-1.8,0c-0.6,0-1.1,0-1.6,0c-0.5,0-0.7-0.3-0.7-0.6c0-0.3,0.2-0.6,0.7-0.6h0
						c0.3,0,0.3,0,0.7,0c0.2,0,0.3-0.2,0.3-0.4c0-1,0-2.2,0-3.2c0-0.7,0-1.3,0-1.6c-0.1-1.8-1.3-2.5-2.6-2.5c-1.6,0-3.3,1.1-3.4,2.9
						c0,0.4,0,1.1,0,1.8c0,0.8,0,1.7,0,2.7c0,0.2,0.1,0.4,0.4,0.4c0.3,0,0.3,0,0.6,0c0.4,0,0.7,0.2,0.7,0.6c0,0.3-0.2,0.6-0.7,0.6h0
						c-0.6,0-1.2,0-1.8,0c-0.6,0-1.1,0-1.7,0c-0.5,0-0.7-0.3-0.7-0.6c0-0.3,0.2-0.6,0.7-0.6h0c0.3,0,0.3,0,0.7,0
						c0.2,0,0.4-0.1,0.4-0.4c0-1.4,0-2.5,0-3.6c0-0.8,0-1.6,0-2.6c0-0.6-0.2-1-0.7-1c-0.2,0-0.2,0-0.5,0c0,0,0,0,0,0
						c-0.4,0-0.6-0.3-0.6-0.6s0.2-0.6,0.7-0.6h0.7c0.9,0,1.7,0.4,1.8,1.2c0,0.1,0,0.1,0.1,0.1c0,0,0.1,0,0.1-0.1
						c0.8-1,2.1-1.5,3.3-1.5c1.9,0,3.7,1.1,3.8,3.5c0,0.7,0,2.5,0,4c0,0.4,0,0.7,0,1c0,0.2,0.1,0.4,0.4,0.4c0.3,0,0.3,0,0.7,0h0
						c0.4,0,0.7,0.3,0.7,0.6C212,36.9,211.8,37.2,211.3,37.2L211.3,37.2L211.3,37.2z"/>
					<path class="st3" d="M216.9,28.5c-0.4,0-0.4,0-0.4,0.3c0,0.8-0.1,3-0.1,4.6c0,1.7,0,2.8,1.8,2.8c0.2,0,0.4,0,0.6,0
						c0,0,0,0,0.1,0c0.3,0,0.5,0.3,0.5,0.6c0,0.6-0.5,0.7-1.4,0.7c-2.9,0-2.9-2.4-2.9-3.3c0-1.4,0-4,0-5.1c0-0.1,0-0.3,0-0.3
						c0-0.2-0.1-0.2-0.2-0.2h-1.3c-0.4,0-0.6-0.3-0.6-0.6c0-0.3,0.2-0.6,0.6-0.6h1.3c0.2,0,0.2,0,0.2-0.2c0-0.1,0-1.1,0-1.9
						c0-0.2,0-0.4,0-0.5v0c0-0.4,0.3-0.6,0.7-0.6c0.3,0,0.7,0.2,0.7,0.7c0,0.6,0,2.4,0,2.4c0,0.2,0,0.2,0.3,0.2h2
						c0.4,0,0.6,0.3,0.6,0.6c0,0.3-0.2,0.6-0.6,0.6L216.9,28.5L216.9,28.5z"/>
					<path class="st3" d="M228.9,35.9c0-0.1,0-0.1-0.1-0.1c0,0-0.1,0-0.1,0.1c-0.7,1-2.1,1.7-3.4,1.7c-2.3,0-3.7-1.5-3.7-3
						c0-1.1,0.7-2.2,2.4-2.7c1.4-0.4,3.2-0.7,4.2-0.9c0.3,0,0.4-0.1,0.4-0.3c0-0.1,0-0.2,0-0.3c0-1.2-0.5-2.1-2.3-2.1
						c-1.2,0-2.1,0.5-2.6,1c-0.1,0.1-0.3,0.2-0.5,0.2c-0.3,0-0.6-0.2-0.6-0.6c0-0.8,1.9-1.8,3.8-1.8c2.1,0,3.5,0.9,3.5,3.3
						c0,0.2,0,0.4,0,0.6c-0.1,0.7-0.1,1.8-0.1,2.7c0,1.6,0.2,2.1,1.1,2.4c0.3,0.1,0.4,0.3,0.4,0.5c0,0.3-0.2,0.6-0.6,0.6
						C230,37.3,229.1,36.7,228.9,35.9z M228.6,32.6c0-0.1,0-0.2,0-0.3c0-0.2-0.1-0.2-0.2-0.2c0,0,0,0-0.1,0c-3.5,0.5-5.4,1-5.4,2.5
						c0,0.9,0.9,1.8,2.4,1.8C226.5,36.3,228.6,35.9,228.6,32.6z"/>
					<path class="st3" d="M237.2,37.2c-0.6,0-1.3,0-1.9,0c-0.6,0-1.3,0-1.8,0c-0.1,0-0.7,0-0.7-0.6c0-0.3,0.2-0.6,0.7-0.6h0
						c0.2,0,0.3,0,0.4,0c0.4,0,0.8,0,0.8-0.4c0-1.9,0-5.9,0-9c0-1.1,0-2.1,0-2.9c0-0.6-0.1-0.9-0.7-1c-0.2,0-0.2,0-0.5,0
						c0,0,0,0,0,0c-0.4,0-0.6-0.3-0.6-0.6c0-0.3,0.2-0.6,0.6-0.6h0.7c1.4,0,1.9,0.8,1.9,1.8c0,0,0,0,0,0.1c0,2.3-0.1,7.2-0.1,10.4
						c0,0.7,0,1.3,0,1.8c0,0.3,0.3,0.4,0.9,0.4c0.1,0,0.2,0,0.3,0h0c0.4,0,0.7,0.3,0.7,0.6S237.7,37.2,237.2,37.2L237.2,37.2
						L237.2,37.2z"/>
					<path class="st3" d="M254.8,37.5c-5,0-8.1-3.5-8.1-7.9c0-4.1,3-8.2,8.2-8.2c1.5,0,3,0.4,4.3,1.2c0,0,0.2,0.1,0.2-0.2
						c0-0.5,0.1-0.8,0.6-0.8c0.3,0,0.7,0.2,0.7,0.6c0,0,0,0,0,0c0,0.6,0,1,0,1.5s0,1,0,1.6c0,0,0,0,0,0c0,0.4-0.3,0.6-0.7,0.6
						c-0.3,0-0.7-0.2-0.7-0.6c0-0.3,0-1-0.3-1.2c-1.1-1.1-2.6-1.6-4.2-1.6c-4.2,0-6.7,3.4-6.7,6.8c0,3.2,2.1,6.7,6.6,6.7
						c2,0,4-0.8,5.1-2.2c0.2-0.2,0.4-0.3,0.7-0.3c0.4,0,0.8,0.4,0.8,0.8C261.4,35.1,258.8,37.5,254.8,37.5z"/>
					<path class="st3" d="M267.3,37.2c-0.6,0-1.3,0-1.9,0c-0.6,0-1.3,0-1.8,0c-0.1,0-0.7,0-0.7-0.6c0-0.3,0.2-0.6,0.7-0.6h0
						c0.2,0,0.3,0,0.4,0c0.4,0,0.8,0,0.8-0.4c0-1.9,0-5.9,0-9c0-1.1,0-2.1,0-2.9c0-0.6-0.1-0.9-0.7-1c-0.2,0-0.2,0-0.5,0
						c0,0,0,0,0,0c-0.4,0-0.6-0.3-0.6-0.6c0-0.3,0.2-0.6,0.7-0.6h0.7c1.4,0,1.9,0.8,1.9,1.8c0,0,0,0,0,0.1c0,2.3-0.1,7.2-0.1,10.4
						c0,0.7,0,1.3,0,1.8c0,0.3,0.3,0.4,0.9,0.4c0.1,0,0.2,0,0.3,0h0c0.5,0,0.7,0.3,0.7,0.6S267.8,37.2,267.3,37.2L267.3,37.2
						L267.3,37.2z"/>
					<path class="st3" d="M273.6,37.2c-0.6,0-1.3,0-1.9,0c-0.6,0-1.3,0-1.8,0c-0.1,0-0.7,0-0.7-0.6c0-0.3,0.2-0.6,0.7-0.6h0
						c0.3,0,0.4,0,0.8,0c0.3,0,0.4-0.2,0.4-0.4c0-2.1,0-4.2,0-6.1c0-0.6-0.2-1-0.8-1c-0.2,0-0.3,0-0.5,0c0,0,0,0,0,0
						c-0.4,0-0.6-0.3-0.6-0.6c0-0.3,0.2-0.6,0.7-0.6c0.4,0,0.4,0,0.9,0c1.2,0,1.7,0.9,1.7,1.8c0,0,0,0,0,0.1c0,1.5,0,3.2,0,4.7
						c0,0.6,0,1.1,0,1.7c0,0.2,0.1,0.4,0.4,0.4c0.4,0,0.5,0,0.8,0c0.1,0,0.7,0,0.7,0.6C274.3,36.9,274.1,37.2,273.6,37.2L273.6,37.2
						L273.6,37.2z M271.3,23.4c-0.1,0-1.1,0-1.1-1c0-0.7,0.6-1,1.1-1c0.7,0,1.1,0.5,1.1,1C272.5,22.6,272.4,23.4,271.3,23.4z"/>
					<path class="st3" d="M286.8,37.2c-0.6,0-1.2,0-1.8,0c-0.6,0-1.1,0-1.6,0c-0.5,0-0.7-0.3-0.7-0.6c0-0.3,0.2-0.6,0.7-0.6h0
						c0.3,0,0.3,0,0.7,0c0.2,0,0.3-0.2,0.3-0.4c0-1,0-2.2,0-3.2c0-0.7,0-1.3,0-1.6c-0.1-1.8-1.3-2.5-2.6-2.5c-1.6,0-3.3,1.1-3.4,2.9
						c0,0.4,0,1.1,0,1.8c0,0.8,0,1.7,0,2.7c0,0.2,0.1,0.4,0.4,0.4c0.3,0,0.3,0,0.6,0c0.4,0,0.7,0.2,0.7,0.6c0,0.3-0.2,0.6-0.7,0.6h0
						c-0.6,0-1.2,0-1.8,0c-0.6,0-1.1,0-1.6,0c-0.5,0-0.7-0.3-0.7-0.6c0-0.3,0.2-0.6,0.7-0.6h0c0.3,0,0.3,0,0.7,0
						c0.2,0,0.4-0.1,0.4-0.4c0-1.4,0-2.5,0-3.6c0-0.8,0-1.6,0-2.6c0-0.6-0.2-1-0.7-1c-0.2,0-0.2,0-0.5,0c0,0,0,0,0,0
						c-0.4,0-0.6-0.3-0.6-0.6s0.2-0.6,0.7-0.6h0.7c0.9,0,1.7,0.4,1.8,1.2c0,0.1,0,0.1,0.1,0.1c0,0,0.1,0,0.1-0.1
						c0.8-1,2.1-1.5,3.3-1.5c1.9,0,3.7,1.1,3.8,3.5c0,0.7,0,2.5,0,4c0,0.4,0,0.7,0,1c0,0.2,0.1,0.4,0.4,0.4c0.3,0,0.3,0,0.7,0h0
						c0.4,0,0.7,0.3,0.7,0.6C287.5,36.9,287.3,37.2,286.8,37.2L286.8,37.2L286.8,37.2z"/>
					<path class="st3" d="M293.1,37.2c-0.6,0-1.3,0-1.9,0c-0.6,0-1.3,0-1.8,0c-0.1,0-0.7,0-0.7-0.6c0-0.3,0.2-0.6,0.7-0.6h0
						c0.3,0,0.4,0,0.8,0c0.3,0,0.4-0.2,0.4-0.4c0-2.1,0-4.2,0-6.1c0-0.6-0.2-1-0.8-1c-0.2,0-0.3,0-0.5,0c0,0,0,0,0,0
						c-0.4,0-0.6-0.3-0.6-0.6c0-0.3,0.2-0.6,0.7-0.6c0.4,0,0.4,0,0.9,0c1.2,0,1.7,0.9,1.7,1.8c0,0,0,0,0,0.1c0,1.5,0,3.2,0,4.7
						c0,0.6,0,1.1,0,1.7c0,0.2,0.1,0.4,0.4,0.4c0.4,0,0.5,0,0.8,0c0.1,0,0.7,0,0.7,0.6C293.8,36.9,293.6,37.2,293.1,37.2L293.1,37.2
						L293.1,37.2z M290.8,23.4c-0.1,0-1.1,0-1.1-1c0-0.7,0.6-1,1.1-1c0.7,0,1.1,0.5,1.1,1C291.9,22.6,291.8,23.4,290.8,23.4z"/>
					<path class="st3" d="M300.9,37.5c-3.5,0-5.3-2.5-5.3-5.1c0-3,2.2-5.3,5.1-5.3c1,0,1.9,0.3,2.6,0.6c0,0,0.1,0,0.1,0
						c0.1,0,0.1-0.1,0.1-0.2c0-0.3,0.3-0.4,0.5-0.4c0.3,0,0.7,0.2,0.7,0.5c0,0,0,0,0,0c0,0.5,0,0.8,0,1.1c0,0.3,0,0.7,0,1.2
						c0,0,0,0,0,0c0,0.4-0.3,0.5-0.7,0.5c-0.3,0-0.6-0.2-0.6-0.5c0-0.5,0-0.7-0.2-1c-0.6-0.6-1.4-0.9-2.3-0.9
						c-2.2,0-3.9,1.7-3.9,4.1c0,2,1.3,4,3.9,4c1.2,0,2.3-0.4,2.9-1.3c0.2-0.2,0.4-0.3,0.6-0.3c0.4,0,0.7,0.3,0.7,0.7
						C305,36,303.3,37.5,300.9,37.5z"/>
				</g>
			</g>
		</g>
	</g>
</g>
</svg>
