<?xml version="1.0" encoding="utf-8"?>
<!-- Generator: Adobe Illustrator 28.1.0, SVG Export Plug-In . SVG Version: 6.00 Build 0)  -->
<svg version="1.1" id="レイヤー_1" xmlns="http://www.w3.org/2000/svg" xmlns:xlink="http://www.w3.org/1999/xlink" x="0px"
	 y="0px" viewBox="0 0 100 100" style="enable-background:new 0 0 100 100;" xml:space="preserve">
<style type="text/css">
	.st0{fill:#FFFFFF;}
	.st1{opacity:0.8;}
	.st2{fill:#DD87AA;}
	.st3{opacity:0.8;fill:#DD87AA;enable-background:new    ;}
</style>
<g id="map_カレンダー">
	<g>
		<g>
			
				<image style="overflow:visible;opacity:0.65;enable-background:new    ;" width="109" height="109" xlink:href="DD19D8F9D4C5D10A.png"  transform="matrix(0.9908 0 0 0.9908 -1.8242 -1.4902)">
			</image>
			<g>
				<circle class="st0" cx="50" cy="50" r="41.8"/>
			</g>
		</g>
		<g class="st1">
			<path class="st2" d="M30.5,74.8c-0.1-0.3-0.3-0.9-0.7-0.9c-0.6,0-0.4,2.7-0.4,3.3c0,2.2,1.3,1.2,1.3,2.2c0,1.2-2.2,1.2-3,1.2
				c-0.7,0-2.6-0.1-2.6-1.1c0-1.2,1.2-0.2,1.4-1.9c0.2-1.7,0.3-3.6,0.3-6.5c0-1.2-0.1-1.8-0.3-2.3c-0.2-0.4-1.4-0.6-1.4-1.4
				c0-1.2,1.9-1.4,3.5-1.4c2.4,0,2.3,0.4,2.9,1.4c0.7,1.2,2,4.5,2.9,4.7c0.6,0.1,1.5-2.3,2.2-3.6c1-1.9,1.1-2.5,3.7-2.5
				c0.9,0,2.9,0.1,2.9,1.3c0,0.8-0.9,1-1.1,1.7c-0.2,0.6-0.3,3-0.3,3.9c0,0.3,0.1,2.5,0.2,4.4c0.1,1.5,1.3,1.2,1.3,2.1
				c0,1.4-2.8,1.3-3.7,1.3c-0.8,0-3.6,0.1-3.6-1.2c0-0.7,0.9-0.8,1.1-1.5c0.1-0.3,0.5-3.8-0.2-3.8c-0.6,0-1.3,1.8-1.8,2.8
				c-0.4,0.9-1.2,3.2-1.8,3.2c-0.3,0-0.5,0-1.7-2.7L30.5,74.8z"/>
			<path class="st2" d="M47.8,73.2c0.6-1.4,1.5-3.2,1.5-4.8c0-1.4,0.6-2.4,2.4-2.4c1.8,0,2.9,1.8,3.7,3.1c0.3,0.6,3.4,6.8,4.1,8.4
				c0.7,1.5,1.8,0.6,1.8,1.8c0,1.5-2.9,1.4-3.9,1.4c-2.9,0-4.6,0-4.6-1.3c0-1,1.2-0.6,1.2-1.3c0-0.9-0.5-1-3.8-1c-1.1,0-1.7,0-1.7,1
				c0,0.8,1.3,0.3,1.3,1.3c0,1.2-2.2,1.2-3,1.2c-2.9,0-3.2-0.5-3.2-1.2c0-1,1.1-0.7,1.7-1.4c0.4-0.5,0.9-1.5,1.2-2.2L47.8,73.2z
				 M52,74.7c0.2,0,0.8,0,0.8-0.3c0-0.3-0.6-1.4-0.7-1.6c-0.2-0.3-0.5-1.1-1-1.1c-0.5,0-0.8,1.2-0.9,1.4c-0.1,0.2-0.4,1-0.4,1.3
				c0,0.3,0.5,0.3,0.7,0.3L52,74.7L52,74.7z"/>
			<path class="st2" d="M63.4,69.4c0-1.5-1.9-0.8-1.9-2.1c0-0.8,0.9-1,1.5-1c0.5,0,1,0,1.5,0c2.9,0,4.7-0.3,5.6-0.3
				c2.8,0,5.4,1.6,5.4,4.6c0,3-2.5,4.6-5.4,4.6c-0.6,0-1.2-0.1-1.8-0.1c-0.2,0-0.3,0.1-0.3,0.3v1.2c0.1,2.5,1.5,1.5,1.5,2.7
				c0,1.3-2.9,1.4-3.8,1.4c-0.8,0-3.8,0-3.8-1.3c0-1.1,1.5-0.4,1.5-2.1C63.4,77.3,63.4,69.4,63.4,69.4z M68.8,68.4
				c-0.8,0-0.8,0.2-0.8,0.6v3c0,0.4-0.2,0.9,0.9,0.9c1.3,0,1.9-1,1.9-2.2C70.8,69.5,70.2,68.4,68.8,68.4z"/>
		</g>
		<g>
			<path class="st3" d="M50.2,61.2c0,0-16-14.5-16.8-25.1C31.4,10.8,70,10.8,65.8,37.6C63.5,52.5,50.2,61.2,50.2,61.2z"/>
			<path class="st0" d="M49.9,54.2c0,0-8-7.2-8.4-12.5C40.6,29,59.8,29,57.7,42.4C56.6,49.8,49.9,54.2,49.9,54.2z"/>
		</g>
	</g>
</g>
</svg>
