<?xml version="1.0" encoding="utf-8"?>
<!-- Generator: Adobe Illustrator 28.1.0, SVG Export Plug-In . SVG Version: 6.00 Build 0)  -->
<svg version="1.1" id="レイヤー_1" xmlns="http://www.w3.org/2000/svg" xmlns:xlink="http://www.w3.org/1999/xlink" x="0px"
	 y="0px" viewBox="0 0 110 110" style="enable-background:new 0 0 110 110;" xml:space="preserve">
<style type="text/css">
	.st0{fill-rule:evenodd;clip-rule:evenodd;fill:#F2F2F2;}
	.st1{fill:none;stroke:#696969;stroke-width:2;stroke-linecap:round;stroke-linejoin:round;stroke-miterlimit:10;}
</style>
<g id="レイヤー_5">
	<g>
		<g>
			
				<image style="overflow:visible;opacity:0.6;enable-background:new    ;" width="488" height="483" xlink:href="8AE9DCB13C147622.png"  transform="matrix(0.2366 0 0 0.2366 -2.6904 -2.099)">
			</image>
			<g>
				<circle class="st0" cx="55" cy="55" r="51.5"/>
			</g>
		</g>
		<g>
			<path class="st1" d="M71.4,68.8c1.1,2.9-1.5,4.8-2.2,7.2c-1.1,3.9-0.3,6.5,4.3,6.5c5.3,0,10.6-0.1,15.9,0c2.6,0,4.2-0.8,4.4-3.6
				c0.2-3.3-2.6-3.2-4.4-3.5c-2.9-0.5-5.9-0.1-9.7-0.1c9.6-13.2,8.8-22.4-1.1-33.3c-3.7-4.1-7.1-3.5-10.9-0.6
				c-1.1,0.8-2.3,1.7-2.8,2.9c-2.7,5.6-7,9-13.1,10c-2.8,0.5-4.1,1.9-3.5,4.4c0.7,3,2.6,2.2,5,1.7c2.2-0.5,4.6-0.8,7.2-0.4
				c6.4,0.9,8.4-1.4,9.4-8.4"/>
			<path class="st1" d="M60.6,60.8c-4.2,6.1-1.4,13-2.1,19.5c-0.2,1.6,1.2,2.3,2.8,2.2c2.6-0.3,4.3-1.5,4.3-4.3c0-3.1,0-6.3,0-9.7
				c3.6-1.1,8,1,8.9-4.7c0.6-4.4-2.2-5-4.5-6.5"/>
			<path class="st1" d="M39,46.4c-7.9-3.8-10.4-3-15.2,4.3c-3.3,5.1-6.3,10.1-4.4,16.6c0.6,2-0.1,3.9-1.9,5.9
				c-3.2,3.8-0.3,9,4.9,9.2c4.8,0.2,9.6,0,14.4,0c0.5,0,1,0,1.4,0c5.2,0.2,3-5.7,5.8-7.2c4.8-2.5,2.8-4.7,0.8-8.1
				c-3.7-6.6-4.1-14.2-5.2-21.6"/>
			<path class="st1" d="M40.4,45c-1.3-3.5-2.6-6.8,0.7-10.1c2.7-2.7,5.3-3.7,8.7-1.4c3.5,2.4,4.8,5.5,2.9,9.4
				c-1.8,3.6-4.5,5.6-8.6,3.6c-1.4-0.7-2.7-1.6-4.3-0.7"/>
			<path class="st1" d="M32.5,55.8c-0.9,8.7,4.6,14.1,10.1,19.5"/>
			<path class="st1" d="M19.5,72.4c3.7,1.7,7.4,2.9,11.6,2.2"/>
			<path class="st1" d="M64.2,22.6c-5.2,1.4-8.4,4.5-7.1,10.1c0.7,3.3,3.7,4.8,7.1,5.1c3.4,0.2,6-2,7-4.4c0.9-2.3,1.3-5.9-1.9-7.9
				c-1.5-0.9-2.9-1.9-4.3-2.9"/>
		</g>
	</g>
</g>
</svg>
