<?xml version="1.0" encoding="utf-8"?>
<!-- Generator: Adobe Illustrator 28.1.0, SVG Export Plug-In . SVG Version: 6.00 Build 0)  -->
<svg version="1.1" id="レイヤー_1" xmlns="http://www.w3.org/2000/svg" xmlns:xlink="http://www.w3.org/1999/xlink" x="0px"
	 y="0px" viewBox="0 0 110 110" style="enable-background:new 0 0 110 110;" xml:space="preserve">
<style type="text/css">
	.st0{fill-rule:evenodd;clip-rule:evenodd;fill:#F2F2F2;}
	.st1{fill:none;stroke:#696969;stroke-width:1.9564;stroke-linecap:round;stroke-linejoin:round;stroke-miterlimit:10;}
</style>
<g id="診療内容_1_">
	<g>
		<g>
			
				<image style="overflow:visible;opacity:0.6;enable-background:new    ;" width="488" height="483" xlink:href="8AD90697C7F7CD90.png"  transform="matrix(0.2366 0 0 0.2366 -2.6904 -2.099)">
			</image>
			<g>
				<circle class="st0" cx="55" cy="55" r="51.5"/>
			</g>
		</g>
		<g>
			<path class="st1" d="M60.5,23.6c-6.2-4.1-12.3-4-17.6,1.5c-1.4,1.4-3,1.6-4.4,1.9c-6.1,1.2-8.1,5.3-7.7,10.7
				c0.4,5.2,4.3,8.2,10.5,8.4c5.2,0.2,10.4,0,15.5,0c4.7,0,9.4,0.2,14.1-0.1c4-0.2,7.5-1.4,7.8-6.3c0.2-3.8,1-7.8-4.2-9.2
				c-1.8-0.5-2.6-2-3.6-3.5c-2.3-3.4-5.5-5.2-9.8-4.3"/>
			<path class="st1" d="M66.1,66.7c0-2.4,0.4-4.8-0.1-7c-1.2-5.7-8.7-9.7-14-7.8c-5.8,2.1-9.8,9.7-7.8,14.8
				c2.5,6.4,9.2,8.6,15.6,5.8c2.7-1.2,4.1-2.9,5.6-5.1"/>
			<path class="st1" d="M43.5,66c-10.2,4.9-9.1,14.5-9.9,23.3"/>
			<path class="st1" d="M66.8,67.4c7.1,1.7,8.3,7.5,9.2,13.4c0.4,2.8,0.5,5.6,0.7,8.5"/>
		</g>
	</g>
</g>
</svg>
