<?xml version="1.0" encoding="utf-8"?>
<!-- Generator: Adobe Illustrator 28.1.0, SVG Export Plug-In . SVG Version: 6.00 Build 0)  -->
<svg version="1.1" id="レイヤー_1" xmlns="http://www.w3.org/2000/svg" xmlns:xlink="http://www.w3.org/1999/xlink" x="0px"
	 y="0px" viewBox="0 0 110 110" style="enable-background:new 0 0 110 110;" xml:space="preserve">
<style type="text/css">
	.st0{fill-rule:evenodd;clip-rule:evenodd;fill:#F2F2F2;}
	.st1{fill:none;stroke:#696969;stroke-width:2.1696;stroke-linecap:round;stroke-linejoin:round;stroke-miterlimit:10;}
</style>
<g id="レイヤー_5">
	<g>
		<g>
			
				<image style="overflow:visible;opacity:0.6;enable-background:new    ;" width="488" height="483" xlink:href="8AFAB2CAB0311EB4.png"  transform="matrix(0.2366 0 0 0.2366 -2.6904 -2.099)">
			</image>
			<g>
				<circle class="st0" cx="55" cy="55" r="51.5"/>
			</g>
		</g>
		<g>
			<path class="st1" d="M75,43.6c8.5-3.8,13.8-3.1,18,2.3c4.9,6.4,2.4,12.9-5.5,14.9c-4,1-7.8,2.8-11.7,4.2
				c-1.6-2.5-0.9-5.1-0.8-7.4c0.7-16.7-5.4-20.3-17.3-24.9c-9-3.5-18.3-3.6-27.4,0.6c-11.6,5.4-12.8,9.3-6.4,20.5
				c0.6,1,0.7,2.2,1.7,3.1"/>
			<path class="st1" d="M42.1,47.5c6.6,1.9,11.6,6.7,17.1,10.3c4.9,3.3,3.2,10,5.8,15.1c-3.1,4.3-7.7,5.1-12.7,5.1
				c-8.9,0-17.8-0.1-26.6,0c-4.5,0.1-7-1.2-7.2-6.3c-0.2-5.1,3-5.1,6.4-5.5c8.3-1.1,16.6-2.4,25.1-2.3"/>
			<path class="st1" d="M93,61.6c3.6,3.8,1.9,7.6-1.7,9.2c-6.7,3-14,5.1-21.1,7.1c-1.9,0.5-4-0.5-5.4-2.2"/>
			<path class="st1" d="M35.1,63.9c-0.8-3.3-4.6-3-6.5-5.3c-2.2-2.6-6-0.8-8.3,0.8c-2.3,1.6-4.2,4.7-0.9,7.6"/>
		</g>
	</g>
</g>
</svg>
