<?xml version="1.0" encoding="utf-8"?>
<!-- Generator: Adobe Illustrator 28.1.0, SVG Export Plug-In . SVG Version: 6.00 Build 0)  -->
<svg version="1.1" id="レイヤー_1" xmlns="http://www.w3.org/2000/svg" xmlns:xlink="http://www.w3.org/1999/xlink" x="0px"
	 y="0px" viewBox="0 0 110 110" style="enable-background:new 0 0 110 110;" xml:space="preserve">
<style type="text/css">
	.st0{fill-rule:evenodd;clip-rule:evenodd;fill:#F2F2F2;}
	.st1{fill:none;stroke:#696969;stroke-width:2;stroke-linecap:round;stroke-linejoin:round;stroke-miterlimit:10;}
</style>
<g id="レイヤー_5">
	<g>
		<g>
			
				<image style="overflow:visible;opacity:0.6;enable-background:new    ;" width="488" height="483" xlink:href="8AE171A4820621DB.png"  transform="matrix(0.2366 0 0 0.2366 -2.6904 -2.099)">
			</image>
			<g>
				<circle class="st0" cx="55" cy="55" r="51.5"/>
			</g>
		</g>
		<path class="st1" d="M41.8,32.8c-8.5,3.4-13.7,10.1-17.3,18.1c-3.2,7-1.5,10.6,5.8,12.2c6.2,1.4,12.5,2,18.8,3"/>
		<path class="st1" d="M72.8,65.3c0.7,5.1,1.6,10.1,2.1,15.2c0.5,4.4-1.6,7.9-5.8,8.4c-3.5,0.4-6.1-1.6-6.6-6.3
			c-1-9-4.3-17.5-5.2-26.7c-0.4-4.5,0.3-7.5,4-8.5c3.8-0.9,8.5-1.1,9.3,4.8"/>
		<path class="st1" d="M68.5,32.8c8.1,3.8,13.3,10.6,17.2,18.1c3.1,6-0.1,11-7.1,12.2c-6,1.1-12,1.9-18,2.9"/>
		<path class="st1" d="M37.4,66c-0.7,5.1-1.6,10.1-2.1,15.2c-0.4,3.7-0.2,7,5,7.3c4.6,0.3,6.4-2.1,7.2-5.9c1-4.8,3-9.7,2.6-14.4
			c-0.3-4.1,5.9-7.5,1-11.5c-3.5-2.9-8.3-1.8-12.3-3.6c-1.2-0.5-3.3,1.2-3.6-1.5"/>
		<path class="st1" d="M43.2,33.6c1.9,8.4,5,11.5,11.6,11.6c5.9,0,9.4-3,11.6-9.4c1.9-5.5-0.3-9.4-4.5-12.2c-4.3-2.9-9-3.8-13.7-0.1
			c-3.1,2.5-4.7,5.7-5.8,9.4"/>
		<path class="st1" d="M51.9,56.7c2.2-4.4,0.6-8-3.7-9.2c-4-1.1-8.4-0.4-8.6,5.6"/>
		<path class="st1" d="M74.3,52.3C69,54,63.4,54.1,58.4,56.7"/>
		<path class="st1" d="M50.4,74.7c3.1-0.5,6.4,0.9,9.4-0.7"/>
	</g>
</g>
</svg>
