<?xml version="1.0" encoding="utf-8"?>
<!-- Generator: Adobe Illustrator 28.1.0, SVG Export Plug-In . SVG Version: 6.00 Build 0)  -->
<svg version="1.1" id="レイヤー_1" xmlns="http://www.w3.org/2000/svg" xmlns:xlink="http://www.w3.org/1999/xlink" x="0px"
	 y="0px" viewBox="0 0 110 110" style="enable-background:new 0 0 110 110;" xml:space="preserve">
<style type="text/css">
	.st0{fill-rule:evenodd;clip-rule:evenodd;fill:#F2F2F2;}
	.st1{fill:none;stroke:#696969;stroke-width:2.2354;stroke-linecap:round;stroke-linejoin:round;stroke-miterlimit:10;}
</style>
<g id="レイヤー_5">
	<g>
		<g>
			
				<image style="overflow:visible;opacity:0.6;enable-background:new    ;" width="488" height="483" xlink:href="8AF247BDF622CA6D.png"  transform="matrix(0.2366 0 0 0.2366 -2.6904 -2.099)">
			</image>
			<g>
				<circle class="st0" cx="55" cy="55" r="51.5"/>
			</g>
		</g>
		<path class="st1" d="M20.4,53.9c1.5,25.9,20.1,36.2,36.3,35.3c15.5-0.9,26-9.5,31.5-24"/>
		<path class="st1" d="M89.8,56.3C89.3,32.8,70,16.6,47.1,21.6c-12.1,2.7-19.8,10.5-24.2,21.8"/>
		<path class="st1" d="M67.2,48.3c0.2-4.5,0.1-8.8-4-12.2c-5-4.2-11.5-4.4-16.2,0.1c-4.8,4.6-5.5,11.3-1.6,16.1
			c4.1,5,11.9,6.3,16.9,2.3c1.7-1.4,2.8-3.7,4.1-5.6"/>
		<path class="st1" d="M68,49.1c7.2,3,8.8,9.3,9.7,16.1c0.3,2.7,0.6,5.4,0.8,8.1"/>
		<path class="st1" d="M42.2,49.1c-7.2,3-8.8,9.3-9.7,16.1c-0.3,2.7-0.5,5.4-0.8,8.1"/>
		<path class="st1" d="M14,57.1c3-1.1,4.4-4.9,8.1-4.8c2.5,1.8,5.2,3.4,6.4,6.4"/>
		<path class="st1" d="M81.8,52.3c2.2,1.6,4.3,3.2,6.6,4.9c2.9-1.2,6.1-1.9,7.9-4.9"/>
	</g>
</g>
</svg>
