<?xml version="1.0" encoding="utf-8"?>
<!-- Generator: Adobe Illustrator 28.1.0, SVG Export Plug-In . SVG Version: 6.00 Build 0)  -->
<svg version="1.1" id="レイヤー_1" xmlns="http://www.w3.org/2000/svg" xmlns:xlink="http://www.w3.org/1999/xlink" x="0px"
	 y="0px" viewBox="0 0 110 110" style="enable-background:new 0 0 110 110;" xml:space="preserve">
<style type="text/css">
	.st0{fill-rule:evenodd;clip-rule:evenodd;fill:#F2F2F2;}
	.st1{fill:none;stroke:#696969;stroke-width:2;stroke-linecap:round;stroke-linejoin:round;stroke-miterlimit:10;}
</style>
<g id="レイヤー_5">
	<g>
		<g>
			
				<image style="overflow:visible;opacity:0.6;enable-background:new    ;" width="488" height="483" xlink:href="8B031DD76A3F72FF.png"  transform="matrix(0.2366 0 0 0.2366 -2.6904 -2.099)">
			</image>
			<g>
				<circle class="st0" cx="55" cy="55" r="51.5"/>
			</g>
		</g>
		<path class="st1" d="M54.5,55.4c-1.1-5.1-5.3-6.1-9.4-7.1c-1.8-0.4-3.8-0.1-5.8-0.1c-15,0-18.8,5.4-14.4,20.2
			C28.6,81,37,88,48,87.9c5.6-0.1,7-2.2,5.1-7.2c-4-10.2-1.6-22.1,5.9-28.3c-2.1-6,0-11.1,5-14.1c3.6-2.2,8.7-2.1,12,0.7
			c4.1,3.4,5.4,8.3,3,13.7c5.8,0.8,6.5,5.4,7.4,9.9c-6.4,4.7-8.6,4.1-11.7-3.5"/>
		<path class="st1" d="M81.2,67c0,6.5,0,13,0,19.5"/>
		<path class="st1" d="M35.7,67c2.4,7.3,6.7,12.2,15.2,11.6"/>
		<path class="st1" d="M59.5,54c8,6.8,12.4,6.8,19.5,0"/>
		<path class="st1" d="M28.5,79.2c-1.5,2.3-0.3,4.8-0.7,7.2"/>
		<path class="st1" d="M38.6,20.8C28.4,24.5,25,34.8,32.2,40.9c3.4,2.8,7.8,4.2,12.2,2.2c4.4-2.1,7.2-5.7,7.2-10.8
			c-0.1-5-2.1-9-7.2-10.8c-1.6-0.5-3.4-0.5-5-0.8"/>
	</g>
</g>
</svg>
