<?xml version="1.0" encoding="utf-8"?>
<!-- Generator: Adobe Illustrator 28.1.0, SVG Export Plug-In . SVG Version: 6.00 Build 0)  -->
<svg version="1.1" id="レイヤー_1" xmlns="http://www.w3.org/2000/svg" xmlns:xlink="http://www.w3.org/1999/xlink" x="0px"
	 y="0px" viewBox="0 0 50 50" style="enable-background:new 0 0 50 50;" xml:space="preserve">
<style type="text/css">
	.st0{fill:#FFFFFF;}
</style>
<g id="バナー">
	<g>
		<path class="st0" d="M36.8,50c-5.7,0-10.7-2.1-15.2-5.3C13.5,39,7,31.9,2.1,23.2c-1.7-3.1-2.5-6.5-1.9-10.1c0.5-2.8,4-6.3,6.7-6.9
			c1.1-0.2,2,0,2.8,0.8c2.7,3,4.9,6.3,6.6,10c0.6,1.4,0.5,2.8-0.5,4c-0.5,0.7-1,1.4-1.5,2c-0.5,0.5-0.4,0.9,0,1.5
			c1.2,1.8,2.6,3.5,4.2,5c2.4,2.5,5,4.8,7.9,6.7c0.6,0.4,1.1,0.5,1.7-0.1c0.6-0.6,1.3-1,1.9-1.5c1.2-1,2.6-1.1,4-0.6
			c1.1,0.4,2.1,0.9,3,1.4c2.2,1.2,4.3,2.5,6.3,4c2.1,1.5,2.4,2.9,1.3,5.2c-0.9,1.8-2.2,3.2-3.7,4.5c-0.6,0.5-1.4,0.6-2.1,0.7
			C38.2,50,37.5,50,36.8,50z M36.8,48c2,0.4,3.6-0.4,4.8-2.1c0.7-0.9,1.4-1.8,1.7-2.9c0.1-0.5,0-0.9-0.4-1.2
			c-2.8-2.3-5.8-4.3-9.2-5.7c-1-0.4-1.9-0.3-2.8,0.4c-0.8,0.7-1.7,1.3-2.6,2c-0.5,0.4-1,0.5-1.5,0.2c-0.4-0.2-0.8-0.3-1.1-0.6
			c-3.9-2.3-7-5.3-10.1-8.6c-1.3-1.5-2.5-3-3.5-4.7c-0.4-0.8-0.5-1.5,0.1-2.2c0.5-0.6,0.9-1.4,1.5-1.9c1.1-1.1,1.1-2.3,0.4-3.7
			c-1.5-3-3.5-5.7-5.6-8.3C8.1,8.2,7.6,8,7,8.3c-2.4,1.3-5.1,3.3-5,6.7c0,3.2,1,6.1,2.7,8.8C9.3,31.2,15,37.6,22.1,42.7
			C26.4,45.8,31.1,48,36.8,48z"/>
		<path class="st0" d="M23.7,0C36,0.6,47,10.2,49.4,22.4c0.3,1.4,0.5,2.9,0.6,4.3c0,0.7,0,1.3-0.9,1.4c-0.7,0.1-1.1-0.4-1.1-1.3
			c-0.7-12.1-9.2-21.9-21-24.3c-1.1-0.2-2.2-0.3-3.3-0.4c-1.3-0.1-1.8-0.4-1.7-1.2C22.1-0.2,22.9,0,23.7,0z"/>
		<path class="st0" d="M23.5,8.4c8.3,0.4,15.7,6.9,17.6,15.3c0.2,0.9,0.3,1.9,0.4,2.9c0.1,0.7,0,1.4-0.9,1.5
			c-0.9,0.1-1.1-0.6-1.1-1.3c-0.2-2.8-1-5.5-2.5-7.9c-3.2-5.1-7.8-7.9-13.8-8.5c-0.5-0.1-1-0.1-1.3-0.6c-0.2-0.4-0.1-0.7,0.1-1
			C22.4,8.4,22.6,8.4,23.5,8.4z"/>
		<path class="st0" d="M33.2,26.9c0,0.6-0.2,1.1-0.8,1.2c-0.7,0.1-1.1-0.3-1.2-1c-0.4-4.1-3.8-7.8-8.3-8.3c-0.7-0.1-1.1-0.4-1-1.1
			c0.1-0.7,0.5-0.9,1.2-0.9C28,16.9,33.1,22,33.2,26.9z"/>
	</g>
</g>
</svg>
